%TF.GenerationSoftware,KiCad,Pcbnew,(5.1.9-0-10_14)*%
%TF.CreationDate,2021-02-23T19:53:59+01:00*%
%TF.ProjectId,codec_breakot,636f6465-635f-4627-9265-616b6f742e6b,rev?*%
%TF.SameCoordinates,Original*%
%TF.FileFunction,Copper,L2,Bot*%
%TF.FilePolarity,Positive*%
%FSLAX46Y46*%
G04 Gerber Fmt 4.6, Leading zero omitted, Abs format (unit mm)*
G04 Created by KiCad (PCBNEW (5.1.9-0-10_14)) date 2021-02-23 19:53:59*
%MOMM*%
%LPD*%
G01*
G04 APERTURE LIST*
%TA.AperFunction,ComponentPad*%
%ADD10R,1.000000X1.000000*%
%TD*%
%TA.AperFunction,ComponentPad*%
%ADD11O,1.000000X1.000000*%
%TD*%
%TA.AperFunction,ComponentPad*%
%ADD12R,1.700000X1.700000*%
%TD*%
%TA.AperFunction,ComponentPad*%
%ADD13O,1.700000X1.700000*%
%TD*%
%TA.AperFunction,ViaPad*%
%ADD14C,0.800000*%
%TD*%
%TA.AperFunction,ViaPad*%
%ADD15C,0.500000*%
%TD*%
%TA.AperFunction,Conductor*%
%ADD16C,0.300000*%
%TD*%
%TA.AperFunction,Conductor*%
%ADD17C,0.250000*%
%TD*%
%TA.AperFunction,Conductor*%
%ADD18C,0.100000*%
%TD*%
G04 APERTURE END LIST*
D10*
%TO.P,J9,1*%
%TO.N,DEBUG1*%
X169500000Y-78000000D03*
D11*
%TO.P,J9,2*%
%TO.N,DEBUG2*%
X170770000Y-78000000D03*
%TO.P,J9,3*%
%TO.N,DEBUG3*%
X172040000Y-78000000D03*
%TO.P,J9,4*%
%TO.N,DEBUG4*%
X173310000Y-78000000D03*
%TD*%
D12*
%TO.P,J6,1*%
%TO.N,+3V3*%
X173000000Y-55000000D03*
D13*
%TO.P,J6,2*%
%TO.N,SWDIO*%
X173000000Y-57540000D03*
%TO.P,J6,3*%
%TO.N,GND*%
X170460000Y-55000000D03*
%TO.P,J6,4*%
%TO.N,SWCLK*%
X170460000Y-57540000D03*
%TO.P,J6,5*%
%TO.N,GND*%
X167920000Y-55000000D03*
%TO.P,J6,6*%
%TO.N,SWO*%
X167920000Y-57540000D03*
%TO.P,J6,7*%
%TO.N,Net-(J6-Pad7)*%
X165380000Y-55000000D03*
%TO.P,J6,8*%
%TO.N,Net-(J6-Pad8)*%
X165380000Y-57540000D03*
%TO.P,J6,9*%
%TO.N,GND*%
X162840000Y-55000000D03*
%TO.P,J6,10*%
%TO.N,NRST*%
X162840000Y-57540000D03*
%TD*%
D12*
%TO.P,J4,1*%
%TO.N,VCC*%
X196500000Y-82500000D03*
D13*
%TO.P,J4,2*%
%TO.N,GND*%
X196500000Y-85040000D03*
%TD*%
D12*
%TO.P,J2,1*%
%TO.N,Net-(J2-Pad1)*%
X144500000Y-57500000D03*
D13*
%TO.P,J2,2*%
%TO.N,+3V3*%
X144500000Y-54960000D03*
%TO.P,J2,3*%
%TO.N,Net-(J2-Pad1)*%
X147040000Y-57500000D03*
%TO.P,J2,4*%
%TO.N,GND*%
X147040000Y-54960000D03*
%TD*%
D12*
%TO.P,J1,1*%
%TO.N,+3V3*%
X159000000Y-55000000D03*
D13*
%TO.P,J1,2*%
%TO.N,UART_TX*%
X156460000Y-55000000D03*
%TO.P,J1,3*%
%TO.N,UART_RX*%
X153920000Y-55000000D03*
%TO.P,J1,4*%
%TO.N,GND*%
X151380000Y-55000000D03*
%TD*%
D14*
%TO.N,GND*%
X131000000Y-56400000D03*
X133600000Y-55100000D03*
X134700000Y-56200000D03*
X128400000Y-57200000D03*
X127300000Y-56200000D03*
X128700000Y-64400000D03*
X127700000Y-63500000D03*
X125200000Y-62000000D03*
X126700000Y-62000000D03*
X134000000Y-61200000D03*
X143200000Y-67400000D03*
X148800000Y-69100000D03*
X147500000Y-75200000D03*
X148700000Y-78000000D03*
X145900000Y-81500000D03*
X145900000Y-83000000D03*
X145300000Y-85200000D03*
X146400000Y-86500000D03*
X144600000Y-79200000D03*
X143500000Y-80300000D03*
X142000000Y-80300000D03*
X153000000Y-82800000D03*
X160250000Y-64950000D03*
X137500000Y-83400000D03*
X136000000Y-83400000D03*
X163100000Y-93500000D03*
X170800000Y-84000000D03*
X172000000Y-84700000D03*
X179800000Y-84400000D03*
X181000000Y-85800000D03*
X182300000Y-83300000D03*
X184200000Y-84800000D03*
X181600000Y-77700000D03*
X183300000Y-76000000D03*
X184500000Y-74700000D03*
X197600000Y-89300000D03*
X193700000Y-89300000D03*
X197500000Y-101300000D03*
X193600000Y-101300000D03*
X169500000Y-87000000D03*
X161750000Y-64950000D03*
D15*
X137800000Y-68100000D03*
X143400000Y-73800000D03*
X141600000Y-73800000D03*
X139500000Y-75400000D03*
X137400000Y-74400000D03*
X137400000Y-71000000D03*
X139500000Y-68100000D03*
X144800000Y-71000000D03*
X141600000Y-71000000D03*
X141200000Y-68100000D03*
X141200000Y-69400000D03*
X143200000Y-71000000D03*
X137400000Y-69400000D03*
X137400000Y-72600000D03*
X137800000Y-75400000D03*
X141200000Y-75400000D03*
D14*
X166750000Y-94250000D03*
X164250000Y-92250000D03*
X163250000Y-89250000D03*
X144500000Y-63750000D03*
X146000000Y-63750000D03*
X159250000Y-81000000D03*
X159250000Y-82500000D03*
X159500000Y-84250000D03*
X159750000Y-63750000D03*
X171750000Y-94250000D03*
X163750000Y-64250000D03*
X138250000Y-64000000D03*
X135750000Y-64000000D03*
X135250000Y-58500000D03*
X137750000Y-58500000D03*
X194500000Y-69250000D03*
X193500000Y-69250000D03*
X193500000Y-68250000D03*
X194500000Y-68250000D03*
X190250000Y-69250000D03*
%TO.N,Net-(C21-Pad1)*%
X179750000Y-90000000D03*
X172250000Y-90000000D03*
%TO.N,Net-(C22-Pad1)*%
X179750000Y-89000000D03*
X172250000Y-89000000D03*
%TO.N,Net-(C24-Pad2)*%
X171575000Y-96775000D03*
X178250000Y-100500000D03*
%TO.N,Net-(C25-Pad2)*%
X170550000Y-96950000D03*
X178325000Y-103250000D03*
%TO.N,TOUCH_3*%
X150653095Y-89950058D03*
X143502753Y-95453414D03*
%TO.N,TOUCH_2*%
X149932108Y-89257108D03*
X142875000Y-94675000D03*
%TO.N,TOUCH_1*%
X149225000Y-88550000D03*
X142100000Y-93925000D03*
%TO.N,TOUCH_4*%
X151388543Y-90627643D03*
X144800000Y-96250000D03*
%TO.N,SWDIO*%
X165500000Y-68600000D03*
X167750000Y-66350000D03*
%TO.N,SWO*%
X155600000Y-60800000D03*
X153300000Y-60800000D03*
%TO.N,BOOT0*%
X147750000Y-61000000D03*
X147750000Y-64000000D03*
%TO.N,ACC_SCL*%
X151250000Y-63000000D03*
X148750000Y-63000000D03*
%TO.N,CODEC_SCL*%
X161750000Y-87000000D03*
X154750000Y-86500000D03*
%TO.N,CODEC_SDA*%
X160750000Y-88000000D03*
X156750000Y-87250000D03*
%TO.N,ACC_INT*%
X123500000Y-67250000D03*
X123500000Y-58000000D03*
%TO.N,CODEC_LRCLK*%
X165500000Y-84000000D03*
X167000000Y-84000000D03*
%TO.N,CODEC_DACDAT*%
X163000000Y-76000000D03*
X163750000Y-78000000D03*
%TD*%
D16*
%TO.N,Net-(C21-Pad1)*%
X179750000Y-90000000D02*
X172250000Y-90000000D01*
%TO.N,Net-(C22-Pad1)*%
X179750000Y-89000000D02*
X172250000Y-89000000D01*
%TO.N,Net-(C24-Pad2)*%
X175300000Y-100500000D02*
X171575000Y-96775000D01*
X178250000Y-100500000D02*
X175300000Y-100500000D01*
%TO.N,Net-(C25-Pad2)*%
X176850000Y-103250000D02*
X170550000Y-96950000D01*
X178325000Y-103250000D02*
X176850000Y-103250000D01*
%TO.N,TOUCH_3*%
X145149739Y-95453414D02*
X143502753Y-95453414D01*
X150653095Y-89950058D02*
X145149739Y-95453414D01*
%TO.N,TOUCH_2*%
X149932108Y-89257108D02*
X144614216Y-94575000D01*
X142975000Y-94575000D02*
X142875000Y-94675000D01*
X144614216Y-94575000D02*
X142975000Y-94575000D01*
%TO.N,TOUCH_1*%
X149225000Y-88550000D02*
X143800000Y-93975000D01*
X143800000Y-93975000D02*
X143750000Y-93925000D01*
X143750000Y-93925000D02*
X142100000Y-93925000D01*
%TO.N,TOUCH_4*%
X145766186Y-96250000D02*
X144800000Y-96250000D01*
X151388543Y-90627643D02*
X145766186Y-96250000D01*
%TO.N,SWDIO*%
X165500000Y-68600000D02*
X167750000Y-66350000D01*
%TO.N,SWO*%
X153300000Y-60800000D02*
X155600000Y-60800000D01*
%TO.N,BOOT0*%
X147750000Y-64000000D02*
X147750000Y-61000000D01*
%TO.N,ACC_SCL*%
X148750000Y-63000000D02*
X151250000Y-63000000D01*
%TO.N,CODEC_SCL*%
X161250000Y-86500000D02*
X161750000Y-87000000D01*
X154750000Y-86500000D02*
X161250000Y-86500000D01*
%TO.N,CODEC_SDA*%
X157500000Y-88000000D02*
X160750000Y-88000000D01*
X156750000Y-87250000D02*
X157500000Y-88000000D01*
%TO.N,ACC_INT*%
X123500000Y-58000000D02*
X123500000Y-67250000D01*
D17*
%TO.N,CODEC_LRCLK*%
X167000000Y-84000000D02*
X165500000Y-84000000D01*
D16*
%TO.N,CODEC_DACDAT*%
X163000000Y-76000000D02*
X163750000Y-76750000D01*
X163750000Y-76750000D02*
X163750000Y-78000000D01*
%TD*%
D17*
%TO.N,GND*%
X199575001Y-113575000D02*
X88425000Y-113575000D01*
X88425000Y-109906335D01*
X91049000Y-109906335D01*
X91049000Y-110093665D01*
X91085547Y-110277396D01*
X91157235Y-110450467D01*
X91261310Y-110606227D01*
X91393773Y-110738690D01*
X91549533Y-110842765D01*
X91722604Y-110914453D01*
X91906335Y-110951000D01*
X92093665Y-110951000D01*
X92277396Y-110914453D01*
X92450467Y-110842765D01*
X92606227Y-110738690D01*
X92738690Y-110606227D01*
X92842765Y-110450467D01*
X92914453Y-110277396D01*
X92951000Y-110093665D01*
X92951000Y-109906335D01*
X92914453Y-109722604D01*
X92842765Y-109549533D01*
X92738690Y-109393773D01*
X92606227Y-109261310D01*
X92450467Y-109157235D01*
X92277396Y-109085547D01*
X92093665Y-109049000D01*
X91906335Y-109049000D01*
X91722604Y-109085547D01*
X91549533Y-109157235D01*
X91393773Y-109261310D01*
X91261310Y-109393773D01*
X91157235Y-109549533D01*
X91085547Y-109722604D01*
X91049000Y-109906335D01*
X88425000Y-109906335D01*
X88425000Y-104879348D01*
X186275000Y-104879348D01*
X186275000Y-105120652D01*
X186322076Y-105357319D01*
X186414419Y-105580255D01*
X186548481Y-105780892D01*
X186719108Y-105951519D01*
X186919745Y-106085581D01*
X187142681Y-106177924D01*
X187379348Y-106225000D01*
X187620652Y-106225000D01*
X187857319Y-106177924D01*
X188080255Y-106085581D01*
X188280892Y-105951519D01*
X188451519Y-105780892D01*
X188585581Y-105580255D01*
X188677924Y-105357319D01*
X188725000Y-105120652D01*
X188725000Y-104879348D01*
X193275000Y-104879348D01*
X193275000Y-105120652D01*
X193322076Y-105357319D01*
X193414419Y-105580255D01*
X193548481Y-105780892D01*
X193719108Y-105951519D01*
X193919745Y-106085581D01*
X194142681Y-106177924D01*
X194379348Y-106225000D01*
X194620652Y-106225000D01*
X194857319Y-106177924D01*
X195080255Y-106085581D01*
X195280892Y-105951519D01*
X195451519Y-105780892D01*
X195585581Y-105580255D01*
X195677924Y-105357319D01*
X195725000Y-105120652D01*
X195725000Y-104879348D01*
X195677924Y-104642681D01*
X195585581Y-104419745D01*
X195451519Y-104219108D01*
X195280892Y-104048481D01*
X195080255Y-103914419D01*
X194857319Y-103822076D01*
X194620652Y-103775000D01*
X194379348Y-103775000D01*
X194142681Y-103822076D01*
X193919745Y-103914419D01*
X193719108Y-104048481D01*
X193548481Y-104219108D01*
X193414419Y-104419745D01*
X193322076Y-104642681D01*
X193275000Y-104879348D01*
X188725000Y-104879348D01*
X188677924Y-104642681D01*
X188585581Y-104419745D01*
X188451519Y-104219108D01*
X188280892Y-104048481D01*
X188080255Y-103914419D01*
X187857319Y-103822076D01*
X187620652Y-103775000D01*
X187379348Y-103775000D01*
X187142681Y-103822076D01*
X186919745Y-103914419D01*
X186719108Y-104048481D01*
X186548481Y-104219108D01*
X186414419Y-104419745D01*
X186322076Y-104642681D01*
X186275000Y-104879348D01*
X88425000Y-104879348D01*
X88425000Y-93848669D01*
X141325000Y-93848669D01*
X141325000Y-94001331D01*
X141354783Y-94151059D01*
X141413204Y-94292100D01*
X141498018Y-94419034D01*
X141605966Y-94526982D01*
X141732900Y-94611796D01*
X141873941Y-94670217D01*
X142023669Y-94700000D01*
X142100000Y-94700000D01*
X142100000Y-94751331D01*
X142129783Y-94901059D01*
X142188204Y-95042100D01*
X142273018Y-95169034D01*
X142380966Y-95276982D01*
X142507900Y-95361796D01*
X142648941Y-95420217D01*
X142727753Y-95435894D01*
X142727753Y-95529745D01*
X142757536Y-95679473D01*
X142815957Y-95820514D01*
X142900771Y-95947448D01*
X143008719Y-96055396D01*
X143135653Y-96140210D01*
X143276694Y-96198631D01*
X143426422Y-96228414D01*
X143579084Y-96228414D01*
X143728812Y-96198631D01*
X143869853Y-96140210D01*
X143996787Y-96055396D01*
X144073550Y-95978633D01*
X144054783Y-96023941D01*
X144025000Y-96173669D01*
X144025000Y-96326331D01*
X144054783Y-96476059D01*
X144113204Y-96617100D01*
X144198018Y-96744034D01*
X144305966Y-96851982D01*
X144432900Y-96936796D01*
X144573941Y-96995217D01*
X144723669Y-97025000D01*
X144876331Y-97025000D01*
X145026059Y-96995217D01*
X145167100Y-96936796D01*
X145261576Y-96873669D01*
X169775000Y-96873669D01*
X169775000Y-97026331D01*
X169804783Y-97176059D01*
X169863204Y-97317100D01*
X169948018Y-97444034D01*
X170055966Y-97551982D01*
X170182900Y-97636796D01*
X170323941Y-97695217D01*
X170473669Y-97725000D01*
X170582539Y-97725000D01*
X176460534Y-103602996D01*
X176476973Y-103623027D01*
X176556914Y-103688633D01*
X176648119Y-103737383D01*
X176747082Y-103767403D01*
X176824212Y-103775000D01*
X176824219Y-103775000D01*
X176849999Y-103777539D01*
X176875779Y-103775000D01*
X177753984Y-103775000D01*
X177830966Y-103851982D01*
X177957900Y-103936796D01*
X178098941Y-103995217D01*
X178248669Y-104025000D01*
X178401331Y-104025000D01*
X178551059Y-103995217D01*
X178692100Y-103936796D01*
X178819034Y-103851982D01*
X178926982Y-103744034D01*
X179011796Y-103617100D01*
X179070217Y-103476059D01*
X179100000Y-103326331D01*
X179100000Y-103173669D01*
X179070217Y-103023941D01*
X179011796Y-102882900D01*
X178926982Y-102755966D01*
X178819034Y-102648018D01*
X178692100Y-102563204D01*
X178551059Y-102504783D01*
X178401331Y-102475000D01*
X178248669Y-102475000D01*
X178098941Y-102504783D01*
X177957900Y-102563204D01*
X177830966Y-102648018D01*
X177753984Y-102725000D01*
X177067462Y-102725000D01*
X175367462Y-101025000D01*
X177678984Y-101025000D01*
X177755966Y-101101982D01*
X177882900Y-101186796D01*
X178023941Y-101245217D01*
X178173669Y-101275000D01*
X178326331Y-101275000D01*
X178476059Y-101245217D01*
X178617100Y-101186796D01*
X178744034Y-101101982D01*
X178851982Y-100994034D01*
X178936796Y-100867100D01*
X178995217Y-100726059D01*
X179025000Y-100576331D01*
X179025000Y-100423669D01*
X178995217Y-100273941D01*
X178936796Y-100132900D01*
X178851982Y-100005966D01*
X178744034Y-99898018D01*
X178617100Y-99813204D01*
X178476059Y-99754783D01*
X178326331Y-99725000D01*
X178173669Y-99725000D01*
X178023941Y-99754783D01*
X177882900Y-99813204D01*
X177755966Y-99898018D01*
X177678984Y-99975000D01*
X175517462Y-99975000D01*
X172350000Y-96807539D01*
X172350000Y-96698669D01*
X172320217Y-96548941D01*
X172261796Y-96407900D01*
X172176982Y-96280966D01*
X172069034Y-96173018D01*
X171942100Y-96088204D01*
X171801059Y-96029783D01*
X171651331Y-96000000D01*
X171498669Y-96000000D01*
X171348941Y-96029783D01*
X171207900Y-96088204D01*
X171080966Y-96173018D01*
X170973018Y-96280966D01*
X170963964Y-96294517D01*
X170917100Y-96263204D01*
X170776059Y-96204783D01*
X170626331Y-96175000D01*
X170473669Y-96175000D01*
X170323941Y-96204783D01*
X170182900Y-96263204D01*
X170055966Y-96348018D01*
X169948018Y-96455966D01*
X169863204Y-96582900D01*
X169804783Y-96723941D01*
X169775000Y-96873669D01*
X145261576Y-96873669D01*
X145294034Y-96851982D01*
X145371016Y-96775000D01*
X145740406Y-96775000D01*
X145766186Y-96777539D01*
X145791966Y-96775000D01*
X145791974Y-96775000D01*
X145869104Y-96767403D01*
X145968067Y-96737383D01*
X146059272Y-96688633D01*
X146139213Y-96623027D01*
X146155657Y-96602990D01*
X149879299Y-92879348D01*
X186275000Y-92879348D01*
X186275000Y-93120652D01*
X186322076Y-93357319D01*
X186414419Y-93580255D01*
X186548481Y-93780892D01*
X186719108Y-93951519D01*
X186919745Y-94085581D01*
X187142681Y-94177924D01*
X187379348Y-94225000D01*
X187620652Y-94225000D01*
X187857319Y-94177924D01*
X188080255Y-94085581D01*
X188280892Y-93951519D01*
X188451519Y-93780892D01*
X188585581Y-93580255D01*
X188677924Y-93357319D01*
X188725000Y-93120652D01*
X188725000Y-92879348D01*
X193275000Y-92879348D01*
X193275000Y-93120652D01*
X193322076Y-93357319D01*
X193414419Y-93580255D01*
X193548481Y-93780892D01*
X193719108Y-93951519D01*
X193919745Y-94085581D01*
X194142681Y-94177924D01*
X194379348Y-94225000D01*
X194620652Y-94225000D01*
X194857319Y-94177924D01*
X195080255Y-94085581D01*
X195280892Y-93951519D01*
X195451519Y-93780892D01*
X195585581Y-93580255D01*
X195677924Y-93357319D01*
X195725000Y-93120652D01*
X195725000Y-92879348D01*
X195677924Y-92642681D01*
X195585581Y-92419745D01*
X195451519Y-92219108D01*
X195280892Y-92048481D01*
X195080255Y-91914419D01*
X194857319Y-91822076D01*
X194620652Y-91775000D01*
X194379348Y-91775000D01*
X194142681Y-91822076D01*
X193919745Y-91914419D01*
X193719108Y-92048481D01*
X193548481Y-92219108D01*
X193414419Y-92419745D01*
X193322076Y-92642681D01*
X193275000Y-92879348D01*
X188725000Y-92879348D01*
X188677924Y-92642681D01*
X188585581Y-92419745D01*
X188451519Y-92219108D01*
X188280892Y-92048481D01*
X188080255Y-91914419D01*
X187857319Y-91822076D01*
X187620652Y-91775000D01*
X187379348Y-91775000D01*
X187142681Y-91822076D01*
X186919745Y-91914419D01*
X186719108Y-92048481D01*
X186548481Y-92219108D01*
X186414419Y-92419745D01*
X186322076Y-92642681D01*
X186275000Y-92879348D01*
X149879299Y-92879348D01*
X151356005Y-91402643D01*
X151464874Y-91402643D01*
X151614602Y-91372860D01*
X151755643Y-91314439D01*
X151882577Y-91229625D01*
X151990525Y-91121677D01*
X152075339Y-90994743D01*
X152133760Y-90853702D01*
X152163543Y-90703974D01*
X152163543Y-90551312D01*
X152133760Y-90401584D01*
X152075339Y-90260543D01*
X151990525Y-90133609D01*
X151882577Y-90025661D01*
X151755643Y-89940847D01*
X151614602Y-89882426D01*
X151464874Y-89852643D01*
X151423901Y-89852643D01*
X151398312Y-89723999D01*
X151339891Y-89582958D01*
X151255077Y-89456024D01*
X151147129Y-89348076D01*
X151020195Y-89263262D01*
X150879154Y-89204841D01*
X150729426Y-89175058D01*
X150705970Y-89175058D01*
X150677325Y-89031049D01*
X150632847Y-88923669D01*
X171475000Y-88923669D01*
X171475000Y-89076331D01*
X171504783Y-89226059D01*
X171563204Y-89367100D01*
X171648018Y-89494034D01*
X171653984Y-89500000D01*
X171648018Y-89505966D01*
X171563204Y-89632900D01*
X171504783Y-89773941D01*
X171475000Y-89923669D01*
X171475000Y-90076331D01*
X171504783Y-90226059D01*
X171563204Y-90367100D01*
X171648018Y-90494034D01*
X171755966Y-90601982D01*
X171882900Y-90686796D01*
X172023941Y-90745217D01*
X172173669Y-90775000D01*
X172326331Y-90775000D01*
X172476059Y-90745217D01*
X172617100Y-90686796D01*
X172744034Y-90601982D01*
X172821016Y-90525000D01*
X179178984Y-90525000D01*
X179255966Y-90601982D01*
X179382900Y-90686796D01*
X179523941Y-90745217D01*
X179673669Y-90775000D01*
X179826331Y-90775000D01*
X179976059Y-90745217D01*
X180117100Y-90686796D01*
X180244034Y-90601982D01*
X180351982Y-90494034D01*
X180436796Y-90367100D01*
X180495217Y-90226059D01*
X180525000Y-90076331D01*
X180525000Y-89923669D01*
X180495217Y-89773941D01*
X180436796Y-89632900D01*
X180351982Y-89505966D01*
X180346016Y-89500000D01*
X180351982Y-89494034D01*
X180436796Y-89367100D01*
X180495217Y-89226059D01*
X180525000Y-89076331D01*
X180525000Y-88923669D01*
X180495217Y-88773941D01*
X180436796Y-88632900D01*
X180351982Y-88505966D01*
X180244034Y-88398018D01*
X180117100Y-88313204D01*
X179976059Y-88254783D01*
X179826331Y-88225000D01*
X179673669Y-88225000D01*
X179523941Y-88254783D01*
X179382900Y-88313204D01*
X179255966Y-88398018D01*
X179178984Y-88475000D01*
X172821016Y-88475000D01*
X172744034Y-88398018D01*
X172617100Y-88313204D01*
X172476059Y-88254783D01*
X172326331Y-88225000D01*
X172173669Y-88225000D01*
X172023941Y-88254783D01*
X171882900Y-88313204D01*
X171755966Y-88398018D01*
X171648018Y-88505966D01*
X171563204Y-88632900D01*
X171504783Y-88773941D01*
X171475000Y-88923669D01*
X150632847Y-88923669D01*
X150618904Y-88890008D01*
X150534090Y-88763074D01*
X150426142Y-88655126D01*
X150299208Y-88570312D01*
X150158167Y-88511891D01*
X150008439Y-88482108D01*
X150000000Y-88482108D01*
X150000000Y-88473669D01*
X149970217Y-88323941D01*
X149911796Y-88182900D01*
X149826982Y-88055966D01*
X149719034Y-87948018D01*
X149592100Y-87863204D01*
X149451059Y-87804783D01*
X149301331Y-87775000D01*
X149148669Y-87775000D01*
X148998941Y-87804783D01*
X148857900Y-87863204D01*
X148730966Y-87948018D01*
X148623018Y-88055966D01*
X148538204Y-88182900D01*
X148479783Y-88323941D01*
X148450000Y-88473669D01*
X148450000Y-88582538D01*
X143632539Y-93400000D01*
X142671016Y-93400000D01*
X142594034Y-93323018D01*
X142467100Y-93238204D01*
X142326059Y-93179783D01*
X142176331Y-93150000D01*
X142023669Y-93150000D01*
X141873941Y-93179783D01*
X141732900Y-93238204D01*
X141605966Y-93323018D01*
X141498018Y-93430966D01*
X141413204Y-93557900D01*
X141354783Y-93698941D01*
X141325000Y-93848669D01*
X88425000Y-93848669D01*
X88425000Y-86423669D01*
X153975000Y-86423669D01*
X153975000Y-86576331D01*
X154004783Y-86726059D01*
X154063204Y-86867100D01*
X154148018Y-86994034D01*
X154255966Y-87101982D01*
X154382900Y-87186796D01*
X154523941Y-87245217D01*
X154673669Y-87275000D01*
X154826331Y-87275000D01*
X154976059Y-87245217D01*
X155117100Y-87186796D01*
X155244034Y-87101982D01*
X155321016Y-87025000D01*
X156004572Y-87025000D01*
X155975000Y-87173669D01*
X155975000Y-87326331D01*
X156004783Y-87476059D01*
X156063204Y-87617100D01*
X156148018Y-87744034D01*
X156255966Y-87851982D01*
X156382900Y-87936796D01*
X156523941Y-87995217D01*
X156673669Y-88025000D01*
X156782538Y-88025000D01*
X157110534Y-88352995D01*
X157126973Y-88373027D01*
X157206914Y-88438633D01*
X157298119Y-88487383D01*
X157397082Y-88517403D01*
X157474212Y-88525000D01*
X157474219Y-88525000D01*
X157499999Y-88527539D01*
X157525779Y-88525000D01*
X160178984Y-88525000D01*
X160255966Y-88601982D01*
X160382900Y-88686796D01*
X160523941Y-88745217D01*
X160673669Y-88775000D01*
X160826331Y-88775000D01*
X160976059Y-88745217D01*
X161117100Y-88686796D01*
X161244034Y-88601982D01*
X161351982Y-88494034D01*
X161436796Y-88367100D01*
X161495217Y-88226059D01*
X161525000Y-88076331D01*
X161525000Y-87923669D01*
X161495217Y-87773941D01*
X161474906Y-87724906D01*
X161523941Y-87745217D01*
X161673669Y-87775000D01*
X161826331Y-87775000D01*
X161976059Y-87745217D01*
X162117100Y-87686796D01*
X162244034Y-87601982D01*
X162351982Y-87494034D01*
X162436796Y-87367100D01*
X162495217Y-87226059D01*
X162525000Y-87076331D01*
X162525000Y-86923669D01*
X162495217Y-86773941D01*
X162436796Y-86632900D01*
X162351982Y-86505966D01*
X162244034Y-86398018D01*
X162117100Y-86313204D01*
X161976059Y-86254783D01*
X161826331Y-86225000D01*
X161717461Y-86225000D01*
X161639470Y-86147009D01*
X161623027Y-86126973D01*
X161543086Y-86061367D01*
X161451881Y-86012617D01*
X161352918Y-85982597D01*
X161275788Y-85975000D01*
X161275780Y-85975000D01*
X161250000Y-85972461D01*
X161224220Y-85975000D01*
X155321016Y-85975000D01*
X155244034Y-85898018D01*
X155117100Y-85813204D01*
X154976059Y-85754783D01*
X154826331Y-85725000D01*
X154673669Y-85725000D01*
X154523941Y-85754783D01*
X154382900Y-85813204D01*
X154255966Y-85898018D01*
X154148018Y-86005966D01*
X154063204Y-86132900D01*
X154004783Y-86273941D01*
X153975000Y-86423669D01*
X88425000Y-86423669D01*
X88425000Y-85350111D01*
X195366662Y-85350111D01*
X195385369Y-85411803D01*
X195479322Y-85622113D01*
X195612499Y-85810052D01*
X195779782Y-85968398D01*
X195974742Y-86091067D01*
X196189888Y-86173344D01*
X196371000Y-86126653D01*
X196371000Y-85169000D01*
X196629000Y-85169000D01*
X196629000Y-86126653D01*
X196810112Y-86173344D01*
X197025258Y-86091067D01*
X197220218Y-85968398D01*
X197387501Y-85810052D01*
X197520678Y-85622113D01*
X197614631Y-85411803D01*
X197633338Y-85350111D01*
X197586116Y-85169000D01*
X196629000Y-85169000D01*
X196371000Y-85169000D01*
X195413884Y-85169000D01*
X195366662Y-85350111D01*
X88425000Y-85350111D01*
X88425000Y-83923669D01*
X164725000Y-83923669D01*
X164725000Y-84076331D01*
X164754783Y-84226059D01*
X164813204Y-84367100D01*
X164898018Y-84494034D01*
X165005966Y-84601982D01*
X165132900Y-84686796D01*
X165273941Y-84745217D01*
X165423669Y-84775000D01*
X165576331Y-84775000D01*
X165726059Y-84745217D01*
X165867100Y-84686796D01*
X165994034Y-84601982D01*
X166096016Y-84500000D01*
X166403984Y-84500000D01*
X166505966Y-84601982D01*
X166632900Y-84686796D01*
X166773941Y-84745217D01*
X166923669Y-84775000D01*
X167076331Y-84775000D01*
X167226059Y-84745217D01*
X167263064Y-84729889D01*
X195366662Y-84729889D01*
X195413884Y-84911000D01*
X196371000Y-84911000D01*
X196371000Y-83953347D01*
X196629000Y-83953347D01*
X196629000Y-84911000D01*
X197586116Y-84911000D01*
X197633338Y-84729889D01*
X197614631Y-84668197D01*
X197520678Y-84457887D01*
X197387501Y-84269948D01*
X197220218Y-84111602D01*
X197025258Y-83988933D01*
X196810112Y-83906656D01*
X196629000Y-83953347D01*
X196371000Y-83953347D01*
X196189888Y-83906656D01*
X195974742Y-83988933D01*
X195779782Y-84111602D01*
X195612499Y-84269948D01*
X195479322Y-84457887D01*
X195385369Y-84668197D01*
X195366662Y-84729889D01*
X167263064Y-84729889D01*
X167367100Y-84686796D01*
X167494034Y-84601982D01*
X167601982Y-84494034D01*
X167686796Y-84367100D01*
X167745217Y-84226059D01*
X167775000Y-84076331D01*
X167775000Y-83923669D01*
X167745217Y-83773941D01*
X167686796Y-83632900D01*
X167601982Y-83505966D01*
X167494034Y-83398018D01*
X167367100Y-83313204D01*
X167226059Y-83254783D01*
X167076331Y-83225000D01*
X166923669Y-83225000D01*
X166773941Y-83254783D01*
X166632900Y-83313204D01*
X166505966Y-83398018D01*
X166403984Y-83500000D01*
X166096016Y-83500000D01*
X165994034Y-83398018D01*
X165867100Y-83313204D01*
X165726059Y-83254783D01*
X165576331Y-83225000D01*
X165423669Y-83225000D01*
X165273941Y-83254783D01*
X165132900Y-83313204D01*
X165005966Y-83398018D01*
X164898018Y-83505966D01*
X164813204Y-83632900D01*
X164754783Y-83773941D01*
X164725000Y-83923669D01*
X88425000Y-83923669D01*
X88425000Y-81650000D01*
X195273186Y-81650000D01*
X195273186Y-83350000D01*
X195280426Y-83423513D01*
X195301869Y-83494200D01*
X195336691Y-83559347D01*
X195383552Y-83616448D01*
X195440653Y-83663309D01*
X195505800Y-83698131D01*
X195576487Y-83719574D01*
X195650000Y-83726814D01*
X197350000Y-83726814D01*
X197423513Y-83719574D01*
X197494200Y-83698131D01*
X197559347Y-83663309D01*
X197616448Y-83616448D01*
X197663309Y-83559347D01*
X197698131Y-83494200D01*
X197719574Y-83423513D01*
X197726814Y-83350000D01*
X197726814Y-81650000D01*
X197719574Y-81576487D01*
X197698131Y-81505800D01*
X197663309Y-81440653D01*
X197616448Y-81383552D01*
X197559347Y-81336691D01*
X197494200Y-81301869D01*
X197423513Y-81280426D01*
X197350000Y-81273186D01*
X195650000Y-81273186D01*
X195576487Y-81280426D01*
X195505800Y-81301869D01*
X195440653Y-81336691D01*
X195383552Y-81383552D01*
X195336691Y-81440653D01*
X195301869Y-81505800D01*
X195280426Y-81576487D01*
X195273186Y-81650000D01*
X88425000Y-81650000D01*
X88425000Y-75923669D01*
X162225000Y-75923669D01*
X162225000Y-76076331D01*
X162254783Y-76226059D01*
X162313204Y-76367100D01*
X162398018Y-76494034D01*
X162505966Y-76601982D01*
X162632900Y-76686796D01*
X162773941Y-76745217D01*
X162923669Y-76775000D01*
X163032538Y-76775000D01*
X163225000Y-76967462D01*
X163225001Y-77428983D01*
X163148018Y-77505966D01*
X163063204Y-77632900D01*
X163004783Y-77773941D01*
X162975000Y-77923669D01*
X162975000Y-78076331D01*
X163004783Y-78226059D01*
X163063204Y-78367100D01*
X163148018Y-78494034D01*
X163255966Y-78601982D01*
X163382900Y-78686796D01*
X163523941Y-78745217D01*
X163673669Y-78775000D01*
X163826331Y-78775000D01*
X163976059Y-78745217D01*
X164117100Y-78686796D01*
X164244034Y-78601982D01*
X164351982Y-78494034D01*
X164436796Y-78367100D01*
X164495217Y-78226059D01*
X164525000Y-78076331D01*
X164525000Y-77923669D01*
X164495217Y-77773941D01*
X164436796Y-77632900D01*
X164351982Y-77505966D01*
X164346016Y-77500000D01*
X168623186Y-77500000D01*
X168623186Y-78500000D01*
X168630426Y-78573513D01*
X168651869Y-78644200D01*
X168686691Y-78709347D01*
X168733552Y-78766448D01*
X168790653Y-78813309D01*
X168855800Y-78848131D01*
X168926487Y-78869574D01*
X169000000Y-78876814D01*
X170000000Y-78876814D01*
X170073513Y-78869574D01*
X170144200Y-78848131D01*
X170209347Y-78813309D01*
X170266448Y-78766448D01*
X170293245Y-78733796D01*
X170355532Y-78775415D01*
X170514772Y-78841374D01*
X170683820Y-78875000D01*
X170856180Y-78875000D01*
X171025228Y-78841374D01*
X171184468Y-78775415D01*
X171327780Y-78679657D01*
X171405000Y-78602437D01*
X171482220Y-78679657D01*
X171625532Y-78775415D01*
X171784772Y-78841374D01*
X171953820Y-78875000D01*
X172126180Y-78875000D01*
X172295228Y-78841374D01*
X172454468Y-78775415D01*
X172597780Y-78679657D01*
X172675000Y-78602437D01*
X172752220Y-78679657D01*
X172895532Y-78775415D01*
X173054772Y-78841374D01*
X173223820Y-78875000D01*
X173396180Y-78875000D01*
X173565228Y-78841374D01*
X173724468Y-78775415D01*
X173867780Y-78679657D01*
X173989657Y-78557780D01*
X174085415Y-78414468D01*
X174151374Y-78255228D01*
X174185000Y-78086180D01*
X174185000Y-77913820D01*
X174151374Y-77744772D01*
X174085415Y-77585532D01*
X173989657Y-77442220D01*
X173867780Y-77320343D01*
X173724468Y-77224585D01*
X173565228Y-77158626D01*
X173396180Y-77125000D01*
X173223820Y-77125000D01*
X173054772Y-77158626D01*
X172895532Y-77224585D01*
X172752220Y-77320343D01*
X172675000Y-77397563D01*
X172597780Y-77320343D01*
X172454468Y-77224585D01*
X172295228Y-77158626D01*
X172126180Y-77125000D01*
X171953820Y-77125000D01*
X171784772Y-77158626D01*
X171625532Y-77224585D01*
X171482220Y-77320343D01*
X171405000Y-77397563D01*
X171327780Y-77320343D01*
X171184468Y-77224585D01*
X171025228Y-77158626D01*
X170856180Y-77125000D01*
X170683820Y-77125000D01*
X170514772Y-77158626D01*
X170355532Y-77224585D01*
X170293245Y-77266204D01*
X170266448Y-77233552D01*
X170209347Y-77186691D01*
X170144200Y-77151869D01*
X170073513Y-77130426D01*
X170000000Y-77123186D01*
X169000000Y-77123186D01*
X168926487Y-77130426D01*
X168855800Y-77151869D01*
X168790653Y-77186691D01*
X168733552Y-77233552D01*
X168686691Y-77290653D01*
X168651869Y-77355800D01*
X168630426Y-77426487D01*
X168623186Y-77500000D01*
X164346016Y-77500000D01*
X164275000Y-77428984D01*
X164275000Y-76775779D01*
X164277539Y-76749999D01*
X164275000Y-76724219D01*
X164275000Y-76724212D01*
X164267403Y-76647082D01*
X164237383Y-76548119D01*
X164188633Y-76456914D01*
X164123027Y-76376973D01*
X164102995Y-76360534D01*
X163775000Y-76032538D01*
X163775000Y-75923669D01*
X163745217Y-75773941D01*
X163686796Y-75632900D01*
X163601982Y-75505966D01*
X163494034Y-75398018D01*
X163367100Y-75313204D01*
X163226059Y-75254783D01*
X163076331Y-75225000D01*
X162923669Y-75225000D01*
X162773941Y-75254783D01*
X162632900Y-75313204D01*
X162505966Y-75398018D01*
X162398018Y-75505966D01*
X162313204Y-75632900D01*
X162254783Y-75773941D01*
X162225000Y-75923669D01*
X88425000Y-75923669D01*
X88425000Y-69800000D01*
X137675000Y-69800000D01*
X137675000Y-73800000D01*
X137677402Y-73824386D01*
X137684515Y-73847835D01*
X137696066Y-73869446D01*
X137711612Y-73888388D01*
X137730554Y-73903934D01*
X137752165Y-73915485D01*
X137775614Y-73922598D01*
X137800000Y-73925000D01*
X138075000Y-73925000D01*
X138075000Y-75000000D01*
X138077402Y-75024386D01*
X138084515Y-75047835D01*
X138096066Y-75069446D01*
X138111612Y-75088388D01*
X138130554Y-75103934D01*
X138152165Y-75115485D01*
X138175614Y-75122598D01*
X138200000Y-75125000D01*
X140800000Y-75125000D01*
X140824386Y-75122598D01*
X140847835Y-75115485D01*
X140869446Y-75103934D01*
X140888388Y-75088388D01*
X140903934Y-75069446D01*
X140915485Y-75047835D01*
X140922598Y-75024386D01*
X140925000Y-75000000D01*
X140925000Y-73925000D01*
X141200000Y-73925000D01*
X141224386Y-73922598D01*
X141247835Y-73915485D01*
X141269446Y-73903934D01*
X141288388Y-73888388D01*
X141303934Y-73869446D01*
X141315485Y-73847835D01*
X141322598Y-73824386D01*
X141325000Y-73800000D01*
X141325000Y-73525000D01*
X147400000Y-73525000D01*
X147424386Y-73522598D01*
X147447835Y-73515485D01*
X147469446Y-73503934D01*
X147488388Y-73488388D01*
X147503934Y-73469446D01*
X147515485Y-73447835D01*
X147522598Y-73424386D01*
X147525000Y-73400000D01*
X147525000Y-73003594D01*
X195325000Y-73003594D01*
X195325000Y-73146406D01*
X195352861Y-73286475D01*
X195407513Y-73418416D01*
X195486856Y-73537161D01*
X195587839Y-73638144D01*
X195706584Y-73717487D01*
X195838525Y-73772139D01*
X195978594Y-73800000D01*
X196121406Y-73800000D01*
X196261475Y-73772139D01*
X196393416Y-73717487D01*
X196512161Y-73638144D01*
X196613144Y-73537161D01*
X196692487Y-73418416D01*
X196747139Y-73286475D01*
X196775000Y-73146406D01*
X196775000Y-73003594D01*
X196747139Y-72863525D01*
X196692487Y-72731584D01*
X196613144Y-72612839D01*
X196512161Y-72511856D01*
X196393416Y-72432513D01*
X196261475Y-72377861D01*
X196121406Y-72350000D01*
X195978594Y-72350000D01*
X195838525Y-72377861D01*
X195706584Y-72432513D01*
X195587839Y-72511856D01*
X195486856Y-72612839D01*
X195407513Y-72731584D01*
X195352861Y-72863525D01*
X195325000Y-73003594D01*
X147525000Y-73003594D01*
X147525000Y-71400000D01*
X147522598Y-71375614D01*
X147515485Y-71352165D01*
X147503934Y-71330554D01*
X147488388Y-71311612D01*
X147469446Y-71296066D01*
X147447835Y-71284515D01*
X147424386Y-71277402D01*
X147400000Y-71275000D01*
X141325000Y-71275000D01*
X141325000Y-69800000D01*
X141322598Y-69775614D01*
X141315485Y-69752165D01*
X141303934Y-69730554D01*
X141288388Y-69711612D01*
X141269446Y-69696066D01*
X141247835Y-69684515D01*
X141224386Y-69677402D01*
X141200000Y-69675000D01*
X140925000Y-69675000D01*
X140925000Y-68600000D01*
X140922598Y-68575614D01*
X140915485Y-68552165D01*
X140903934Y-68530554D01*
X140898284Y-68523669D01*
X164725000Y-68523669D01*
X164725000Y-68676331D01*
X164754783Y-68826059D01*
X164813204Y-68967100D01*
X164898018Y-69094034D01*
X165005966Y-69201982D01*
X165132900Y-69286796D01*
X165273941Y-69345217D01*
X165423669Y-69375000D01*
X165576331Y-69375000D01*
X165726059Y-69345217D01*
X165867100Y-69286796D01*
X165994034Y-69201982D01*
X166101982Y-69094034D01*
X166186796Y-68967100D01*
X166233811Y-68853594D01*
X195325000Y-68853594D01*
X195325000Y-68996406D01*
X195352861Y-69136475D01*
X195407513Y-69268416D01*
X195486856Y-69387161D01*
X195587839Y-69488144D01*
X195706584Y-69567487D01*
X195838525Y-69622139D01*
X195978594Y-69650000D01*
X196121406Y-69650000D01*
X196261475Y-69622139D01*
X196393416Y-69567487D01*
X196512161Y-69488144D01*
X196613144Y-69387161D01*
X196692487Y-69268416D01*
X196747139Y-69136475D01*
X196775000Y-68996406D01*
X196775000Y-68853594D01*
X196747139Y-68713525D01*
X196692487Y-68581584D01*
X196613144Y-68462839D01*
X196512161Y-68361856D01*
X196393416Y-68282513D01*
X196261475Y-68227861D01*
X196121406Y-68200000D01*
X195978594Y-68200000D01*
X195838525Y-68227861D01*
X195706584Y-68282513D01*
X195587839Y-68361856D01*
X195486856Y-68462839D01*
X195407513Y-68581584D01*
X195352861Y-68713525D01*
X195325000Y-68853594D01*
X166233811Y-68853594D01*
X166245217Y-68826059D01*
X166275000Y-68676331D01*
X166275000Y-68567461D01*
X167717462Y-67125000D01*
X167826331Y-67125000D01*
X167976059Y-67095217D01*
X168117100Y-67036796D01*
X168244034Y-66951982D01*
X168351982Y-66844034D01*
X168436796Y-66717100D01*
X168495217Y-66576059D01*
X168525000Y-66426331D01*
X168525000Y-66273669D01*
X168495217Y-66123941D01*
X168436796Y-65982900D01*
X168351982Y-65855966D01*
X168244034Y-65748018D01*
X168117100Y-65663204D01*
X167976059Y-65604783D01*
X167826331Y-65575000D01*
X167673669Y-65575000D01*
X167523941Y-65604783D01*
X167382900Y-65663204D01*
X167255966Y-65748018D01*
X167148018Y-65855966D01*
X167063204Y-65982900D01*
X167004783Y-66123941D01*
X166975000Y-66273669D01*
X166975000Y-66382538D01*
X165532539Y-67825000D01*
X165423669Y-67825000D01*
X165273941Y-67854783D01*
X165132900Y-67913204D01*
X165005966Y-67998018D01*
X164898018Y-68105966D01*
X164813204Y-68232900D01*
X164754783Y-68373941D01*
X164725000Y-68523669D01*
X140898284Y-68523669D01*
X140888388Y-68511612D01*
X140869446Y-68496066D01*
X140847835Y-68484515D01*
X140824386Y-68477402D01*
X140800000Y-68475000D01*
X138200000Y-68475000D01*
X138175614Y-68477402D01*
X138152165Y-68484515D01*
X138130554Y-68496066D01*
X138111612Y-68511612D01*
X138096066Y-68530554D01*
X138084515Y-68552165D01*
X138077402Y-68575614D01*
X138075000Y-68600000D01*
X138075000Y-69675000D01*
X137800000Y-69675000D01*
X137775614Y-69677402D01*
X137752165Y-69684515D01*
X137730554Y-69696066D01*
X137711612Y-69711612D01*
X137696066Y-69730554D01*
X137684515Y-69752165D01*
X137677402Y-69775614D01*
X137675000Y-69800000D01*
X88425000Y-69800000D01*
X88425000Y-57923669D01*
X122725000Y-57923669D01*
X122725000Y-58076331D01*
X122754783Y-58226059D01*
X122813204Y-58367100D01*
X122898018Y-58494034D01*
X122975000Y-58571016D01*
X122975001Y-66678983D01*
X122898018Y-66755966D01*
X122813204Y-66882900D01*
X122754783Y-67023941D01*
X122725000Y-67173669D01*
X122725000Y-67326331D01*
X122754783Y-67476059D01*
X122813204Y-67617100D01*
X122898018Y-67744034D01*
X123005966Y-67851982D01*
X123132900Y-67936796D01*
X123273941Y-67995217D01*
X123423669Y-68025000D01*
X123576331Y-68025000D01*
X123726059Y-67995217D01*
X123867100Y-67936796D01*
X123994034Y-67851982D01*
X124101982Y-67744034D01*
X124186796Y-67617100D01*
X124245217Y-67476059D01*
X124275000Y-67326331D01*
X124275000Y-67173669D01*
X124245217Y-67023941D01*
X124186796Y-66882900D01*
X124101982Y-66755966D01*
X124025000Y-66678984D01*
X124025000Y-60923669D01*
X146975000Y-60923669D01*
X146975000Y-61076331D01*
X147004783Y-61226059D01*
X147063204Y-61367100D01*
X147148018Y-61494034D01*
X147225001Y-61571017D01*
X147225000Y-63428984D01*
X147148018Y-63505966D01*
X147063204Y-63632900D01*
X147004783Y-63773941D01*
X146975000Y-63923669D01*
X146975000Y-64076331D01*
X147004783Y-64226059D01*
X147063204Y-64367100D01*
X147148018Y-64494034D01*
X147255966Y-64601982D01*
X147382900Y-64686796D01*
X147523941Y-64745217D01*
X147673669Y-64775000D01*
X147826331Y-64775000D01*
X147976059Y-64745217D01*
X148117100Y-64686796D01*
X148244034Y-64601982D01*
X148351982Y-64494034D01*
X148436796Y-64367100D01*
X148495217Y-64226059D01*
X148525000Y-64076331D01*
X148525000Y-63923669D01*
X148495217Y-63773941D01*
X148474906Y-63724906D01*
X148523941Y-63745217D01*
X148673669Y-63775000D01*
X148826331Y-63775000D01*
X148976059Y-63745217D01*
X149117100Y-63686796D01*
X149244034Y-63601982D01*
X149321016Y-63525000D01*
X150678984Y-63525000D01*
X150755966Y-63601982D01*
X150882900Y-63686796D01*
X151023941Y-63745217D01*
X151173669Y-63775000D01*
X151326331Y-63775000D01*
X151476059Y-63745217D01*
X151617100Y-63686796D01*
X151744034Y-63601982D01*
X151851982Y-63494034D01*
X151936796Y-63367100D01*
X151995217Y-63226059D01*
X152025000Y-63076331D01*
X152025000Y-62923669D01*
X151995217Y-62773941D01*
X151936796Y-62632900D01*
X151851982Y-62505966D01*
X151744034Y-62398018D01*
X151617100Y-62313204D01*
X151476059Y-62254783D01*
X151326331Y-62225000D01*
X151173669Y-62225000D01*
X151023941Y-62254783D01*
X150882900Y-62313204D01*
X150755966Y-62398018D01*
X150678984Y-62475000D01*
X149321016Y-62475000D01*
X149244034Y-62398018D01*
X149117100Y-62313204D01*
X148976059Y-62254783D01*
X148826331Y-62225000D01*
X148673669Y-62225000D01*
X148523941Y-62254783D01*
X148382900Y-62313204D01*
X148275000Y-62385300D01*
X148275000Y-61571016D01*
X148351982Y-61494034D01*
X148436796Y-61367100D01*
X148495217Y-61226059D01*
X148525000Y-61076331D01*
X148525000Y-60923669D01*
X148495217Y-60773941D01*
X148474394Y-60723669D01*
X152525000Y-60723669D01*
X152525000Y-60876331D01*
X152554783Y-61026059D01*
X152613204Y-61167100D01*
X152698018Y-61294034D01*
X152805966Y-61401982D01*
X152932900Y-61486796D01*
X153073941Y-61545217D01*
X153223669Y-61575000D01*
X153376331Y-61575000D01*
X153526059Y-61545217D01*
X153667100Y-61486796D01*
X153794034Y-61401982D01*
X153871016Y-61325000D01*
X155028984Y-61325000D01*
X155105966Y-61401982D01*
X155232900Y-61486796D01*
X155373941Y-61545217D01*
X155523669Y-61575000D01*
X155676331Y-61575000D01*
X155826059Y-61545217D01*
X155967100Y-61486796D01*
X156094034Y-61401982D01*
X156201982Y-61294034D01*
X156286796Y-61167100D01*
X156345217Y-61026059D01*
X156375000Y-60876331D01*
X156375000Y-60723669D01*
X156345217Y-60573941D01*
X156286796Y-60432900D01*
X156201982Y-60305966D01*
X156094034Y-60198018D01*
X155967100Y-60113204D01*
X155826059Y-60054783D01*
X155676331Y-60025000D01*
X155523669Y-60025000D01*
X155373941Y-60054783D01*
X155232900Y-60113204D01*
X155105966Y-60198018D01*
X155028984Y-60275000D01*
X153871016Y-60275000D01*
X153794034Y-60198018D01*
X153667100Y-60113204D01*
X153526059Y-60054783D01*
X153376331Y-60025000D01*
X153223669Y-60025000D01*
X153073941Y-60054783D01*
X152932900Y-60113204D01*
X152805966Y-60198018D01*
X152698018Y-60305966D01*
X152613204Y-60432900D01*
X152554783Y-60573941D01*
X152525000Y-60723669D01*
X148474394Y-60723669D01*
X148436796Y-60632900D01*
X148351982Y-60505966D01*
X148244034Y-60398018D01*
X148117100Y-60313204D01*
X147976059Y-60254783D01*
X147826331Y-60225000D01*
X147673669Y-60225000D01*
X147523941Y-60254783D01*
X147382900Y-60313204D01*
X147255966Y-60398018D01*
X147148018Y-60505966D01*
X147063204Y-60632900D01*
X147004783Y-60773941D01*
X146975000Y-60923669D01*
X124025000Y-60923669D01*
X124025000Y-58571016D01*
X124101982Y-58494034D01*
X124186796Y-58367100D01*
X124245217Y-58226059D01*
X124275000Y-58076331D01*
X124275000Y-57923669D01*
X124245217Y-57773941D01*
X124186796Y-57632900D01*
X124101982Y-57505966D01*
X123994034Y-57398018D01*
X123867100Y-57313204D01*
X123726059Y-57254783D01*
X123576331Y-57225000D01*
X123423669Y-57225000D01*
X123273941Y-57254783D01*
X123132900Y-57313204D01*
X123005966Y-57398018D01*
X122898018Y-57505966D01*
X122813204Y-57632900D01*
X122754783Y-57773941D01*
X122725000Y-57923669D01*
X88425000Y-57923669D01*
X88425000Y-56650000D01*
X143273186Y-56650000D01*
X143273186Y-58350000D01*
X143280426Y-58423513D01*
X143301869Y-58494200D01*
X143336691Y-58559347D01*
X143383552Y-58616448D01*
X143440653Y-58663309D01*
X143505800Y-58698131D01*
X143576487Y-58719574D01*
X143650000Y-58726814D01*
X145350000Y-58726814D01*
X145423513Y-58719574D01*
X145494200Y-58698131D01*
X145559347Y-58663309D01*
X145616448Y-58616448D01*
X145663309Y-58559347D01*
X145698131Y-58494200D01*
X145719574Y-58423513D01*
X145726814Y-58350000D01*
X145726814Y-57379348D01*
X145815000Y-57379348D01*
X145815000Y-57620652D01*
X145862076Y-57857319D01*
X145954419Y-58080255D01*
X146088481Y-58280892D01*
X146259108Y-58451519D01*
X146459745Y-58585581D01*
X146682681Y-58677924D01*
X146919348Y-58725000D01*
X147160652Y-58725000D01*
X147397319Y-58677924D01*
X147620255Y-58585581D01*
X147820892Y-58451519D01*
X147991519Y-58280892D01*
X148125581Y-58080255D01*
X148217924Y-57857319D01*
X148265000Y-57620652D01*
X148265000Y-57419348D01*
X161615000Y-57419348D01*
X161615000Y-57660652D01*
X161662076Y-57897319D01*
X161754419Y-58120255D01*
X161888481Y-58320892D01*
X162059108Y-58491519D01*
X162259745Y-58625581D01*
X162482681Y-58717924D01*
X162719348Y-58765000D01*
X162960652Y-58765000D01*
X163197319Y-58717924D01*
X163420255Y-58625581D01*
X163620892Y-58491519D01*
X163791519Y-58320892D01*
X163925581Y-58120255D01*
X164017924Y-57897319D01*
X164065000Y-57660652D01*
X164065000Y-57419348D01*
X164155000Y-57419348D01*
X164155000Y-57660652D01*
X164202076Y-57897319D01*
X164294419Y-58120255D01*
X164428481Y-58320892D01*
X164599108Y-58491519D01*
X164799745Y-58625581D01*
X165022681Y-58717924D01*
X165259348Y-58765000D01*
X165500652Y-58765000D01*
X165737319Y-58717924D01*
X165960255Y-58625581D01*
X166160892Y-58491519D01*
X166331519Y-58320892D01*
X166465581Y-58120255D01*
X166557924Y-57897319D01*
X166605000Y-57660652D01*
X166605000Y-57419348D01*
X166695000Y-57419348D01*
X166695000Y-57660652D01*
X166742076Y-57897319D01*
X166834419Y-58120255D01*
X166968481Y-58320892D01*
X167139108Y-58491519D01*
X167339745Y-58625581D01*
X167562681Y-58717924D01*
X167799348Y-58765000D01*
X168040652Y-58765000D01*
X168277319Y-58717924D01*
X168500255Y-58625581D01*
X168700892Y-58491519D01*
X168871519Y-58320892D01*
X169005581Y-58120255D01*
X169097924Y-57897319D01*
X169145000Y-57660652D01*
X169145000Y-57419348D01*
X169235000Y-57419348D01*
X169235000Y-57660652D01*
X169282076Y-57897319D01*
X169374419Y-58120255D01*
X169508481Y-58320892D01*
X169679108Y-58491519D01*
X169879745Y-58625581D01*
X170102681Y-58717924D01*
X170339348Y-58765000D01*
X170580652Y-58765000D01*
X170817319Y-58717924D01*
X171040255Y-58625581D01*
X171240892Y-58491519D01*
X171411519Y-58320892D01*
X171545581Y-58120255D01*
X171637924Y-57897319D01*
X171685000Y-57660652D01*
X171685000Y-57419348D01*
X171775000Y-57419348D01*
X171775000Y-57660652D01*
X171822076Y-57897319D01*
X171914419Y-58120255D01*
X172048481Y-58320892D01*
X172219108Y-58491519D01*
X172419745Y-58625581D01*
X172642681Y-58717924D01*
X172879348Y-58765000D01*
X173120652Y-58765000D01*
X173357319Y-58717924D01*
X173580255Y-58625581D01*
X173780892Y-58491519D01*
X173951519Y-58320892D01*
X174085581Y-58120255D01*
X174177924Y-57897319D01*
X174225000Y-57660652D01*
X174225000Y-57419348D01*
X174177924Y-57182681D01*
X174085581Y-56959745D01*
X173951519Y-56759108D01*
X173780892Y-56588481D01*
X173580255Y-56454419D01*
X173357319Y-56362076D01*
X173120652Y-56315000D01*
X172879348Y-56315000D01*
X172642681Y-56362076D01*
X172419745Y-56454419D01*
X172219108Y-56588481D01*
X172048481Y-56759108D01*
X171914419Y-56959745D01*
X171822076Y-57182681D01*
X171775000Y-57419348D01*
X171685000Y-57419348D01*
X171637924Y-57182681D01*
X171545581Y-56959745D01*
X171411519Y-56759108D01*
X171240892Y-56588481D01*
X171040255Y-56454419D01*
X170817319Y-56362076D01*
X170580652Y-56315000D01*
X170339348Y-56315000D01*
X170102681Y-56362076D01*
X169879745Y-56454419D01*
X169679108Y-56588481D01*
X169508481Y-56759108D01*
X169374419Y-56959745D01*
X169282076Y-57182681D01*
X169235000Y-57419348D01*
X169145000Y-57419348D01*
X169097924Y-57182681D01*
X169005581Y-56959745D01*
X168871519Y-56759108D01*
X168700892Y-56588481D01*
X168500255Y-56454419D01*
X168277319Y-56362076D01*
X168040652Y-56315000D01*
X167799348Y-56315000D01*
X167562681Y-56362076D01*
X167339745Y-56454419D01*
X167139108Y-56588481D01*
X166968481Y-56759108D01*
X166834419Y-56959745D01*
X166742076Y-57182681D01*
X166695000Y-57419348D01*
X166605000Y-57419348D01*
X166557924Y-57182681D01*
X166465581Y-56959745D01*
X166331519Y-56759108D01*
X166160892Y-56588481D01*
X165960255Y-56454419D01*
X165737319Y-56362076D01*
X165500652Y-56315000D01*
X165259348Y-56315000D01*
X165022681Y-56362076D01*
X164799745Y-56454419D01*
X164599108Y-56588481D01*
X164428481Y-56759108D01*
X164294419Y-56959745D01*
X164202076Y-57182681D01*
X164155000Y-57419348D01*
X164065000Y-57419348D01*
X164017924Y-57182681D01*
X163925581Y-56959745D01*
X163791519Y-56759108D01*
X163620892Y-56588481D01*
X163420255Y-56454419D01*
X163197319Y-56362076D01*
X162960652Y-56315000D01*
X162719348Y-56315000D01*
X162482681Y-56362076D01*
X162259745Y-56454419D01*
X162059108Y-56588481D01*
X161888481Y-56759108D01*
X161754419Y-56959745D01*
X161662076Y-57182681D01*
X161615000Y-57419348D01*
X148265000Y-57419348D01*
X148265000Y-57379348D01*
X148217924Y-57142681D01*
X148125581Y-56919745D01*
X147991519Y-56719108D01*
X147820892Y-56548481D01*
X147620255Y-56414419D01*
X147397319Y-56322076D01*
X147160652Y-56275000D01*
X146919348Y-56275000D01*
X146682681Y-56322076D01*
X146459745Y-56414419D01*
X146259108Y-56548481D01*
X146088481Y-56719108D01*
X145954419Y-56919745D01*
X145862076Y-57142681D01*
X145815000Y-57379348D01*
X145726814Y-57379348D01*
X145726814Y-56650000D01*
X145719574Y-56576487D01*
X145698131Y-56505800D01*
X145663309Y-56440653D01*
X145616448Y-56383552D01*
X145559347Y-56336691D01*
X145494200Y-56301869D01*
X145423513Y-56280426D01*
X145350000Y-56273186D01*
X143650000Y-56273186D01*
X143576487Y-56280426D01*
X143505800Y-56301869D01*
X143440653Y-56336691D01*
X143383552Y-56383552D01*
X143336691Y-56440653D01*
X143301869Y-56505800D01*
X143280426Y-56576487D01*
X143273186Y-56650000D01*
X88425000Y-56650000D01*
X88425000Y-54839348D01*
X143275000Y-54839348D01*
X143275000Y-55080652D01*
X143322076Y-55317319D01*
X143414419Y-55540255D01*
X143548481Y-55740892D01*
X143719108Y-55911519D01*
X143919745Y-56045581D01*
X144142681Y-56137924D01*
X144379348Y-56185000D01*
X144620652Y-56185000D01*
X144857319Y-56137924D01*
X145080255Y-56045581D01*
X145280892Y-55911519D01*
X145451519Y-55740892D01*
X145585581Y-55540255D01*
X145677924Y-55317319D01*
X145687314Y-55270112D01*
X145906656Y-55270112D01*
X145988933Y-55485258D01*
X146111602Y-55680218D01*
X146269948Y-55847501D01*
X146457887Y-55980678D01*
X146668197Y-56074631D01*
X146729889Y-56093338D01*
X146911000Y-56046116D01*
X146911000Y-55089000D01*
X147169000Y-55089000D01*
X147169000Y-56046116D01*
X147350111Y-56093338D01*
X147411803Y-56074631D01*
X147622113Y-55980678D01*
X147810052Y-55847501D01*
X147968398Y-55680218D01*
X148091067Y-55485258D01*
X148158047Y-55310112D01*
X150246656Y-55310112D01*
X150328933Y-55525258D01*
X150451602Y-55720218D01*
X150609948Y-55887501D01*
X150797887Y-56020678D01*
X151008197Y-56114631D01*
X151069889Y-56133338D01*
X151251000Y-56086116D01*
X151251000Y-55129000D01*
X151509000Y-55129000D01*
X151509000Y-56086116D01*
X151690111Y-56133338D01*
X151751803Y-56114631D01*
X151962113Y-56020678D01*
X152150052Y-55887501D01*
X152308398Y-55720218D01*
X152431067Y-55525258D01*
X152513344Y-55310112D01*
X152466653Y-55129000D01*
X151509000Y-55129000D01*
X151251000Y-55129000D01*
X150293347Y-55129000D01*
X150246656Y-55310112D01*
X148158047Y-55310112D01*
X148173344Y-55270112D01*
X148126653Y-55089000D01*
X147169000Y-55089000D01*
X146911000Y-55089000D01*
X145953347Y-55089000D01*
X145906656Y-55270112D01*
X145687314Y-55270112D01*
X145725000Y-55080652D01*
X145725000Y-54879348D01*
X152695000Y-54879348D01*
X152695000Y-55120652D01*
X152742076Y-55357319D01*
X152834419Y-55580255D01*
X152968481Y-55780892D01*
X153139108Y-55951519D01*
X153339745Y-56085581D01*
X153562681Y-56177924D01*
X153799348Y-56225000D01*
X154040652Y-56225000D01*
X154277319Y-56177924D01*
X154500255Y-56085581D01*
X154700892Y-55951519D01*
X154871519Y-55780892D01*
X155005581Y-55580255D01*
X155097924Y-55357319D01*
X155145000Y-55120652D01*
X155145000Y-54879348D01*
X155235000Y-54879348D01*
X155235000Y-55120652D01*
X155282076Y-55357319D01*
X155374419Y-55580255D01*
X155508481Y-55780892D01*
X155679108Y-55951519D01*
X155879745Y-56085581D01*
X156102681Y-56177924D01*
X156339348Y-56225000D01*
X156580652Y-56225000D01*
X156817319Y-56177924D01*
X157040255Y-56085581D01*
X157240892Y-55951519D01*
X157411519Y-55780892D01*
X157545581Y-55580255D01*
X157637924Y-55357319D01*
X157685000Y-55120652D01*
X157685000Y-54879348D01*
X157637924Y-54642681D01*
X157545581Y-54419745D01*
X157411519Y-54219108D01*
X157342411Y-54150000D01*
X157773186Y-54150000D01*
X157773186Y-55850000D01*
X157780426Y-55923513D01*
X157801869Y-55994200D01*
X157836691Y-56059347D01*
X157883552Y-56116448D01*
X157940653Y-56163309D01*
X158005800Y-56198131D01*
X158076487Y-56219574D01*
X158150000Y-56226814D01*
X159850000Y-56226814D01*
X159923513Y-56219574D01*
X159994200Y-56198131D01*
X160059347Y-56163309D01*
X160116448Y-56116448D01*
X160163309Y-56059347D01*
X160198131Y-55994200D01*
X160219574Y-55923513D01*
X160226814Y-55850000D01*
X160226814Y-55310112D01*
X161706656Y-55310112D01*
X161788933Y-55525258D01*
X161911602Y-55720218D01*
X162069948Y-55887501D01*
X162257887Y-56020678D01*
X162468197Y-56114631D01*
X162529889Y-56133338D01*
X162711000Y-56086116D01*
X162711000Y-55129000D01*
X162969000Y-55129000D01*
X162969000Y-56086116D01*
X163150111Y-56133338D01*
X163211803Y-56114631D01*
X163422113Y-56020678D01*
X163610052Y-55887501D01*
X163768398Y-55720218D01*
X163891067Y-55525258D01*
X163973344Y-55310112D01*
X163926653Y-55129000D01*
X162969000Y-55129000D01*
X162711000Y-55129000D01*
X161753347Y-55129000D01*
X161706656Y-55310112D01*
X160226814Y-55310112D01*
X160226814Y-54879348D01*
X164155000Y-54879348D01*
X164155000Y-55120652D01*
X164202076Y-55357319D01*
X164294419Y-55580255D01*
X164428481Y-55780892D01*
X164599108Y-55951519D01*
X164799745Y-56085581D01*
X165022681Y-56177924D01*
X165259348Y-56225000D01*
X165500652Y-56225000D01*
X165737319Y-56177924D01*
X165960255Y-56085581D01*
X166160892Y-55951519D01*
X166331519Y-55780892D01*
X166465581Y-55580255D01*
X166557924Y-55357319D01*
X166567314Y-55310112D01*
X166786656Y-55310112D01*
X166868933Y-55525258D01*
X166991602Y-55720218D01*
X167149948Y-55887501D01*
X167337887Y-56020678D01*
X167548197Y-56114631D01*
X167609889Y-56133338D01*
X167791000Y-56086116D01*
X167791000Y-55129000D01*
X168049000Y-55129000D01*
X168049000Y-56086116D01*
X168230111Y-56133338D01*
X168291803Y-56114631D01*
X168502113Y-56020678D01*
X168690052Y-55887501D01*
X168848398Y-55720218D01*
X168971067Y-55525258D01*
X169053344Y-55310112D01*
X169326656Y-55310112D01*
X169408933Y-55525258D01*
X169531602Y-55720218D01*
X169689948Y-55887501D01*
X169877887Y-56020678D01*
X170088197Y-56114631D01*
X170149889Y-56133338D01*
X170331000Y-56086116D01*
X170331000Y-55129000D01*
X170589000Y-55129000D01*
X170589000Y-56086116D01*
X170770111Y-56133338D01*
X170831803Y-56114631D01*
X171042113Y-56020678D01*
X171230052Y-55887501D01*
X171388398Y-55720218D01*
X171511067Y-55525258D01*
X171593344Y-55310112D01*
X171546653Y-55129000D01*
X170589000Y-55129000D01*
X170331000Y-55129000D01*
X169373347Y-55129000D01*
X169326656Y-55310112D01*
X169053344Y-55310112D01*
X169006653Y-55129000D01*
X168049000Y-55129000D01*
X167791000Y-55129000D01*
X166833347Y-55129000D01*
X166786656Y-55310112D01*
X166567314Y-55310112D01*
X166605000Y-55120652D01*
X166605000Y-54879348D01*
X166567315Y-54689888D01*
X166786656Y-54689888D01*
X166833347Y-54871000D01*
X167791000Y-54871000D01*
X167791000Y-53913884D01*
X168049000Y-53913884D01*
X168049000Y-54871000D01*
X169006653Y-54871000D01*
X169053344Y-54689888D01*
X169326656Y-54689888D01*
X169373347Y-54871000D01*
X170331000Y-54871000D01*
X170331000Y-53913884D01*
X170589000Y-53913884D01*
X170589000Y-54871000D01*
X171546653Y-54871000D01*
X171593344Y-54689888D01*
X171511067Y-54474742D01*
X171388398Y-54279782D01*
X171265550Y-54150000D01*
X171773186Y-54150000D01*
X171773186Y-55850000D01*
X171780426Y-55923513D01*
X171801869Y-55994200D01*
X171836691Y-56059347D01*
X171883552Y-56116448D01*
X171940653Y-56163309D01*
X172005800Y-56198131D01*
X172076487Y-56219574D01*
X172150000Y-56226814D01*
X173850000Y-56226814D01*
X173923513Y-56219574D01*
X173994200Y-56198131D01*
X174059347Y-56163309D01*
X174116448Y-56116448D01*
X174163309Y-56059347D01*
X174198131Y-55994200D01*
X174219574Y-55923513D01*
X174226814Y-55850000D01*
X174226814Y-54150000D01*
X174219574Y-54076487D01*
X174198131Y-54005800D01*
X174163309Y-53940653D01*
X174116448Y-53883552D01*
X174059347Y-53836691D01*
X173994200Y-53801869D01*
X173923513Y-53780426D01*
X173850000Y-53773186D01*
X172150000Y-53773186D01*
X172076487Y-53780426D01*
X172005800Y-53801869D01*
X171940653Y-53836691D01*
X171883552Y-53883552D01*
X171836691Y-53940653D01*
X171801869Y-54005800D01*
X171780426Y-54076487D01*
X171773186Y-54150000D01*
X171265550Y-54150000D01*
X171230052Y-54112499D01*
X171042113Y-53979322D01*
X170831803Y-53885369D01*
X170770111Y-53866662D01*
X170589000Y-53913884D01*
X170331000Y-53913884D01*
X170149889Y-53866662D01*
X170088197Y-53885369D01*
X169877887Y-53979322D01*
X169689948Y-54112499D01*
X169531602Y-54279782D01*
X169408933Y-54474742D01*
X169326656Y-54689888D01*
X169053344Y-54689888D01*
X168971067Y-54474742D01*
X168848398Y-54279782D01*
X168690052Y-54112499D01*
X168502113Y-53979322D01*
X168291803Y-53885369D01*
X168230111Y-53866662D01*
X168049000Y-53913884D01*
X167791000Y-53913884D01*
X167609889Y-53866662D01*
X167548197Y-53885369D01*
X167337887Y-53979322D01*
X167149948Y-54112499D01*
X166991602Y-54279782D01*
X166868933Y-54474742D01*
X166786656Y-54689888D01*
X166567315Y-54689888D01*
X166557924Y-54642681D01*
X166465581Y-54419745D01*
X166331519Y-54219108D01*
X166160892Y-54048481D01*
X165960255Y-53914419D01*
X165737319Y-53822076D01*
X165500652Y-53775000D01*
X165259348Y-53775000D01*
X165022681Y-53822076D01*
X164799745Y-53914419D01*
X164599108Y-54048481D01*
X164428481Y-54219108D01*
X164294419Y-54419745D01*
X164202076Y-54642681D01*
X164155000Y-54879348D01*
X160226814Y-54879348D01*
X160226814Y-54689888D01*
X161706656Y-54689888D01*
X161753347Y-54871000D01*
X162711000Y-54871000D01*
X162711000Y-53913884D01*
X162969000Y-53913884D01*
X162969000Y-54871000D01*
X163926653Y-54871000D01*
X163973344Y-54689888D01*
X163891067Y-54474742D01*
X163768398Y-54279782D01*
X163610052Y-54112499D01*
X163422113Y-53979322D01*
X163211803Y-53885369D01*
X163150111Y-53866662D01*
X162969000Y-53913884D01*
X162711000Y-53913884D01*
X162529889Y-53866662D01*
X162468197Y-53885369D01*
X162257887Y-53979322D01*
X162069948Y-54112499D01*
X161911602Y-54279782D01*
X161788933Y-54474742D01*
X161706656Y-54689888D01*
X160226814Y-54689888D01*
X160226814Y-54150000D01*
X160219574Y-54076487D01*
X160198131Y-54005800D01*
X160163309Y-53940653D01*
X160116448Y-53883552D01*
X160059347Y-53836691D01*
X159994200Y-53801869D01*
X159923513Y-53780426D01*
X159850000Y-53773186D01*
X158150000Y-53773186D01*
X158076487Y-53780426D01*
X158005800Y-53801869D01*
X157940653Y-53836691D01*
X157883552Y-53883552D01*
X157836691Y-53940653D01*
X157801869Y-54005800D01*
X157780426Y-54076487D01*
X157773186Y-54150000D01*
X157342411Y-54150000D01*
X157240892Y-54048481D01*
X157040255Y-53914419D01*
X156817319Y-53822076D01*
X156580652Y-53775000D01*
X156339348Y-53775000D01*
X156102681Y-53822076D01*
X155879745Y-53914419D01*
X155679108Y-54048481D01*
X155508481Y-54219108D01*
X155374419Y-54419745D01*
X155282076Y-54642681D01*
X155235000Y-54879348D01*
X155145000Y-54879348D01*
X155097924Y-54642681D01*
X155005581Y-54419745D01*
X154871519Y-54219108D01*
X154700892Y-54048481D01*
X154500255Y-53914419D01*
X154277319Y-53822076D01*
X154040652Y-53775000D01*
X153799348Y-53775000D01*
X153562681Y-53822076D01*
X153339745Y-53914419D01*
X153139108Y-54048481D01*
X152968481Y-54219108D01*
X152834419Y-54419745D01*
X152742076Y-54642681D01*
X152695000Y-54879348D01*
X145725000Y-54879348D01*
X145725000Y-54839348D01*
X145687315Y-54649888D01*
X145906656Y-54649888D01*
X145953347Y-54831000D01*
X146911000Y-54831000D01*
X146911000Y-53873884D01*
X147169000Y-53873884D01*
X147169000Y-54831000D01*
X148126653Y-54831000D01*
X148163031Y-54689888D01*
X150246656Y-54689888D01*
X150293347Y-54871000D01*
X151251000Y-54871000D01*
X151251000Y-53913884D01*
X151509000Y-53913884D01*
X151509000Y-54871000D01*
X152466653Y-54871000D01*
X152513344Y-54689888D01*
X152431067Y-54474742D01*
X152308398Y-54279782D01*
X152150052Y-54112499D01*
X151962113Y-53979322D01*
X151751803Y-53885369D01*
X151690111Y-53866662D01*
X151509000Y-53913884D01*
X151251000Y-53913884D01*
X151069889Y-53866662D01*
X151008197Y-53885369D01*
X150797887Y-53979322D01*
X150609948Y-54112499D01*
X150451602Y-54279782D01*
X150328933Y-54474742D01*
X150246656Y-54689888D01*
X148163031Y-54689888D01*
X148173344Y-54649888D01*
X148091067Y-54434742D01*
X147968398Y-54239782D01*
X147810052Y-54072499D01*
X147622113Y-53939322D01*
X147411803Y-53845369D01*
X147350111Y-53826662D01*
X147169000Y-53873884D01*
X146911000Y-53873884D01*
X146729889Y-53826662D01*
X146668197Y-53845369D01*
X146457887Y-53939322D01*
X146269948Y-54072499D01*
X146111602Y-54239782D01*
X145988933Y-54434742D01*
X145906656Y-54649888D01*
X145687315Y-54649888D01*
X145677924Y-54602681D01*
X145585581Y-54379745D01*
X145451519Y-54179108D01*
X145280892Y-54008481D01*
X145080255Y-53874419D01*
X144857319Y-53782076D01*
X144620652Y-53735000D01*
X144379348Y-53735000D01*
X144142681Y-53782076D01*
X143919745Y-53874419D01*
X143719108Y-54008481D01*
X143548481Y-54179108D01*
X143414419Y-54379745D01*
X143322076Y-54602681D01*
X143275000Y-54839348D01*
X88425000Y-54839348D01*
X88425000Y-47906335D01*
X91049000Y-47906335D01*
X91049000Y-48093665D01*
X91085547Y-48277396D01*
X91157235Y-48450467D01*
X91261310Y-48606227D01*
X91393773Y-48738690D01*
X91549533Y-48842765D01*
X91722604Y-48914453D01*
X91906335Y-48951000D01*
X92093665Y-48951000D01*
X92277396Y-48914453D01*
X92450467Y-48842765D01*
X92606227Y-48738690D01*
X92738690Y-48606227D01*
X92842765Y-48450467D01*
X92914453Y-48277396D01*
X92951000Y-48093665D01*
X92951000Y-47906335D01*
X195049000Y-47906335D01*
X195049000Y-48093665D01*
X195085547Y-48277396D01*
X195157235Y-48450467D01*
X195261310Y-48606227D01*
X195393773Y-48738690D01*
X195549533Y-48842765D01*
X195722604Y-48914453D01*
X195906335Y-48951000D01*
X196093665Y-48951000D01*
X196277396Y-48914453D01*
X196450467Y-48842765D01*
X196606227Y-48738690D01*
X196738690Y-48606227D01*
X196842765Y-48450467D01*
X196914453Y-48277396D01*
X196951000Y-48093665D01*
X196951000Y-47906335D01*
X196914453Y-47722604D01*
X196842765Y-47549533D01*
X196738690Y-47393773D01*
X196606227Y-47261310D01*
X196450467Y-47157235D01*
X196277396Y-47085547D01*
X196093665Y-47049000D01*
X195906335Y-47049000D01*
X195722604Y-47085547D01*
X195549533Y-47157235D01*
X195393773Y-47261310D01*
X195261310Y-47393773D01*
X195157235Y-47549533D01*
X195085547Y-47722604D01*
X195049000Y-47906335D01*
X92951000Y-47906335D01*
X92914453Y-47722604D01*
X92842765Y-47549533D01*
X92738690Y-47393773D01*
X92606227Y-47261310D01*
X92450467Y-47157235D01*
X92277396Y-47085547D01*
X92093665Y-47049000D01*
X91906335Y-47049000D01*
X91722604Y-47085547D01*
X91549533Y-47157235D01*
X91393773Y-47261310D01*
X91261310Y-47393773D01*
X91157235Y-47549533D01*
X91085547Y-47722604D01*
X91049000Y-47906335D01*
X88425000Y-47906335D01*
X88425000Y-44425000D01*
X199575000Y-44425000D01*
X199575001Y-113575000D01*
%TA.AperFunction,Conductor*%
D18*
G36*
X199575001Y-113575000D02*
G01*
X88425000Y-113575000D01*
X88425000Y-109906335D01*
X91049000Y-109906335D01*
X91049000Y-110093665D01*
X91085547Y-110277396D01*
X91157235Y-110450467D01*
X91261310Y-110606227D01*
X91393773Y-110738690D01*
X91549533Y-110842765D01*
X91722604Y-110914453D01*
X91906335Y-110951000D01*
X92093665Y-110951000D01*
X92277396Y-110914453D01*
X92450467Y-110842765D01*
X92606227Y-110738690D01*
X92738690Y-110606227D01*
X92842765Y-110450467D01*
X92914453Y-110277396D01*
X92951000Y-110093665D01*
X92951000Y-109906335D01*
X92914453Y-109722604D01*
X92842765Y-109549533D01*
X92738690Y-109393773D01*
X92606227Y-109261310D01*
X92450467Y-109157235D01*
X92277396Y-109085547D01*
X92093665Y-109049000D01*
X91906335Y-109049000D01*
X91722604Y-109085547D01*
X91549533Y-109157235D01*
X91393773Y-109261310D01*
X91261310Y-109393773D01*
X91157235Y-109549533D01*
X91085547Y-109722604D01*
X91049000Y-109906335D01*
X88425000Y-109906335D01*
X88425000Y-104879348D01*
X186275000Y-104879348D01*
X186275000Y-105120652D01*
X186322076Y-105357319D01*
X186414419Y-105580255D01*
X186548481Y-105780892D01*
X186719108Y-105951519D01*
X186919745Y-106085581D01*
X187142681Y-106177924D01*
X187379348Y-106225000D01*
X187620652Y-106225000D01*
X187857319Y-106177924D01*
X188080255Y-106085581D01*
X188280892Y-105951519D01*
X188451519Y-105780892D01*
X188585581Y-105580255D01*
X188677924Y-105357319D01*
X188725000Y-105120652D01*
X188725000Y-104879348D01*
X193275000Y-104879348D01*
X193275000Y-105120652D01*
X193322076Y-105357319D01*
X193414419Y-105580255D01*
X193548481Y-105780892D01*
X193719108Y-105951519D01*
X193919745Y-106085581D01*
X194142681Y-106177924D01*
X194379348Y-106225000D01*
X194620652Y-106225000D01*
X194857319Y-106177924D01*
X195080255Y-106085581D01*
X195280892Y-105951519D01*
X195451519Y-105780892D01*
X195585581Y-105580255D01*
X195677924Y-105357319D01*
X195725000Y-105120652D01*
X195725000Y-104879348D01*
X195677924Y-104642681D01*
X195585581Y-104419745D01*
X195451519Y-104219108D01*
X195280892Y-104048481D01*
X195080255Y-103914419D01*
X194857319Y-103822076D01*
X194620652Y-103775000D01*
X194379348Y-103775000D01*
X194142681Y-103822076D01*
X193919745Y-103914419D01*
X193719108Y-104048481D01*
X193548481Y-104219108D01*
X193414419Y-104419745D01*
X193322076Y-104642681D01*
X193275000Y-104879348D01*
X188725000Y-104879348D01*
X188677924Y-104642681D01*
X188585581Y-104419745D01*
X188451519Y-104219108D01*
X188280892Y-104048481D01*
X188080255Y-103914419D01*
X187857319Y-103822076D01*
X187620652Y-103775000D01*
X187379348Y-103775000D01*
X187142681Y-103822076D01*
X186919745Y-103914419D01*
X186719108Y-104048481D01*
X186548481Y-104219108D01*
X186414419Y-104419745D01*
X186322076Y-104642681D01*
X186275000Y-104879348D01*
X88425000Y-104879348D01*
X88425000Y-93848669D01*
X141325000Y-93848669D01*
X141325000Y-94001331D01*
X141354783Y-94151059D01*
X141413204Y-94292100D01*
X141498018Y-94419034D01*
X141605966Y-94526982D01*
X141732900Y-94611796D01*
X141873941Y-94670217D01*
X142023669Y-94700000D01*
X142100000Y-94700000D01*
X142100000Y-94751331D01*
X142129783Y-94901059D01*
X142188204Y-95042100D01*
X142273018Y-95169034D01*
X142380966Y-95276982D01*
X142507900Y-95361796D01*
X142648941Y-95420217D01*
X142727753Y-95435894D01*
X142727753Y-95529745D01*
X142757536Y-95679473D01*
X142815957Y-95820514D01*
X142900771Y-95947448D01*
X143008719Y-96055396D01*
X143135653Y-96140210D01*
X143276694Y-96198631D01*
X143426422Y-96228414D01*
X143579084Y-96228414D01*
X143728812Y-96198631D01*
X143869853Y-96140210D01*
X143996787Y-96055396D01*
X144073550Y-95978633D01*
X144054783Y-96023941D01*
X144025000Y-96173669D01*
X144025000Y-96326331D01*
X144054783Y-96476059D01*
X144113204Y-96617100D01*
X144198018Y-96744034D01*
X144305966Y-96851982D01*
X144432900Y-96936796D01*
X144573941Y-96995217D01*
X144723669Y-97025000D01*
X144876331Y-97025000D01*
X145026059Y-96995217D01*
X145167100Y-96936796D01*
X145261576Y-96873669D01*
X169775000Y-96873669D01*
X169775000Y-97026331D01*
X169804783Y-97176059D01*
X169863204Y-97317100D01*
X169948018Y-97444034D01*
X170055966Y-97551982D01*
X170182900Y-97636796D01*
X170323941Y-97695217D01*
X170473669Y-97725000D01*
X170582539Y-97725000D01*
X176460534Y-103602996D01*
X176476973Y-103623027D01*
X176556914Y-103688633D01*
X176648119Y-103737383D01*
X176747082Y-103767403D01*
X176824212Y-103775000D01*
X176824219Y-103775000D01*
X176849999Y-103777539D01*
X176875779Y-103775000D01*
X177753984Y-103775000D01*
X177830966Y-103851982D01*
X177957900Y-103936796D01*
X178098941Y-103995217D01*
X178248669Y-104025000D01*
X178401331Y-104025000D01*
X178551059Y-103995217D01*
X178692100Y-103936796D01*
X178819034Y-103851982D01*
X178926982Y-103744034D01*
X179011796Y-103617100D01*
X179070217Y-103476059D01*
X179100000Y-103326331D01*
X179100000Y-103173669D01*
X179070217Y-103023941D01*
X179011796Y-102882900D01*
X178926982Y-102755966D01*
X178819034Y-102648018D01*
X178692100Y-102563204D01*
X178551059Y-102504783D01*
X178401331Y-102475000D01*
X178248669Y-102475000D01*
X178098941Y-102504783D01*
X177957900Y-102563204D01*
X177830966Y-102648018D01*
X177753984Y-102725000D01*
X177067462Y-102725000D01*
X175367462Y-101025000D01*
X177678984Y-101025000D01*
X177755966Y-101101982D01*
X177882900Y-101186796D01*
X178023941Y-101245217D01*
X178173669Y-101275000D01*
X178326331Y-101275000D01*
X178476059Y-101245217D01*
X178617100Y-101186796D01*
X178744034Y-101101982D01*
X178851982Y-100994034D01*
X178936796Y-100867100D01*
X178995217Y-100726059D01*
X179025000Y-100576331D01*
X179025000Y-100423669D01*
X178995217Y-100273941D01*
X178936796Y-100132900D01*
X178851982Y-100005966D01*
X178744034Y-99898018D01*
X178617100Y-99813204D01*
X178476059Y-99754783D01*
X178326331Y-99725000D01*
X178173669Y-99725000D01*
X178023941Y-99754783D01*
X177882900Y-99813204D01*
X177755966Y-99898018D01*
X177678984Y-99975000D01*
X175517462Y-99975000D01*
X172350000Y-96807539D01*
X172350000Y-96698669D01*
X172320217Y-96548941D01*
X172261796Y-96407900D01*
X172176982Y-96280966D01*
X172069034Y-96173018D01*
X171942100Y-96088204D01*
X171801059Y-96029783D01*
X171651331Y-96000000D01*
X171498669Y-96000000D01*
X171348941Y-96029783D01*
X171207900Y-96088204D01*
X171080966Y-96173018D01*
X170973018Y-96280966D01*
X170963964Y-96294517D01*
X170917100Y-96263204D01*
X170776059Y-96204783D01*
X170626331Y-96175000D01*
X170473669Y-96175000D01*
X170323941Y-96204783D01*
X170182900Y-96263204D01*
X170055966Y-96348018D01*
X169948018Y-96455966D01*
X169863204Y-96582900D01*
X169804783Y-96723941D01*
X169775000Y-96873669D01*
X145261576Y-96873669D01*
X145294034Y-96851982D01*
X145371016Y-96775000D01*
X145740406Y-96775000D01*
X145766186Y-96777539D01*
X145791966Y-96775000D01*
X145791974Y-96775000D01*
X145869104Y-96767403D01*
X145968067Y-96737383D01*
X146059272Y-96688633D01*
X146139213Y-96623027D01*
X146155657Y-96602990D01*
X149879299Y-92879348D01*
X186275000Y-92879348D01*
X186275000Y-93120652D01*
X186322076Y-93357319D01*
X186414419Y-93580255D01*
X186548481Y-93780892D01*
X186719108Y-93951519D01*
X186919745Y-94085581D01*
X187142681Y-94177924D01*
X187379348Y-94225000D01*
X187620652Y-94225000D01*
X187857319Y-94177924D01*
X188080255Y-94085581D01*
X188280892Y-93951519D01*
X188451519Y-93780892D01*
X188585581Y-93580255D01*
X188677924Y-93357319D01*
X188725000Y-93120652D01*
X188725000Y-92879348D01*
X193275000Y-92879348D01*
X193275000Y-93120652D01*
X193322076Y-93357319D01*
X193414419Y-93580255D01*
X193548481Y-93780892D01*
X193719108Y-93951519D01*
X193919745Y-94085581D01*
X194142681Y-94177924D01*
X194379348Y-94225000D01*
X194620652Y-94225000D01*
X194857319Y-94177924D01*
X195080255Y-94085581D01*
X195280892Y-93951519D01*
X195451519Y-93780892D01*
X195585581Y-93580255D01*
X195677924Y-93357319D01*
X195725000Y-93120652D01*
X195725000Y-92879348D01*
X195677924Y-92642681D01*
X195585581Y-92419745D01*
X195451519Y-92219108D01*
X195280892Y-92048481D01*
X195080255Y-91914419D01*
X194857319Y-91822076D01*
X194620652Y-91775000D01*
X194379348Y-91775000D01*
X194142681Y-91822076D01*
X193919745Y-91914419D01*
X193719108Y-92048481D01*
X193548481Y-92219108D01*
X193414419Y-92419745D01*
X193322076Y-92642681D01*
X193275000Y-92879348D01*
X188725000Y-92879348D01*
X188677924Y-92642681D01*
X188585581Y-92419745D01*
X188451519Y-92219108D01*
X188280892Y-92048481D01*
X188080255Y-91914419D01*
X187857319Y-91822076D01*
X187620652Y-91775000D01*
X187379348Y-91775000D01*
X187142681Y-91822076D01*
X186919745Y-91914419D01*
X186719108Y-92048481D01*
X186548481Y-92219108D01*
X186414419Y-92419745D01*
X186322076Y-92642681D01*
X186275000Y-92879348D01*
X149879299Y-92879348D01*
X151356005Y-91402643D01*
X151464874Y-91402643D01*
X151614602Y-91372860D01*
X151755643Y-91314439D01*
X151882577Y-91229625D01*
X151990525Y-91121677D01*
X152075339Y-90994743D01*
X152133760Y-90853702D01*
X152163543Y-90703974D01*
X152163543Y-90551312D01*
X152133760Y-90401584D01*
X152075339Y-90260543D01*
X151990525Y-90133609D01*
X151882577Y-90025661D01*
X151755643Y-89940847D01*
X151614602Y-89882426D01*
X151464874Y-89852643D01*
X151423901Y-89852643D01*
X151398312Y-89723999D01*
X151339891Y-89582958D01*
X151255077Y-89456024D01*
X151147129Y-89348076D01*
X151020195Y-89263262D01*
X150879154Y-89204841D01*
X150729426Y-89175058D01*
X150705970Y-89175058D01*
X150677325Y-89031049D01*
X150632847Y-88923669D01*
X171475000Y-88923669D01*
X171475000Y-89076331D01*
X171504783Y-89226059D01*
X171563204Y-89367100D01*
X171648018Y-89494034D01*
X171653984Y-89500000D01*
X171648018Y-89505966D01*
X171563204Y-89632900D01*
X171504783Y-89773941D01*
X171475000Y-89923669D01*
X171475000Y-90076331D01*
X171504783Y-90226059D01*
X171563204Y-90367100D01*
X171648018Y-90494034D01*
X171755966Y-90601982D01*
X171882900Y-90686796D01*
X172023941Y-90745217D01*
X172173669Y-90775000D01*
X172326331Y-90775000D01*
X172476059Y-90745217D01*
X172617100Y-90686796D01*
X172744034Y-90601982D01*
X172821016Y-90525000D01*
X179178984Y-90525000D01*
X179255966Y-90601982D01*
X179382900Y-90686796D01*
X179523941Y-90745217D01*
X179673669Y-90775000D01*
X179826331Y-90775000D01*
X179976059Y-90745217D01*
X180117100Y-90686796D01*
X180244034Y-90601982D01*
X180351982Y-90494034D01*
X180436796Y-90367100D01*
X180495217Y-90226059D01*
X180525000Y-90076331D01*
X180525000Y-89923669D01*
X180495217Y-89773941D01*
X180436796Y-89632900D01*
X180351982Y-89505966D01*
X180346016Y-89500000D01*
X180351982Y-89494034D01*
X180436796Y-89367100D01*
X180495217Y-89226059D01*
X180525000Y-89076331D01*
X180525000Y-88923669D01*
X180495217Y-88773941D01*
X180436796Y-88632900D01*
X180351982Y-88505966D01*
X180244034Y-88398018D01*
X180117100Y-88313204D01*
X179976059Y-88254783D01*
X179826331Y-88225000D01*
X179673669Y-88225000D01*
X179523941Y-88254783D01*
X179382900Y-88313204D01*
X179255966Y-88398018D01*
X179178984Y-88475000D01*
X172821016Y-88475000D01*
X172744034Y-88398018D01*
X172617100Y-88313204D01*
X172476059Y-88254783D01*
X172326331Y-88225000D01*
X172173669Y-88225000D01*
X172023941Y-88254783D01*
X171882900Y-88313204D01*
X171755966Y-88398018D01*
X171648018Y-88505966D01*
X171563204Y-88632900D01*
X171504783Y-88773941D01*
X171475000Y-88923669D01*
X150632847Y-88923669D01*
X150618904Y-88890008D01*
X150534090Y-88763074D01*
X150426142Y-88655126D01*
X150299208Y-88570312D01*
X150158167Y-88511891D01*
X150008439Y-88482108D01*
X150000000Y-88482108D01*
X150000000Y-88473669D01*
X149970217Y-88323941D01*
X149911796Y-88182900D01*
X149826982Y-88055966D01*
X149719034Y-87948018D01*
X149592100Y-87863204D01*
X149451059Y-87804783D01*
X149301331Y-87775000D01*
X149148669Y-87775000D01*
X148998941Y-87804783D01*
X148857900Y-87863204D01*
X148730966Y-87948018D01*
X148623018Y-88055966D01*
X148538204Y-88182900D01*
X148479783Y-88323941D01*
X148450000Y-88473669D01*
X148450000Y-88582538D01*
X143632539Y-93400000D01*
X142671016Y-93400000D01*
X142594034Y-93323018D01*
X142467100Y-93238204D01*
X142326059Y-93179783D01*
X142176331Y-93150000D01*
X142023669Y-93150000D01*
X141873941Y-93179783D01*
X141732900Y-93238204D01*
X141605966Y-93323018D01*
X141498018Y-93430966D01*
X141413204Y-93557900D01*
X141354783Y-93698941D01*
X141325000Y-93848669D01*
X88425000Y-93848669D01*
X88425000Y-86423669D01*
X153975000Y-86423669D01*
X153975000Y-86576331D01*
X154004783Y-86726059D01*
X154063204Y-86867100D01*
X154148018Y-86994034D01*
X154255966Y-87101982D01*
X154382900Y-87186796D01*
X154523941Y-87245217D01*
X154673669Y-87275000D01*
X154826331Y-87275000D01*
X154976059Y-87245217D01*
X155117100Y-87186796D01*
X155244034Y-87101982D01*
X155321016Y-87025000D01*
X156004572Y-87025000D01*
X155975000Y-87173669D01*
X155975000Y-87326331D01*
X156004783Y-87476059D01*
X156063204Y-87617100D01*
X156148018Y-87744034D01*
X156255966Y-87851982D01*
X156382900Y-87936796D01*
X156523941Y-87995217D01*
X156673669Y-88025000D01*
X156782538Y-88025000D01*
X157110534Y-88352995D01*
X157126973Y-88373027D01*
X157206914Y-88438633D01*
X157298119Y-88487383D01*
X157397082Y-88517403D01*
X157474212Y-88525000D01*
X157474219Y-88525000D01*
X157499999Y-88527539D01*
X157525779Y-88525000D01*
X160178984Y-88525000D01*
X160255966Y-88601982D01*
X160382900Y-88686796D01*
X160523941Y-88745217D01*
X160673669Y-88775000D01*
X160826331Y-88775000D01*
X160976059Y-88745217D01*
X161117100Y-88686796D01*
X161244034Y-88601982D01*
X161351982Y-88494034D01*
X161436796Y-88367100D01*
X161495217Y-88226059D01*
X161525000Y-88076331D01*
X161525000Y-87923669D01*
X161495217Y-87773941D01*
X161474906Y-87724906D01*
X161523941Y-87745217D01*
X161673669Y-87775000D01*
X161826331Y-87775000D01*
X161976059Y-87745217D01*
X162117100Y-87686796D01*
X162244034Y-87601982D01*
X162351982Y-87494034D01*
X162436796Y-87367100D01*
X162495217Y-87226059D01*
X162525000Y-87076331D01*
X162525000Y-86923669D01*
X162495217Y-86773941D01*
X162436796Y-86632900D01*
X162351982Y-86505966D01*
X162244034Y-86398018D01*
X162117100Y-86313204D01*
X161976059Y-86254783D01*
X161826331Y-86225000D01*
X161717461Y-86225000D01*
X161639470Y-86147009D01*
X161623027Y-86126973D01*
X161543086Y-86061367D01*
X161451881Y-86012617D01*
X161352918Y-85982597D01*
X161275788Y-85975000D01*
X161275780Y-85975000D01*
X161250000Y-85972461D01*
X161224220Y-85975000D01*
X155321016Y-85975000D01*
X155244034Y-85898018D01*
X155117100Y-85813204D01*
X154976059Y-85754783D01*
X154826331Y-85725000D01*
X154673669Y-85725000D01*
X154523941Y-85754783D01*
X154382900Y-85813204D01*
X154255966Y-85898018D01*
X154148018Y-86005966D01*
X154063204Y-86132900D01*
X154004783Y-86273941D01*
X153975000Y-86423669D01*
X88425000Y-86423669D01*
X88425000Y-85350111D01*
X195366662Y-85350111D01*
X195385369Y-85411803D01*
X195479322Y-85622113D01*
X195612499Y-85810052D01*
X195779782Y-85968398D01*
X195974742Y-86091067D01*
X196189888Y-86173344D01*
X196371000Y-86126653D01*
X196371000Y-85169000D01*
X196629000Y-85169000D01*
X196629000Y-86126653D01*
X196810112Y-86173344D01*
X197025258Y-86091067D01*
X197220218Y-85968398D01*
X197387501Y-85810052D01*
X197520678Y-85622113D01*
X197614631Y-85411803D01*
X197633338Y-85350111D01*
X197586116Y-85169000D01*
X196629000Y-85169000D01*
X196371000Y-85169000D01*
X195413884Y-85169000D01*
X195366662Y-85350111D01*
X88425000Y-85350111D01*
X88425000Y-83923669D01*
X164725000Y-83923669D01*
X164725000Y-84076331D01*
X164754783Y-84226059D01*
X164813204Y-84367100D01*
X164898018Y-84494034D01*
X165005966Y-84601982D01*
X165132900Y-84686796D01*
X165273941Y-84745217D01*
X165423669Y-84775000D01*
X165576331Y-84775000D01*
X165726059Y-84745217D01*
X165867100Y-84686796D01*
X165994034Y-84601982D01*
X166096016Y-84500000D01*
X166403984Y-84500000D01*
X166505966Y-84601982D01*
X166632900Y-84686796D01*
X166773941Y-84745217D01*
X166923669Y-84775000D01*
X167076331Y-84775000D01*
X167226059Y-84745217D01*
X167263064Y-84729889D01*
X195366662Y-84729889D01*
X195413884Y-84911000D01*
X196371000Y-84911000D01*
X196371000Y-83953347D01*
X196629000Y-83953347D01*
X196629000Y-84911000D01*
X197586116Y-84911000D01*
X197633338Y-84729889D01*
X197614631Y-84668197D01*
X197520678Y-84457887D01*
X197387501Y-84269948D01*
X197220218Y-84111602D01*
X197025258Y-83988933D01*
X196810112Y-83906656D01*
X196629000Y-83953347D01*
X196371000Y-83953347D01*
X196189888Y-83906656D01*
X195974742Y-83988933D01*
X195779782Y-84111602D01*
X195612499Y-84269948D01*
X195479322Y-84457887D01*
X195385369Y-84668197D01*
X195366662Y-84729889D01*
X167263064Y-84729889D01*
X167367100Y-84686796D01*
X167494034Y-84601982D01*
X167601982Y-84494034D01*
X167686796Y-84367100D01*
X167745217Y-84226059D01*
X167775000Y-84076331D01*
X167775000Y-83923669D01*
X167745217Y-83773941D01*
X167686796Y-83632900D01*
X167601982Y-83505966D01*
X167494034Y-83398018D01*
X167367100Y-83313204D01*
X167226059Y-83254783D01*
X167076331Y-83225000D01*
X166923669Y-83225000D01*
X166773941Y-83254783D01*
X166632900Y-83313204D01*
X166505966Y-83398018D01*
X166403984Y-83500000D01*
X166096016Y-83500000D01*
X165994034Y-83398018D01*
X165867100Y-83313204D01*
X165726059Y-83254783D01*
X165576331Y-83225000D01*
X165423669Y-83225000D01*
X165273941Y-83254783D01*
X165132900Y-83313204D01*
X165005966Y-83398018D01*
X164898018Y-83505966D01*
X164813204Y-83632900D01*
X164754783Y-83773941D01*
X164725000Y-83923669D01*
X88425000Y-83923669D01*
X88425000Y-81650000D01*
X195273186Y-81650000D01*
X195273186Y-83350000D01*
X195280426Y-83423513D01*
X195301869Y-83494200D01*
X195336691Y-83559347D01*
X195383552Y-83616448D01*
X195440653Y-83663309D01*
X195505800Y-83698131D01*
X195576487Y-83719574D01*
X195650000Y-83726814D01*
X197350000Y-83726814D01*
X197423513Y-83719574D01*
X197494200Y-83698131D01*
X197559347Y-83663309D01*
X197616448Y-83616448D01*
X197663309Y-83559347D01*
X197698131Y-83494200D01*
X197719574Y-83423513D01*
X197726814Y-83350000D01*
X197726814Y-81650000D01*
X197719574Y-81576487D01*
X197698131Y-81505800D01*
X197663309Y-81440653D01*
X197616448Y-81383552D01*
X197559347Y-81336691D01*
X197494200Y-81301869D01*
X197423513Y-81280426D01*
X197350000Y-81273186D01*
X195650000Y-81273186D01*
X195576487Y-81280426D01*
X195505800Y-81301869D01*
X195440653Y-81336691D01*
X195383552Y-81383552D01*
X195336691Y-81440653D01*
X195301869Y-81505800D01*
X195280426Y-81576487D01*
X195273186Y-81650000D01*
X88425000Y-81650000D01*
X88425000Y-75923669D01*
X162225000Y-75923669D01*
X162225000Y-76076331D01*
X162254783Y-76226059D01*
X162313204Y-76367100D01*
X162398018Y-76494034D01*
X162505966Y-76601982D01*
X162632900Y-76686796D01*
X162773941Y-76745217D01*
X162923669Y-76775000D01*
X163032538Y-76775000D01*
X163225000Y-76967462D01*
X163225001Y-77428983D01*
X163148018Y-77505966D01*
X163063204Y-77632900D01*
X163004783Y-77773941D01*
X162975000Y-77923669D01*
X162975000Y-78076331D01*
X163004783Y-78226059D01*
X163063204Y-78367100D01*
X163148018Y-78494034D01*
X163255966Y-78601982D01*
X163382900Y-78686796D01*
X163523941Y-78745217D01*
X163673669Y-78775000D01*
X163826331Y-78775000D01*
X163976059Y-78745217D01*
X164117100Y-78686796D01*
X164244034Y-78601982D01*
X164351982Y-78494034D01*
X164436796Y-78367100D01*
X164495217Y-78226059D01*
X164525000Y-78076331D01*
X164525000Y-77923669D01*
X164495217Y-77773941D01*
X164436796Y-77632900D01*
X164351982Y-77505966D01*
X164346016Y-77500000D01*
X168623186Y-77500000D01*
X168623186Y-78500000D01*
X168630426Y-78573513D01*
X168651869Y-78644200D01*
X168686691Y-78709347D01*
X168733552Y-78766448D01*
X168790653Y-78813309D01*
X168855800Y-78848131D01*
X168926487Y-78869574D01*
X169000000Y-78876814D01*
X170000000Y-78876814D01*
X170073513Y-78869574D01*
X170144200Y-78848131D01*
X170209347Y-78813309D01*
X170266448Y-78766448D01*
X170293245Y-78733796D01*
X170355532Y-78775415D01*
X170514772Y-78841374D01*
X170683820Y-78875000D01*
X170856180Y-78875000D01*
X171025228Y-78841374D01*
X171184468Y-78775415D01*
X171327780Y-78679657D01*
X171405000Y-78602437D01*
X171482220Y-78679657D01*
X171625532Y-78775415D01*
X171784772Y-78841374D01*
X171953820Y-78875000D01*
X172126180Y-78875000D01*
X172295228Y-78841374D01*
X172454468Y-78775415D01*
X172597780Y-78679657D01*
X172675000Y-78602437D01*
X172752220Y-78679657D01*
X172895532Y-78775415D01*
X173054772Y-78841374D01*
X173223820Y-78875000D01*
X173396180Y-78875000D01*
X173565228Y-78841374D01*
X173724468Y-78775415D01*
X173867780Y-78679657D01*
X173989657Y-78557780D01*
X174085415Y-78414468D01*
X174151374Y-78255228D01*
X174185000Y-78086180D01*
X174185000Y-77913820D01*
X174151374Y-77744772D01*
X174085415Y-77585532D01*
X173989657Y-77442220D01*
X173867780Y-77320343D01*
X173724468Y-77224585D01*
X173565228Y-77158626D01*
X173396180Y-77125000D01*
X173223820Y-77125000D01*
X173054772Y-77158626D01*
X172895532Y-77224585D01*
X172752220Y-77320343D01*
X172675000Y-77397563D01*
X172597780Y-77320343D01*
X172454468Y-77224585D01*
X172295228Y-77158626D01*
X172126180Y-77125000D01*
X171953820Y-77125000D01*
X171784772Y-77158626D01*
X171625532Y-77224585D01*
X171482220Y-77320343D01*
X171405000Y-77397563D01*
X171327780Y-77320343D01*
X171184468Y-77224585D01*
X171025228Y-77158626D01*
X170856180Y-77125000D01*
X170683820Y-77125000D01*
X170514772Y-77158626D01*
X170355532Y-77224585D01*
X170293245Y-77266204D01*
X170266448Y-77233552D01*
X170209347Y-77186691D01*
X170144200Y-77151869D01*
X170073513Y-77130426D01*
X170000000Y-77123186D01*
X169000000Y-77123186D01*
X168926487Y-77130426D01*
X168855800Y-77151869D01*
X168790653Y-77186691D01*
X168733552Y-77233552D01*
X168686691Y-77290653D01*
X168651869Y-77355800D01*
X168630426Y-77426487D01*
X168623186Y-77500000D01*
X164346016Y-77500000D01*
X164275000Y-77428984D01*
X164275000Y-76775779D01*
X164277539Y-76749999D01*
X164275000Y-76724219D01*
X164275000Y-76724212D01*
X164267403Y-76647082D01*
X164237383Y-76548119D01*
X164188633Y-76456914D01*
X164123027Y-76376973D01*
X164102995Y-76360534D01*
X163775000Y-76032538D01*
X163775000Y-75923669D01*
X163745217Y-75773941D01*
X163686796Y-75632900D01*
X163601982Y-75505966D01*
X163494034Y-75398018D01*
X163367100Y-75313204D01*
X163226059Y-75254783D01*
X163076331Y-75225000D01*
X162923669Y-75225000D01*
X162773941Y-75254783D01*
X162632900Y-75313204D01*
X162505966Y-75398018D01*
X162398018Y-75505966D01*
X162313204Y-75632900D01*
X162254783Y-75773941D01*
X162225000Y-75923669D01*
X88425000Y-75923669D01*
X88425000Y-69800000D01*
X137675000Y-69800000D01*
X137675000Y-73800000D01*
X137677402Y-73824386D01*
X137684515Y-73847835D01*
X137696066Y-73869446D01*
X137711612Y-73888388D01*
X137730554Y-73903934D01*
X137752165Y-73915485D01*
X137775614Y-73922598D01*
X137800000Y-73925000D01*
X138075000Y-73925000D01*
X138075000Y-75000000D01*
X138077402Y-75024386D01*
X138084515Y-75047835D01*
X138096066Y-75069446D01*
X138111612Y-75088388D01*
X138130554Y-75103934D01*
X138152165Y-75115485D01*
X138175614Y-75122598D01*
X138200000Y-75125000D01*
X140800000Y-75125000D01*
X140824386Y-75122598D01*
X140847835Y-75115485D01*
X140869446Y-75103934D01*
X140888388Y-75088388D01*
X140903934Y-75069446D01*
X140915485Y-75047835D01*
X140922598Y-75024386D01*
X140925000Y-75000000D01*
X140925000Y-73925000D01*
X141200000Y-73925000D01*
X141224386Y-73922598D01*
X141247835Y-73915485D01*
X141269446Y-73903934D01*
X141288388Y-73888388D01*
X141303934Y-73869446D01*
X141315485Y-73847835D01*
X141322598Y-73824386D01*
X141325000Y-73800000D01*
X141325000Y-73525000D01*
X147400000Y-73525000D01*
X147424386Y-73522598D01*
X147447835Y-73515485D01*
X147469446Y-73503934D01*
X147488388Y-73488388D01*
X147503934Y-73469446D01*
X147515485Y-73447835D01*
X147522598Y-73424386D01*
X147525000Y-73400000D01*
X147525000Y-73003594D01*
X195325000Y-73003594D01*
X195325000Y-73146406D01*
X195352861Y-73286475D01*
X195407513Y-73418416D01*
X195486856Y-73537161D01*
X195587839Y-73638144D01*
X195706584Y-73717487D01*
X195838525Y-73772139D01*
X195978594Y-73800000D01*
X196121406Y-73800000D01*
X196261475Y-73772139D01*
X196393416Y-73717487D01*
X196512161Y-73638144D01*
X196613144Y-73537161D01*
X196692487Y-73418416D01*
X196747139Y-73286475D01*
X196775000Y-73146406D01*
X196775000Y-73003594D01*
X196747139Y-72863525D01*
X196692487Y-72731584D01*
X196613144Y-72612839D01*
X196512161Y-72511856D01*
X196393416Y-72432513D01*
X196261475Y-72377861D01*
X196121406Y-72350000D01*
X195978594Y-72350000D01*
X195838525Y-72377861D01*
X195706584Y-72432513D01*
X195587839Y-72511856D01*
X195486856Y-72612839D01*
X195407513Y-72731584D01*
X195352861Y-72863525D01*
X195325000Y-73003594D01*
X147525000Y-73003594D01*
X147525000Y-71400000D01*
X147522598Y-71375614D01*
X147515485Y-71352165D01*
X147503934Y-71330554D01*
X147488388Y-71311612D01*
X147469446Y-71296066D01*
X147447835Y-71284515D01*
X147424386Y-71277402D01*
X147400000Y-71275000D01*
X141325000Y-71275000D01*
X141325000Y-69800000D01*
X141322598Y-69775614D01*
X141315485Y-69752165D01*
X141303934Y-69730554D01*
X141288388Y-69711612D01*
X141269446Y-69696066D01*
X141247835Y-69684515D01*
X141224386Y-69677402D01*
X141200000Y-69675000D01*
X140925000Y-69675000D01*
X140925000Y-68600000D01*
X140922598Y-68575614D01*
X140915485Y-68552165D01*
X140903934Y-68530554D01*
X140898284Y-68523669D01*
X164725000Y-68523669D01*
X164725000Y-68676331D01*
X164754783Y-68826059D01*
X164813204Y-68967100D01*
X164898018Y-69094034D01*
X165005966Y-69201982D01*
X165132900Y-69286796D01*
X165273941Y-69345217D01*
X165423669Y-69375000D01*
X165576331Y-69375000D01*
X165726059Y-69345217D01*
X165867100Y-69286796D01*
X165994034Y-69201982D01*
X166101982Y-69094034D01*
X166186796Y-68967100D01*
X166233811Y-68853594D01*
X195325000Y-68853594D01*
X195325000Y-68996406D01*
X195352861Y-69136475D01*
X195407513Y-69268416D01*
X195486856Y-69387161D01*
X195587839Y-69488144D01*
X195706584Y-69567487D01*
X195838525Y-69622139D01*
X195978594Y-69650000D01*
X196121406Y-69650000D01*
X196261475Y-69622139D01*
X196393416Y-69567487D01*
X196512161Y-69488144D01*
X196613144Y-69387161D01*
X196692487Y-69268416D01*
X196747139Y-69136475D01*
X196775000Y-68996406D01*
X196775000Y-68853594D01*
X196747139Y-68713525D01*
X196692487Y-68581584D01*
X196613144Y-68462839D01*
X196512161Y-68361856D01*
X196393416Y-68282513D01*
X196261475Y-68227861D01*
X196121406Y-68200000D01*
X195978594Y-68200000D01*
X195838525Y-68227861D01*
X195706584Y-68282513D01*
X195587839Y-68361856D01*
X195486856Y-68462839D01*
X195407513Y-68581584D01*
X195352861Y-68713525D01*
X195325000Y-68853594D01*
X166233811Y-68853594D01*
X166245217Y-68826059D01*
X166275000Y-68676331D01*
X166275000Y-68567461D01*
X167717462Y-67125000D01*
X167826331Y-67125000D01*
X167976059Y-67095217D01*
X168117100Y-67036796D01*
X168244034Y-66951982D01*
X168351982Y-66844034D01*
X168436796Y-66717100D01*
X168495217Y-66576059D01*
X168525000Y-66426331D01*
X168525000Y-66273669D01*
X168495217Y-66123941D01*
X168436796Y-65982900D01*
X168351982Y-65855966D01*
X168244034Y-65748018D01*
X168117100Y-65663204D01*
X167976059Y-65604783D01*
X167826331Y-65575000D01*
X167673669Y-65575000D01*
X167523941Y-65604783D01*
X167382900Y-65663204D01*
X167255966Y-65748018D01*
X167148018Y-65855966D01*
X167063204Y-65982900D01*
X167004783Y-66123941D01*
X166975000Y-66273669D01*
X166975000Y-66382538D01*
X165532539Y-67825000D01*
X165423669Y-67825000D01*
X165273941Y-67854783D01*
X165132900Y-67913204D01*
X165005966Y-67998018D01*
X164898018Y-68105966D01*
X164813204Y-68232900D01*
X164754783Y-68373941D01*
X164725000Y-68523669D01*
X140898284Y-68523669D01*
X140888388Y-68511612D01*
X140869446Y-68496066D01*
X140847835Y-68484515D01*
X140824386Y-68477402D01*
X140800000Y-68475000D01*
X138200000Y-68475000D01*
X138175614Y-68477402D01*
X138152165Y-68484515D01*
X138130554Y-68496066D01*
X138111612Y-68511612D01*
X138096066Y-68530554D01*
X138084515Y-68552165D01*
X138077402Y-68575614D01*
X138075000Y-68600000D01*
X138075000Y-69675000D01*
X137800000Y-69675000D01*
X137775614Y-69677402D01*
X137752165Y-69684515D01*
X137730554Y-69696066D01*
X137711612Y-69711612D01*
X137696066Y-69730554D01*
X137684515Y-69752165D01*
X137677402Y-69775614D01*
X137675000Y-69800000D01*
X88425000Y-69800000D01*
X88425000Y-57923669D01*
X122725000Y-57923669D01*
X122725000Y-58076331D01*
X122754783Y-58226059D01*
X122813204Y-58367100D01*
X122898018Y-58494034D01*
X122975000Y-58571016D01*
X122975001Y-66678983D01*
X122898018Y-66755966D01*
X122813204Y-66882900D01*
X122754783Y-67023941D01*
X122725000Y-67173669D01*
X122725000Y-67326331D01*
X122754783Y-67476059D01*
X122813204Y-67617100D01*
X122898018Y-67744034D01*
X123005966Y-67851982D01*
X123132900Y-67936796D01*
X123273941Y-67995217D01*
X123423669Y-68025000D01*
X123576331Y-68025000D01*
X123726059Y-67995217D01*
X123867100Y-67936796D01*
X123994034Y-67851982D01*
X124101982Y-67744034D01*
X124186796Y-67617100D01*
X124245217Y-67476059D01*
X124275000Y-67326331D01*
X124275000Y-67173669D01*
X124245217Y-67023941D01*
X124186796Y-66882900D01*
X124101982Y-66755966D01*
X124025000Y-66678984D01*
X124025000Y-60923669D01*
X146975000Y-60923669D01*
X146975000Y-61076331D01*
X147004783Y-61226059D01*
X147063204Y-61367100D01*
X147148018Y-61494034D01*
X147225001Y-61571017D01*
X147225000Y-63428984D01*
X147148018Y-63505966D01*
X147063204Y-63632900D01*
X147004783Y-63773941D01*
X146975000Y-63923669D01*
X146975000Y-64076331D01*
X147004783Y-64226059D01*
X147063204Y-64367100D01*
X147148018Y-64494034D01*
X147255966Y-64601982D01*
X147382900Y-64686796D01*
X147523941Y-64745217D01*
X147673669Y-64775000D01*
X147826331Y-64775000D01*
X147976059Y-64745217D01*
X148117100Y-64686796D01*
X148244034Y-64601982D01*
X148351982Y-64494034D01*
X148436796Y-64367100D01*
X148495217Y-64226059D01*
X148525000Y-64076331D01*
X148525000Y-63923669D01*
X148495217Y-63773941D01*
X148474906Y-63724906D01*
X148523941Y-63745217D01*
X148673669Y-63775000D01*
X148826331Y-63775000D01*
X148976059Y-63745217D01*
X149117100Y-63686796D01*
X149244034Y-63601982D01*
X149321016Y-63525000D01*
X150678984Y-63525000D01*
X150755966Y-63601982D01*
X150882900Y-63686796D01*
X151023941Y-63745217D01*
X151173669Y-63775000D01*
X151326331Y-63775000D01*
X151476059Y-63745217D01*
X151617100Y-63686796D01*
X151744034Y-63601982D01*
X151851982Y-63494034D01*
X151936796Y-63367100D01*
X151995217Y-63226059D01*
X152025000Y-63076331D01*
X152025000Y-62923669D01*
X151995217Y-62773941D01*
X151936796Y-62632900D01*
X151851982Y-62505966D01*
X151744034Y-62398018D01*
X151617100Y-62313204D01*
X151476059Y-62254783D01*
X151326331Y-62225000D01*
X151173669Y-62225000D01*
X151023941Y-62254783D01*
X150882900Y-62313204D01*
X150755966Y-62398018D01*
X150678984Y-62475000D01*
X149321016Y-62475000D01*
X149244034Y-62398018D01*
X149117100Y-62313204D01*
X148976059Y-62254783D01*
X148826331Y-62225000D01*
X148673669Y-62225000D01*
X148523941Y-62254783D01*
X148382900Y-62313204D01*
X148275000Y-62385300D01*
X148275000Y-61571016D01*
X148351982Y-61494034D01*
X148436796Y-61367100D01*
X148495217Y-61226059D01*
X148525000Y-61076331D01*
X148525000Y-60923669D01*
X148495217Y-60773941D01*
X148474394Y-60723669D01*
X152525000Y-60723669D01*
X152525000Y-60876331D01*
X152554783Y-61026059D01*
X152613204Y-61167100D01*
X152698018Y-61294034D01*
X152805966Y-61401982D01*
X152932900Y-61486796D01*
X153073941Y-61545217D01*
X153223669Y-61575000D01*
X153376331Y-61575000D01*
X153526059Y-61545217D01*
X153667100Y-61486796D01*
X153794034Y-61401982D01*
X153871016Y-61325000D01*
X155028984Y-61325000D01*
X155105966Y-61401982D01*
X155232900Y-61486796D01*
X155373941Y-61545217D01*
X155523669Y-61575000D01*
X155676331Y-61575000D01*
X155826059Y-61545217D01*
X155967100Y-61486796D01*
X156094034Y-61401982D01*
X156201982Y-61294034D01*
X156286796Y-61167100D01*
X156345217Y-61026059D01*
X156375000Y-60876331D01*
X156375000Y-60723669D01*
X156345217Y-60573941D01*
X156286796Y-60432900D01*
X156201982Y-60305966D01*
X156094034Y-60198018D01*
X155967100Y-60113204D01*
X155826059Y-60054783D01*
X155676331Y-60025000D01*
X155523669Y-60025000D01*
X155373941Y-60054783D01*
X155232900Y-60113204D01*
X155105966Y-60198018D01*
X155028984Y-60275000D01*
X153871016Y-60275000D01*
X153794034Y-60198018D01*
X153667100Y-60113204D01*
X153526059Y-60054783D01*
X153376331Y-60025000D01*
X153223669Y-60025000D01*
X153073941Y-60054783D01*
X152932900Y-60113204D01*
X152805966Y-60198018D01*
X152698018Y-60305966D01*
X152613204Y-60432900D01*
X152554783Y-60573941D01*
X152525000Y-60723669D01*
X148474394Y-60723669D01*
X148436796Y-60632900D01*
X148351982Y-60505966D01*
X148244034Y-60398018D01*
X148117100Y-60313204D01*
X147976059Y-60254783D01*
X147826331Y-60225000D01*
X147673669Y-60225000D01*
X147523941Y-60254783D01*
X147382900Y-60313204D01*
X147255966Y-60398018D01*
X147148018Y-60505966D01*
X147063204Y-60632900D01*
X147004783Y-60773941D01*
X146975000Y-60923669D01*
X124025000Y-60923669D01*
X124025000Y-58571016D01*
X124101982Y-58494034D01*
X124186796Y-58367100D01*
X124245217Y-58226059D01*
X124275000Y-58076331D01*
X124275000Y-57923669D01*
X124245217Y-57773941D01*
X124186796Y-57632900D01*
X124101982Y-57505966D01*
X123994034Y-57398018D01*
X123867100Y-57313204D01*
X123726059Y-57254783D01*
X123576331Y-57225000D01*
X123423669Y-57225000D01*
X123273941Y-57254783D01*
X123132900Y-57313204D01*
X123005966Y-57398018D01*
X122898018Y-57505966D01*
X122813204Y-57632900D01*
X122754783Y-57773941D01*
X122725000Y-57923669D01*
X88425000Y-57923669D01*
X88425000Y-56650000D01*
X143273186Y-56650000D01*
X143273186Y-58350000D01*
X143280426Y-58423513D01*
X143301869Y-58494200D01*
X143336691Y-58559347D01*
X143383552Y-58616448D01*
X143440653Y-58663309D01*
X143505800Y-58698131D01*
X143576487Y-58719574D01*
X143650000Y-58726814D01*
X145350000Y-58726814D01*
X145423513Y-58719574D01*
X145494200Y-58698131D01*
X145559347Y-58663309D01*
X145616448Y-58616448D01*
X145663309Y-58559347D01*
X145698131Y-58494200D01*
X145719574Y-58423513D01*
X145726814Y-58350000D01*
X145726814Y-57379348D01*
X145815000Y-57379348D01*
X145815000Y-57620652D01*
X145862076Y-57857319D01*
X145954419Y-58080255D01*
X146088481Y-58280892D01*
X146259108Y-58451519D01*
X146459745Y-58585581D01*
X146682681Y-58677924D01*
X146919348Y-58725000D01*
X147160652Y-58725000D01*
X147397319Y-58677924D01*
X147620255Y-58585581D01*
X147820892Y-58451519D01*
X147991519Y-58280892D01*
X148125581Y-58080255D01*
X148217924Y-57857319D01*
X148265000Y-57620652D01*
X148265000Y-57419348D01*
X161615000Y-57419348D01*
X161615000Y-57660652D01*
X161662076Y-57897319D01*
X161754419Y-58120255D01*
X161888481Y-58320892D01*
X162059108Y-58491519D01*
X162259745Y-58625581D01*
X162482681Y-58717924D01*
X162719348Y-58765000D01*
X162960652Y-58765000D01*
X163197319Y-58717924D01*
X163420255Y-58625581D01*
X163620892Y-58491519D01*
X163791519Y-58320892D01*
X163925581Y-58120255D01*
X164017924Y-57897319D01*
X164065000Y-57660652D01*
X164065000Y-57419348D01*
X164155000Y-57419348D01*
X164155000Y-57660652D01*
X164202076Y-57897319D01*
X164294419Y-58120255D01*
X164428481Y-58320892D01*
X164599108Y-58491519D01*
X164799745Y-58625581D01*
X165022681Y-58717924D01*
X165259348Y-58765000D01*
X165500652Y-58765000D01*
X165737319Y-58717924D01*
X165960255Y-58625581D01*
X166160892Y-58491519D01*
X166331519Y-58320892D01*
X166465581Y-58120255D01*
X166557924Y-57897319D01*
X166605000Y-57660652D01*
X166605000Y-57419348D01*
X166695000Y-57419348D01*
X166695000Y-57660652D01*
X166742076Y-57897319D01*
X166834419Y-58120255D01*
X166968481Y-58320892D01*
X167139108Y-58491519D01*
X167339745Y-58625581D01*
X167562681Y-58717924D01*
X167799348Y-58765000D01*
X168040652Y-58765000D01*
X168277319Y-58717924D01*
X168500255Y-58625581D01*
X168700892Y-58491519D01*
X168871519Y-58320892D01*
X169005581Y-58120255D01*
X169097924Y-57897319D01*
X169145000Y-57660652D01*
X169145000Y-57419348D01*
X169235000Y-57419348D01*
X169235000Y-57660652D01*
X169282076Y-57897319D01*
X169374419Y-58120255D01*
X169508481Y-58320892D01*
X169679108Y-58491519D01*
X169879745Y-58625581D01*
X170102681Y-58717924D01*
X170339348Y-58765000D01*
X170580652Y-58765000D01*
X170817319Y-58717924D01*
X171040255Y-58625581D01*
X171240892Y-58491519D01*
X171411519Y-58320892D01*
X171545581Y-58120255D01*
X171637924Y-57897319D01*
X171685000Y-57660652D01*
X171685000Y-57419348D01*
X171775000Y-57419348D01*
X171775000Y-57660652D01*
X171822076Y-57897319D01*
X171914419Y-58120255D01*
X172048481Y-58320892D01*
X172219108Y-58491519D01*
X172419745Y-58625581D01*
X172642681Y-58717924D01*
X172879348Y-58765000D01*
X173120652Y-58765000D01*
X173357319Y-58717924D01*
X173580255Y-58625581D01*
X173780892Y-58491519D01*
X173951519Y-58320892D01*
X174085581Y-58120255D01*
X174177924Y-57897319D01*
X174225000Y-57660652D01*
X174225000Y-57419348D01*
X174177924Y-57182681D01*
X174085581Y-56959745D01*
X173951519Y-56759108D01*
X173780892Y-56588481D01*
X173580255Y-56454419D01*
X173357319Y-56362076D01*
X173120652Y-56315000D01*
X172879348Y-56315000D01*
X172642681Y-56362076D01*
X172419745Y-56454419D01*
X172219108Y-56588481D01*
X172048481Y-56759108D01*
X171914419Y-56959745D01*
X171822076Y-57182681D01*
X171775000Y-57419348D01*
X171685000Y-57419348D01*
X171637924Y-57182681D01*
X171545581Y-56959745D01*
X171411519Y-56759108D01*
X171240892Y-56588481D01*
X171040255Y-56454419D01*
X170817319Y-56362076D01*
X170580652Y-56315000D01*
X170339348Y-56315000D01*
X170102681Y-56362076D01*
X169879745Y-56454419D01*
X169679108Y-56588481D01*
X169508481Y-56759108D01*
X169374419Y-56959745D01*
X169282076Y-57182681D01*
X169235000Y-57419348D01*
X169145000Y-57419348D01*
X169097924Y-57182681D01*
X169005581Y-56959745D01*
X168871519Y-56759108D01*
X168700892Y-56588481D01*
X168500255Y-56454419D01*
X168277319Y-56362076D01*
X168040652Y-56315000D01*
X167799348Y-56315000D01*
X167562681Y-56362076D01*
X167339745Y-56454419D01*
X167139108Y-56588481D01*
X166968481Y-56759108D01*
X166834419Y-56959745D01*
X166742076Y-57182681D01*
X166695000Y-57419348D01*
X166605000Y-57419348D01*
X166557924Y-57182681D01*
X166465581Y-56959745D01*
X166331519Y-56759108D01*
X166160892Y-56588481D01*
X165960255Y-56454419D01*
X165737319Y-56362076D01*
X165500652Y-56315000D01*
X165259348Y-56315000D01*
X165022681Y-56362076D01*
X164799745Y-56454419D01*
X164599108Y-56588481D01*
X164428481Y-56759108D01*
X164294419Y-56959745D01*
X164202076Y-57182681D01*
X164155000Y-57419348D01*
X164065000Y-57419348D01*
X164017924Y-57182681D01*
X163925581Y-56959745D01*
X163791519Y-56759108D01*
X163620892Y-56588481D01*
X163420255Y-56454419D01*
X163197319Y-56362076D01*
X162960652Y-56315000D01*
X162719348Y-56315000D01*
X162482681Y-56362076D01*
X162259745Y-56454419D01*
X162059108Y-56588481D01*
X161888481Y-56759108D01*
X161754419Y-56959745D01*
X161662076Y-57182681D01*
X161615000Y-57419348D01*
X148265000Y-57419348D01*
X148265000Y-57379348D01*
X148217924Y-57142681D01*
X148125581Y-56919745D01*
X147991519Y-56719108D01*
X147820892Y-56548481D01*
X147620255Y-56414419D01*
X147397319Y-56322076D01*
X147160652Y-56275000D01*
X146919348Y-56275000D01*
X146682681Y-56322076D01*
X146459745Y-56414419D01*
X146259108Y-56548481D01*
X146088481Y-56719108D01*
X145954419Y-56919745D01*
X145862076Y-57142681D01*
X145815000Y-57379348D01*
X145726814Y-57379348D01*
X145726814Y-56650000D01*
X145719574Y-56576487D01*
X145698131Y-56505800D01*
X145663309Y-56440653D01*
X145616448Y-56383552D01*
X145559347Y-56336691D01*
X145494200Y-56301869D01*
X145423513Y-56280426D01*
X145350000Y-56273186D01*
X143650000Y-56273186D01*
X143576487Y-56280426D01*
X143505800Y-56301869D01*
X143440653Y-56336691D01*
X143383552Y-56383552D01*
X143336691Y-56440653D01*
X143301869Y-56505800D01*
X143280426Y-56576487D01*
X143273186Y-56650000D01*
X88425000Y-56650000D01*
X88425000Y-54839348D01*
X143275000Y-54839348D01*
X143275000Y-55080652D01*
X143322076Y-55317319D01*
X143414419Y-55540255D01*
X143548481Y-55740892D01*
X143719108Y-55911519D01*
X143919745Y-56045581D01*
X144142681Y-56137924D01*
X144379348Y-56185000D01*
X144620652Y-56185000D01*
X144857319Y-56137924D01*
X145080255Y-56045581D01*
X145280892Y-55911519D01*
X145451519Y-55740892D01*
X145585581Y-55540255D01*
X145677924Y-55317319D01*
X145687314Y-55270112D01*
X145906656Y-55270112D01*
X145988933Y-55485258D01*
X146111602Y-55680218D01*
X146269948Y-55847501D01*
X146457887Y-55980678D01*
X146668197Y-56074631D01*
X146729889Y-56093338D01*
X146911000Y-56046116D01*
X146911000Y-55089000D01*
X147169000Y-55089000D01*
X147169000Y-56046116D01*
X147350111Y-56093338D01*
X147411803Y-56074631D01*
X147622113Y-55980678D01*
X147810052Y-55847501D01*
X147968398Y-55680218D01*
X148091067Y-55485258D01*
X148158047Y-55310112D01*
X150246656Y-55310112D01*
X150328933Y-55525258D01*
X150451602Y-55720218D01*
X150609948Y-55887501D01*
X150797887Y-56020678D01*
X151008197Y-56114631D01*
X151069889Y-56133338D01*
X151251000Y-56086116D01*
X151251000Y-55129000D01*
X151509000Y-55129000D01*
X151509000Y-56086116D01*
X151690111Y-56133338D01*
X151751803Y-56114631D01*
X151962113Y-56020678D01*
X152150052Y-55887501D01*
X152308398Y-55720218D01*
X152431067Y-55525258D01*
X152513344Y-55310112D01*
X152466653Y-55129000D01*
X151509000Y-55129000D01*
X151251000Y-55129000D01*
X150293347Y-55129000D01*
X150246656Y-55310112D01*
X148158047Y-55310112D01*
X148173344Y-55270112D01*
X148126653Y-55089000D01*
X147169000Y-55089000D01*
X146911000Y-55089000D01*
X145953347Y-55089000D01*
X145906656Y-55270112D01*
X145687314Y-55270112D01*
X145725000Y-55080652D01*
X145725000Y-54879348D01*
X152695000Y-54879348D01*
X152695000Y-55120652D01*
X152742076Y-55357319D01*
X152834419Y-55580255D01*
X152968481Y-55780892D01*
X153139108Y-55951519D01*
X153339745Y-56085581D01*
X153562681Y-56177924D01*
X153799348Y-56225000D01*
X154040652Y-56225000D01*
X154277319Y-56177924D01*
X154500255Y-56085581D01*
X154700892Y-55951519D01*
X154871519Y-55780892D01*
X155005581Y-55580255D01*
X155097924Y-55357319D01*
X155145000Y-55120652D01*
X155145000Y-54879348D01*
X155235000Y-54879348D01*
X155235000Y-55120652D01*
X155282076Y-55357319D01*
X155374419Y-55580255D01*
X155508481Y-55780892D01*
X155679108Y-55951519D01*
X155879745Y-56085581D01*
X156102681Y-56177924D01*
X156339348Y-56225000D01*
X156580652Y-56225000D01*
X156817319Y-56177924D01*
X157040255Y-56085581D01*
X157240892Y-55951519D01*
X157411519Y-55780892D01*
X157545581Y-55580255D01*
X157637924Y-55357319D01*
X157685000Y-55120652D01*
X157685000Y-54879348D01*
X157637924Y-54642681D01*
X157545581Y-54419745D01*
X157411519Y-54219108D01*
X157342411Y-54150000D01*
X157773186Y-54150000D01*
X157773186Y-55850000D01*
X157780426Y-55923513D01*
X157801869Y-55994200D01*
X157836691Y-56059347D01*
X157883552Y-56116448D01*
X157940653Y-56163309D01*
X158005800Y-56198131D01*
X158076487Y-56219574D01*
X158150000Y-56226814D01*
X159850000Y-56226814D01*
X159923513Y-56219574D01*
X159994200Y-56198131D01*
X160059347Y-56163309D01*
X160116448Y-56116448D01*
X160163309Y-56059347D01*
X160198131Y-55994200D01*
X160219574Y-55923513D01*
X160226814Y-55850000D01*
X160226814Y-55310112D01*
X161706656Y-55310112D01*
X161788933Y-55525258D01*
X161911602Y-55720218D01*
X162069948Y-55887501D01*
X162257887Y-56020678D01*
X162468197Y-56114631D01*
X162529889Y-56133338D01*
X162711000Y-56086116D01*
X162711000Y-55129000D01*
X162969000Y-55129000D01*
X162969000Y-56086116D01*
X163150111Y-56133338D01*
X163211803Y-56114631D01*
X163422113Y-56020678D01*
X163610052Y-55887501D01*
X163768398Y-55720218D01*
X163891067Y-55525258D01*
X163973344Y-55310112D01*
X163926653Y-55129000D01*
X162969000Y-55129000D01*
X162711000Y-55129000D01*
X161753347Y-55129000D01*
X161706656Y-55310112D01*
X160226814Y-55310112D01*
X160226814Y-54879348D01*
X164155000Y-54879348D01*
X164155000Y-55120652D01*
X164202076Y-55357319D01*
X164294419Y-55580255D01*
X164428481Y-55780892D01*
X164599108Y-55951519D01*
X164799745Y-56085581D01*
X165022681Y-56177924D01*
X165259348Y-56225000D01*
X165500652Y-56225000D01*
X165737319Y-56177924D01*
X165960255Y-56085581D01*
X166160892Y-55951519D01*
X166331519Y-55780892D01*
X166465581Y-55580255D01*
X166557924Y-55357319D01*
X166567314Y-55310112D01*
X166786656Y-55310112D01*
X166868933Y-55525258D01*
X166991602Y-55720218D01*
X167149948Y-55887501D01*
X167337887Y-56020678D01*
X167548197Y-56114631D01*
X167609889Y-56133338D01*
X167791000Y-56086116D01*
X167791000Y-55129000D01*
X168049000Y-55129000D01*
X168049000Y-56086116D01*
X168230111Y-56133338D01*
X168291803Y-56114631D01*
X168502113Y-56020678D01*
X168690052Y-55887501D01*
X168848398Y-55720218D01*
X168971067Y-55525258D01*
X169053344Y-55310112D01*
X169326656Y-55310112D01*
X169408933Y-55525258D01*
X169531602Y-55720218D01*
X169689948Y-55887501D01*
X169877887Y-56020678D01*
X170088197Y-56114631D01*
X170149889Y-56133338D01*
X170331000Y-56086116D01*
X170331000Y-55129000D01*
X170589000Y-55129000D01*
X170589000Y-56086116D01*
X170770111Y-56133338D01*
X170831803Y-56114631D01*
X171042113Y-56020678D01*
X171230052Y-55887501D01*
X171388398Y-55720218D01*
X171511067Y-55525258D01*
X171593344Y-55310112D01*
X171546653Y-55129000D01*
X170589000Y-55129000D01*
X170331000Y-55129000D01*
X169373347Y-55129000D01*
X169326656Y-55310112D01*
X169053344Y-55310112D01*
X169006653Y-55129000D01*
X168049000Y-55129000D01*
X167791000Y-55129000D01*
X166833347Y-55129000D01*
X166786656Y-55310112D01*
X166567314Y-55310112D01*
X166605000Y-55120652D01*
X166605000Y-54879348D01*
X166567315Y-54689888D01*
X166786656Y-54689888D01*
X166833347Y-54871000D01*
X167791000Y-54871000D01*
X167791000Y-53913884D01*
X168049000Y-53913884D01*
X168049000Y-54871000D01*
X169006653Y-54871000D01*
X169053344Y-54689888D01*
X169326656Y-54689888D01*
X169373347Y-54871000D01*
X170331000Y-54871000D01*
X170331000Y-53913884D01*
X170589000Y-53913884D01*
X170589000Y-54871000D01*
X171546653Y-54871000D01*
X171593344Y-54689888D01*
X171511067Y-54474742D01*
X171388398Y-54279782D01*
X171265550Y-54150000D01*
X171773186Y-54150000D01*
X171773186Y-55850000D01*
X171780426Y-55923513D01*
X171801869Y-55994200D01*
X171836691Y-56059347D01*
X171883552Y-56116448D01*
X171940653Y-56163309D01*
X172005800Y-56198131D01*
X172076487Y-56219574D01*
X172150000Y-56226814D01*
X173850000Y-56226814D01*
X173923513Y-56219574D01*
X173994200Y-56198131D01*
X174059347Y-56163309D01*
X174116448Y-56116448D01*
X174163309Y-56059347D01*
X174198131Y-55994200D01*
X174219574Y-55923513D01*
X174226814Y-55850000D01*
X174226814Y-54150000D01*
X174219574Y-54076487D01*
X174198131Y-54005800D01*
X174163309Y-53940653D01*
X174116448Y-53883552D01*
X174059347Y-53836691D01*
X173994200Y-53801869D01*
X173923513Y-53780426D01*
X173850000Y-53773186D01*
X172150000Y-53773186D01*
X172076487Y-53780426D01*
X172005800Y-53801869D01*
X171940653Y-53836691D01*
X171883552Y-53883552D01*
X171836691Y-53940653D01*
X171801869Y-54005800D01*
X171780426Y-54076487D01*
X171773186Y-54150000D01*
X171265550Y-54150000D01*
X171230052Y-54112499D01*
X171042113Y-53979322D01*
X170831803Y-53885369D01*
X170770111Y-53866662D01*
X170589000Y-53913884D01*
X170331000Y-53913884D01*
X170149889Y-53866662D01*
X170088197Y-53885369D01*
X169877887Y-53979322D01*
X169689948Y-54112499D01*
X169531602Y-54279782D01*
X169408933Y-54474742D01*
X169326656Y-54689888D01*
X169053344Y-54689888D01*
X168971067Y-54474742D01*
X168848398Y-54279782D01*
X168690052Y-54112499D01*
X168502113Y-53979322D01*
X168291803Y-53885369D01*
X168230111Y-53866662D01*
X168049000Y-53913884D01*
X167791000Y-53913884D01*
X167609889Y-53866662D01*
X167548197Y-53885369D01*
X167337887Y-53979322D01*
X167149948Y-54112499D01*
X166991602Y-54279782D01*
X166868933Y-54474742D01*
X166786656Y-54689888D01*
X166567315Y-54689888D01*
X166557924Y-54642681D01*
X166465581Y-54419745D01*
X166331519Y-54219108D01*
X166160892Y-54048481D01*
X165960255Y-53914419D01*
X165737319Y-53822076D01*
X165500652Y-53775000D01*
X165259348Y-53775000D01*
X165022681Y-53822076D01*
X164799745Y-53914419D01*
X164599108Y-54048481D01*
X164428481Y-54219108D01*
X164294419Y-54419745D01*
X164202076Y-54642681D01*
X164155000Y-54879348D01*
X160226814Y-54879348D01*
X160226814Y-54689888D01*
X161706656Y-54689888D01*
X161753347Y-54871000D01*
X162711000Y-54871000D01*
X162711000Y-53913884D01*
X162969000Y-53913884D01*
X162969000Y-54871000D01*
X163926653Y-54871000D01*
X163973344Y-54689888D01*
X163891067Y-54474742D01*
X163768398Y-54279782D01*
X163610052Y-54112499D01*
X163422113Y-53979322D01*
X163211803Y-53885369D01*
X163150111Y-53866662D01*
X162969000Y-53913884D01*
X162711000Y-53913884D01*
X162529889Y-53866662D01*
X162468197Y-53885369D01*
X162257887Y-53979322D01*
X162069948Y-54112499D01*
X161911602Y-54279782D01*
X161788933Y-54474742D01*
X161706656Y-54689888D01*
X160226814Y-54689888D01*
X160226814Y-54150000D01*
X160219574Y-54076487D01*
X160198131Y-54005800D01*
X160163309Y-53940653D01*
X160116448Y-53883552D01*
X160059347Y-53836691D01*
X159994200Y-53801869D01*
X159923513Y-53780426D01*
X159850000Y-53773186D01*
X158150000Y-53773186D01*
X158076487Y-53780426D01*
X158005800Y-53801869D01*
X157940653Y-53836691D01*
X157883552Y-53883552D01*
X157836691Y-53940653D01*
X157801869Y-54005800D01*
X157780426Y-54076487D01*
X157773186Y-54150000D01*
X157342411Y-54150000D01*
X157240892Y-54048481D01*
X157040255Y-53914419D01*
X156817319Y-53822076D01*
X156580652Y-53775000D01*
X156339348Y-53775000D01*
X156102681Y-53822076D01*
X155879745Y-53914419D01*
X155679108Y-54048481D01*
X155508481Y-54219108D01*
X155374419Y-54419745D01*
X155282076Y-54642681D01*
X155235000Y-54879348D01*
X155145000Y-54879348D01*
X155097924Y-54642681D01*
X155005581Y-54419745D01*
X154871519Y-54219108D01*
X154700892Y-54048481D01*
X154500255Y-53914419D01*
X154277319Y-53822076D01*
X154040652Y-53775000D01*
X153799348Y-53775000D01*
X153562681Y-53822076D01*
X153339745Y-53914419D01*
X153139108Y-54048481D01*
X152968481Y-54219108D01*
X152834419Y-54419745D01*
X152742076Y-54642681D01*
X152695000Y-54879348D01*
X145725000Y-54879348D01*
X145725000Y-54839348D01*
X145687315Y-54649888D01*
X145906656Y-54649888D01*
X145953347Y-54831000D01*
X146911000Y-54831000D01*
X146911000Y-53873884D01*
X147169000Y-53873884D01*
X147169000Y-54831000D01*
X148126653Y-54831000D01*
X148163031Y-54689888D01*
X150246656Y-54689888D01*
X150293347Y-54871000D01*
X151251000Y-54871000D01*
X151251000Y-53913884D01*
X151509000Y-53913884D01*
X151509000Y-54871000D01*
X152466653Y-54871000D01*
X152513344Y-54689888D01*
X152431067Y-54474742D01*
X152308398Y-54279782D01*
X152150052Y-54112499D01*
X151962113Y-53979322D01*
X151751803Y-53885369D01*
X151690111Y-53866662D01*
X151509000Y-53913884D01*
X151251000Y-53913884D01*
X151069889Y-53866662D01*
X151008197Y-53885369D01*
X150797887Y-53979322D01*
X150609948Y-54112499D01*
X150451602Y-54279782D01*
X150328933Y-54474742D01*
X150246656Y-54689888D01*
X148163031Y-54689888D01*
X148173344Y-54649888D01*
X148091067Y-54434742D01*
X147968398Y-54239782D01*
X147810052Y-54072499D01*
X147622113Y-53939322D01*
X147411803Y-53845369D01*
X147350111Y-53826662D01*
X147169000Y-53873884D01*
X146911000Y-53873884D01*
X146729889Y-53826662D01*
X146668197Y-53845369D01*
X146457887Y-53939322D01*
X146269948Y-54072499D01*
X146111602Y-54239782D01*
X145988933Y-54434742D01*
X145906656Y-54649888D01*
X145687315Y-54649888D01*
X145677924Y-54602681D01*
X145585581Y-54379745D01*
X145451519Y-54179108D01*
X145280892Y-54008481D01*
X145080255Y-53874419D01*
X144857319Y-53782076D01*
X144620652Y-53735000D01*
X144379348Y-53735000D01*
X144142681Y-53782076D01*
X143919745Y-53874419D01*
X143719108Y-54008481D01*
X143548481Y-54179108D01*
X143414419Y-54379745D01*
X143322076Y-54602681D01*
X143275000Y-54839348D01*
X88425000Y-54839348D01*
X88425000Y-47906335D01*
X91049000Y-47906335D01*
X91049000Y-48093665D01*
X91085547Y-48277396D01*
X91157235Y-48450467D01*
X91261310Y-48606227D01*
X91393773Y-48738690D01*
X91549533Y-48842765D01*
X91722604Y-48914453D01*
X91906335Y-48951000D01*
X92093665Y-48951000D01*
X92277396Y-48914453D01*
X92450467Y-48842765D01*
X92606227Y-48738690D01*
X92738690Y-48606227D01*
X92842765Y-48450467D01*
X92914453Y-48277396D01*
X92951000Y-48093665D01*
X92951000Y-47906335D01*
X195049000Y-47906335D01*
X195049000Y-48093665D01*
X195085547Y-48277396D01*
X195157235Y-48450467D01*
X195261310Y-48606227D01*
X195393773Y-48738690D01*
X195549533Y-48842765D01*
X195722604Y-48914453D01*
X195906335Y-48951000D01*
X196093665Y-48951000D01*
X196277396Y-48914453D01*
X196450467Y-48842765D01*
X196606227Y-48738690D01*
X196738690Y-48606227D01*
X196842765Y-48450467D01*
X196914453Y-48277396D01*
X196951000Y-48093665D01*
X196951000Y-47906335D01*
X196914453Y-47722604D01*
X196842765Y-47549533D01*
X196738690Y-47393773D01*
X196606227Y-47261310D01*
X196450467Y-47157235D01*
X196277396Y-47085547D01*
X196093665Y-47049000D01*
X195906335Y-47049000D01*
X195722604Y-47085547D01*
X195549533Y-47157235D01*
X195393773Y-47261310D01*
X195261310Y-47393773D01*
X195157235Y-47549533D01*
X195085547Y-47722604D01*
X195049000Y-47906335D01*
X92951000Y-47906335D01*
X92914453Y-47722604D01*
X92842765Y-47549533D01*
X92738690Y-47393773D01*
X92606227Y-47261310D01*
X92450467Y-47157235D01*
X92277396Y-47085547D01*
X92093665Y-47049000D01*
X91906335Y-47049000D01*
X91722604Y-47085547D01*
X91549533Y-47157235D01*
X91393773Y-47261310D01*
X91261310Y-47393773D01*
X91157235Y-47549533D01*
X91085547Y-47722604D01*
X91049000Y-47906335D01*
X88425000Y-47906335D01*
X88425000Y-44425000D01*
X199575000Y-44425000D01*
X199575001Y-113575000D01*
G37*
%TD.AperFunction*%
%TD*%
M02*
