M48
; DRILL file {KiCad (5.1.9-0-10_14)} date Tuesday, February 23, 2021 at 07:54:29 PM
; FORMAT={-:-/ absolute / metric / decimal}
; #@! TF.CreationDate,2021-02-23T19:54:29+01:00
; #@! TF.GenerationSoftware,Kicad,Pcbnew,(5.1.9-0-10_14)
FMAT,2
METRIC
T1C0.400
T2C0.650
T3C1.000
T4C0.700
T5C1.152
T6C1.700
%
G90
G05
T1
X123.5Y-58.0
X123.5Y-67.25
X125.2Y-62.0
X126.7Y-62.0
X127.3Y-56.2
X127.7Y-63.5
X128.4Y-57.2
X128.7Y-64.4
X131.0Y-56.4
X133.6Y-55.1
X134.0Y-61.2
X134.7Y-56.2
X135.25Y-58.5
X135.75Y-64.0
X136.0Y-83.4
X137.4Y-69.4
X137.4Y-71.0
X137.4Y-72.6
X137.4Y-74.4
X137.5Y-83.4
X137.75Y-58.5
X137.8Y-68.1
X137.8Y-75.4
X138.25Y-64.0
X139.5Y-68.1
X139.5Y-75.4
X141.2Y-68.1
X141.2Y-69.4
X141.2Y-75.4
X141.6Y-71.0
X141.6Y-73.8
X142.0Y-80.3
X142.1Y-93.925
X142.875Y-94.675
X143.2Y-67.4
X143.2Y-71.0
X143.4Y-73.8
X143.5Y-80.3
X143.503Y-95.453
X144.5Y-63.75
X144.6Y-79.2
X144.8Y-71.0
X144.8Y-96.25
X145.3Y-85.2
X145.9Y-81.5
X145.9Y-83.0
X146.0Y-63.75
X146.4Y-86.5
X147.5Y-75.2
X147.75Y-61.0
X147.75Y-64.0
X148.7Y-78.0
X148.75Y-63.0
X148.8Y-69.1
X149.225Y-88.55
X149.932Y-89.257
X150.653Y-89.95
X151.25Y-63.0
X151.389Y-90.628
X153.0Y-82.8
X153.3Y-60.8
X154.75Y-86.5
X155.6Y-60.8
X156.75Y-87.25
X159.25Y-81.0
X159.25Y-82.5
X159.5Y-84.25
X159.75Y-63.75
X160.25Y-64.95
X160.75Y-88.0
X161.75Y-64.95
X161.75Y-87.0
X163.0Y-76.0
X163.1Y-93.5
X163.25Y-89.25
X163.75Y-64.25
X163.75Y-78.0
X164.25Y-92.25
X165.5Y-68.6
X165.5Y-84.0
X166.75Y-94.25
X167.0Y-84.0
X167.75Y-66.35
X169.5Y-87.0
X170.55Y-96.95
X170.8Y-84.0
X171.575Y-96.775
X171.75Y-94.25
X172.0Y-84.7
X172.25Y-89.0
X172.25Y-90.0
X178.25Y-100.5
X178.325Y-103.25
X179.75Y-89.0
X179.75Y-90.0
X179.8Y-84.4
X181.0Y-85.8
X181.6Y-77.7
X182.3Y-83.3
X183.3Y-76.0
X184.2Y-84.8
X184.5Y-74.7
X190.25Y-69.25
X193.5Y-68.25
X193.5Y-69.25
X193.6Y-101.3
X193.7Y-89.3
X194.5Y-68.25
X194.5Y-69.25
X197.5Y-101.3
X197.6Y-89.3
T2
X169.5Y-78.0
X170.77Y-78.0
X172.04Y-78.0
X173.31Y-78.0
T3
X144.5Y-54.96
X144.5Y-57.5
X147.04Y-54.96
X147.04Y-57.5
X151.38Y-55.0
X153.92Y-55.0
X156.46Y-55.0
X159.0Y-55.0
X162.84Y-55.0
X162.84Y-57.54
X165.38Y-55.0
X165.38Y-57.54
X167.92Y-55.0
X167.92Y-57.54
X170.46Y-55.0
X170.46Y-57.54
X173.0Y-55.0
X173.0Y-57.54
X196.5Y-82.5
X196.5Y-85.04
T4
X196.05Y-68.925
X196.05Y-73.075
T5
X92.0Y-48.0
X92.0Y-110.0
X196.0Y-48.0
T6
X187.5Y-93.0
X187.5Y-105.0
X194.5Y-93.0
X194.5Y-105.0
T0
M30
