%TF.GenerationSoftware,KiCad,Pcbnew,(5.1.9-0-10_14)*%
%TF.CreationDate,2021-02-23T19:53:59+01:00*%
%TF.ProjectId,codec_breakot,636f6465-635f-4627-9265-616b6f742e6b,rev?*%
%TF.SameCoordinates,Original*%
%TF.FileFunction,Legend,Top*%
%TF.FilePolarity,Positive*%
%FSLAX46Y46*%
G04 Gerber Fmt 4.6, Leading zero omitted, Abs format (unit mm)*
G04 Created by KiCad (PCBNEW (5.1.9-0-10_14)) date 2021-02-23 19:53:59*
%MOMM*%
%LPD*%
G01*
G04 APERTURE LIST*
%ADD10C,0.150000*%
%ADD11C,0.200000*%
%ADD12C,0.010000*%
%ADD13C,0.120000*%
G04 APERTURE END LIST*
D10*
X94557619Y-112222380D02*
X94557619Y-111555714D01*
X94557619Y-111746190D02*
X94605238Y-111650952D01*
X94652857Y-111603333D01*
X94748095Y-111555714D01*
X94843333Y-111555714D01*
X95557619Y-112174761D02*
X95462380Y-112222380D01*
X95271904Y-112222380D01*
X95176666Y-112174761D01*
X95129047Y-112079523D01*
X95129047Y-111698571D01*
X95176666Y-111603333D01*
X95271904Y-111555714D01*
X95462380Y-111555714D01*
X95557619Y-111603333D01*
X95605238Y-111698571D01*
X95605238Y-111793809D01*
X95129047Y-111889047D01*
X95938571Y-111555714D02*
X96176666Y-112222380D01*
X96414761Y-111555714D01*
X98081428Y-112222380D02*
X97510000Y-112222380D01*
X97795714Y-112222380D02*
X97795714Y-111222380D01*
X97700476Y-111365238D01*
X97605238Y-111460476D01*
X97510000Y-111508095D01*
X98510000Y-112127142D02*
X98557619Y-112174761D01*
X98510000Y-112222380D01*
X98462380Y-112174761D01*
X98510000Y-112127142D01*
X98510000Y-112222380D01*
X99176666Y-111222380D02*
X99271904Y-111222380D01*
X99367142Y-111270000D01*
X99414761Y-111317619D01*
X99462380Y-111412857D01*
X99510000Y-111603333D01*
X99510000Y-111841428D01*
X99462380Y-112031904D01*
X99414761Y-112127142D01*
X99367142Y-112174761D01*
X99271904Y-112222380D01*
X99176666Y-112222380D01*
X99081428Y-112174761D01*
X99033809Y-112127142D01*
X98986190Y-112031904D01*
X98938571Y-111841428D01*
X98938571Y-111603333D01*
X98986190Y-111412857D01*
X99033809Y-111317619D01*
X99081428Y-111270000D01*
X99176666Y-111222380D01*
X129341421Y-70200000D02*
G75*
G03*
X129341421Y-70200000I-141421J0D01*
G01*
X131466666Y-69452380D02*
X132133333Y-70452380D01*
X132133333Y-69452380D02*
X131466666Y-70452380D01*
X129000000Y-72876190D02*
X129000000Y-73352380D01*
X128666666Y-72352380D02*
X129000000Y-72876190D01*
X129333333Y-72352380D01*
X128700000Y-71700000D02*
X129000000Y-72000000D01*
X129300000Y-71700000D02*
X129000000Y-72000000D01*
X130700000Y-70300000D02*
X131000000Y-70000000D01*
X130700000Y-69700000D02*
X131000000Y-70000000D01*
X129000000Y-70000000D02*
X131000000Y-70000000D01*
X129000000Y-70000000D02*
X129000000Y-72000000D01*
X183675000Y-84800000D02*
G75*
G03*
X183675000Y-84800000I-75000J0D01*
G01*
X148666666Y-72707142D02*
X148666666Y-73350000D01*
X148633333Y-73478571D01*
X148566666Y-73564285D01*
X148466666Y-73607142D01*
X148400000Y-73607142D01*
X149333333Y-73607142D02*
X149000000Y-73607142D01*
X149000000Y-72707142D01*
X149966666Y-73521428D02*
X149933333Y-73564285D01*
X149833333Y-73607142D01*
X149766666Y-73607142D01*
X149666666Y-73564285D01*
X149600000Y-73478571D01*
X149566666Y-73392857D01*
X149533333Y-73221428D01*
X149533333Y-73092857D01*
X149566666Y-72921428D01*
X149600000Y-72835714D01*
X149666666Y-72750000D01*
X149766666Y-72707142D01*
X149833333Y-72707142D01*
X149933333Y-72750000D01*
X149966666Y-72792857D01*
X150466666Y-72707142D02*
X150466666Y-73350000D01*
X150433333Y-73478571D01*
X150366666Y-73564285D01*
X150266666Y-73607142D01*
X150200000Y-73607142D01*
X151133333Y-73607142D02*
X150800000Y-73607142D01*
X150800000Y-72707142D01*
X151766666Y-73521428D02*
X151733333Y-73564285D01*
X151633333Y-73607142D01*
X151566666Y-73607142D01*
X151466666Y-73564285D01*
X151400000Y-73478571D01*
X151366666Y-73392857D01*
X151333333Y-73221428D01*
X151333333Y-73092857D01*
X151366666Y-72921428D01*
X151400000Y-72835714D01*
X151466666Y-72750000D01*
X151566666Y-72707142D01*
X151633333Y-72707142D01*
X151733333Y-72750000D01*
X151766666Y-72792857D01*
X152266666Y-72707142D02*
X152266666Y-73350000D01*
X152233333Y-73478571D01*
X152166666Y-73564285D01*
X152066666Y-73607142D01*
X152000000Y-73607142D01*
X152933333Y-73607142D02*
X152600000Y-73607142D01*
X152600000Y-72707142D01*
X153566666Y-73521428D02*
X153533333Y-73564285D01*
X153433333Y-73607142D01*
X153366666Y-73607142D01*
X153266666Y-73564285D01*
X153200000Y-73478571D01*
X153166666Y-73392857D01*
X153133333Y-73221428D01*
X153133333Y-73092857D01*
X153166666Y-72921428D01*
X153200000Y-72835714D01*
X153266666Y-72750000D01*
X153366666Y-72707142D01*
X153433333Y-72707142D01*
X153533333Y-72750000D01*
X153566666Y-72792857D01*
X154066666Y-72707142D02*
X154066666Y-73350000D01*
X154033333Y-73478571D01*
X153966666Y-73564285D01*
X153866666Y-73607142D01*
X153800000Y-73607142D01*
X154733333Y-73607142D02*
X154400000Y-73607142D01*
X154400000Y-72707142D01*
X155366666Y-73521428D02*
X155333333Y-73564285D01*
X155233333Y-73607142D01*
X155166666Y-73607142D01*
X155066666Y-73564285D01*
X155000000Y-73478571D01*
X154966666Y-73392857D01*
X154933333Y-73221428D01*
X154933333Y-73092857D01*
X154966666Y-72921428D01*
X155000000Y-72835714D01*
X155066666Y-72750000D01*
X155166666Y-72707142D01*
X155233333Y-72707142D01*
X155333333Y-72750000D01*
X155366666Y-72792857D01*
X138295238Y-82357142D02*
X138904761Y-82357142D01*
X134595238Y-82357142D02*
X135204761Y-82357142D01*
X181295238Y-75657142D02*
X181904761Y-75657142D01*
X193728571Y-82507142D02*
X194871428Y-82507142D01*
X194300000Y-83078571D02*
X194300000Y-81935714D01*
X187995238Y-80157142D02*
X188604761Y-80157142D01*
X170250000Y-91250000D02*
G75*
G03*
X170250000Y-91250000I-75000J0D01*
G01*
X145425000Y-69750000D02*
G75*
G03*
X145425000Y-69750000I-75000J0D01*
G01*
X133650000Y-61250000D02*
G75*
G03*
X133650000Y-61250000I-75000J0D01*
G01*
X191375000Y-73325000D02*
G75*
G03*
X191375000Y-73325000I-75000J0D01*
G01*
X175750000Y-55750000D02*
X175000000Y-55000000D01*
X175750000Y-55250000D02*
X175750000Y-55750000D01*
X176750000Y-55250000D02*
X175750000Y-55250000D01*
X176750000Y-54750000D02*
X176750000Y-55250000D01*
X175750000Y-54750000D02*
X176750000Y-54750000D01*
X175750000Y-54250000D02*
X175750000Y-54750000D01*
X175000000Y-55000000D02*
X175750000Y-54250000D01*
X195488095Y-64202380D02*
X195488095Y-65011904D01*
X195535714Y-65107142D01*
X195583333Y-65154761D01*
X195678571Y-65202380D01*
X195869047Y-65202380D01*
X195964285Y-65154761D01*
X196011904Y-65107142D01*
X196059523Y-65011904D01*
X196059523Y-64202380D01*
X196488095Y-65154761D02*
X196630952Y-65202380D01*
X196869047Y-65202380D01*
X196964285Y-65154761D01*
X197011904Y-65107142D01*
X197059523Y-65011904D01*
X197059523Y-64916666D01*
X197011904Y-64821428D01*
X196964285Y-64773809D01*
X196869047Y-64726190D01*
X196678571Y-64678571D01*
X196583333Y-64630952D01*
X196535714Y-64583333D01*
X196488095Y-64488095D01*
X196488095Y-64392857D01*
X196535714Y-64297619D01*
X196583333Y-64250000D01*
X196678571Y-64202380D01*
X196916666Y-64202380D01*
X197059523Y-64250000D01*
X197821428Y-64678571D02*
X197964285Y-64726190D01*
X198011904Y-64773809D01*
X198059523Y-64869047D01*
X198059523Y-65011904D01*
X198011904Y-65107142D01*
X197964285Y-65154761D01*
X197869047Y-65202380D01*
X197488095Y-65202380D01*
X197488095Y-64202380D01*
X197821428Y-64202380D01*
X197916666Y-64250000D01*
X197964285Y-64297619D01*
X198011904Y-64392857D01*
X198011904Y-64488095D01*
X197964285Y-64583333D01*
X197916666Y-64630952D01*
X197821428Y-64678571D01*
X197488095Y-64678571D01*
X183666666Y-109416666D02*
X184142857Y-109416666D01*
X183571428Y-109702380D02*
X183904761Y-108702380D01*
X184238095Y-109702380D01*
X184571428Y-108702380D02*
X184571428Y-109511904D01*
X184619047Y-109607142D01*
X184666666Y-109654761D01*
X184761904Y-109702380D01*
X184952380Y-109702380D01*
X185047619Y-109654761D01*
X185095238Y-109607142D01*
X185142857Y-109511904D01*
X185142857Y-108702380D01*
X185619047Y-109702380D02*
X185619047Y-108702380D01*
X185857142Y-108702380D01*
X186000000Y-108750000D01*
X186095238Y-108845238D01*
X186142857Y-108940476D01*
X186190476Y-109130952D01*
X186190476Y-109273809D01*
X186142857Y-109464285D01*
X186095238Y-109559523D01*
X186000000Y-109654761D01*
X185857142Y-109702380D01*
X185619047Y-109702380D01*
X186619047Y-109702380D02*
X186619047Y-108702380D01*
X187285714Y-108702380D02*
X187476190Y-108702380D01*
X187571428Y-108750000D01*
X187666666Y-108845238D01*
X187714285Y-109035714D01*
X187714285Y-109369047D01*
X187666666Y-109559523D01*
X187571428Y-109654761D01*
X187476190Y-109702380D01*
X187285714Y-109702380D01*
X187190476Y-109654761D01*
X187095238Y-109559523D01*
X187047619Y-109369047D01*
X187047619Y-109035714D01*
X187095238Y-108845238D01*
X187190476Y-108750000D01*
X187285714Y-108702380D01*
X189095238Y-108702380D02*
X189285714Y-108702380D01*
X189380952Y-108750000D01*
X189476190Y-108845238D01*
X189523809Y-109035714D01*
X189523809Y-109369047D01*
X189476190Y-109559523D01*
X189380952Y-109654761D01*
X189285714Y-109702380D01*
X189095238Y-109702380D01*
X189000000Y-109654761D01*
X188904761Y-109559523D01*
X188857142Y-109369047D01*
X188857142Y-109035714D01*
X188904761Y-108845238D01*
X189000000Y-108750000D01*
X189095238Y-108702380D01*
X189952380Y-108702380D02*
X189952380Y-109511904D01*
X190000000Y-109607142D01*
X190047619Y-109654761D01*
X190142857Y-109702380D01*
X190333333Y-109702380D01*
X190428571Y-109654761D01*
X190476190Y-109607142D01*
X190523809Y-109511904D01*
X190523809Y-108702380D01*
X190857142Y-108702380D02*
X191428571Y-108702380D01*
X191142857Y-109702380D02*
X191142857Y-108702380D01*
X183333333Y-97416666D02*
X183809523Y-97416666D01*
X183238095Y-97702380D02*
X183571428Y-96702380D01*
X183904761Y-97702380D01*
X184238095Y-96702380D02*
X184238095Y-97511904D01*
X184285714Y-97607142D01*
X184333333Y-97654761D01*
X184428571Y-97702380D01*
X184619047Y-97702380D01*
X184714285Y-97654761D01*
X184761904Y-97607142D01*
X184809523Y-97511904D01*
X184809523Y-96702380D01*
X185285714Y-97702380D02*
X185285714Y-96702380D01*
X185523809Y-96702380D01*
X185666666Y-96750000D01*
X185761904Y-96845238D01*
X185809523Y-96940476D01*
X185857142Y-97130952D01*
X185857142Y-97273809D01*
X185809523Y-97464285D01*
X185761904Y-97559523D01*
X185666666Y-97654761D01*
X185523809Y-97702380D01*
X185285714Y-97702380D01*
X186285714Y-97702380D02*
X186285714Y-96702380D01*
X186952380Y-96702380D02*
X187142857Y-96702380D01*
X187238095Y-96750000D01*
X187333333Y-96845238D01*
X187380952Y-97035714D01*
X187380952Y-97369047D01*
X187333333Y-97559523D01*
X187238095Y-97654761D01*
X187142857Y-97702380D01*
X186952380Y-97702380D01*
X186857142Y-97654761D01*
X186761904Y-97559523D01*
X186714285Y-97369047D01*
X186714285Y-97035714D01*
X186761904Y-96845238D01*
X186857142Y-96750000D01*
X186952380Y-96702380D01*
X188571428Y-97702380D02*
X188571428Y-96702380D01*
X189047619Y-97702380D02*
X189047619Y-96702380D01*
X189619047Y-97702380D01*
X189619047Y-96702380D01*
X192095238Y-77557142D02*
X192704761Y-77557142D01*
X199202380Y-86309523D02*
X198202380Y-86309523D01*
X198202380Y-85928571D01*
X198250000Y-85833333D01*
X198297619Y-85785714D01*
X198392857Y-85738095D01*
X198535714Y-85738095D01*
X198630952Y-85785714D01*
X198678571Y-85833333D01*
X198726190Y-85928571D01*
X198726190Y-86309523D01*
X198202380Y-85119047D02*
X198202380Y-84928571D01*
X198250000Y-84833333D01*
X198345238Y-84738095D01*
X198535714Y-84690476D01*
X198869047Y-84690476D01*
X199059523Y-84738095D01*
X199154761Y-84833333D01*
X199202380Y-84928571D01*
X199202380Y-85119047D01*
X199154761Y-85214285D01*
X199059523Y-85309523D01*
X198869047Y-85357142D01*
X198535714Y-85357142D01*
X198345238Y-85309523D01*
X198250000Y-85214285D01*
X198202380Y-85119047D01*
X198202380Y-84357142D02*
X199202380Y-84119047D01*
X198488095Y-83928571D01*
X199202380Y-83738095D01*
X198202380Y-83500000D01*
X198678571Y-83119047D02*
X198678571Y-82785714D01*
X199202380Y-82642857D02*
X199202380Y-83119047D01*
X198202380Y-83119047D01*
X198202380Y-82642857D01*
X199202380Y-81642857D02*
X198726190Y-81976190D01*
X199202380Y-82214285D02*
X198202380Y-82214285D01*
X198202380Y-81833333D01*
X198250000Y-81738095D01*
X198297619Y-81690476D01*
X198392857Y-81642857D01*
X198535714Y-81642857D01*
X198630952Y-81690476D01*
X198678571Y-81738095D01*
X198726190Y-81833333D01*
X198726190Y-82214285D01*
X144392857Y-52678571D02*
X144535714Y-52726190D01*
X144583333Y-52773809D01*
X144630952Y-52869047D01*
X144630952Y-53011904D01*
X144583333Y-53107142D01*
X144535714Y-53154761D01*
X144440476Y-53202380D01*
X144059523Y-53202380D01*
X144059523Y-52202380D01*
X144392857Y-52202380D01*
X144488095Y-52250000D01*
X144535714Y-52297619D01*
X144583333Y-52392857D01*
X144583333Y-52488095D01*
X144535714Y-52583333D01*
X144488095Y-52630952D01*
X144392857Y-52678571D01*
X144059523Y-52678571D01*
X145250000Y-52202380D02*
X145440476Y-52202380D01*
X145535714Y-52250000D01*
X145630952Y-52345238D01*
X145678571Y-52535714D01*
X145678571Y-52869047D01*
X145630952Y-53059523D01*
X145535714Y-53154761D01*
X145440476Y-53202380D01*
X145250000Y-53202380D01*
X145154761Y-53154761D01*
X145059523Y-53059523D01*
X145011904Y-52869047D01*
X145011904Y-52535714D01*
X145059523Y-52345238D01*
X145154761Y-52250000D01*
X145250000Y-52202380D01*
X146297619Y-52202380D02*
X146488095Y-52202380D01*
X146583333Y-52250000D01*
X146678571Y-52345238D01*
X146726190Y-52535714D01*
X146726190Y-52869047D01*
X146678571Y-53059523D01*
X146583333Y-53154761D01*
X146488095Y-53202380D01*
X146297619Y-53202380D01*
X146202380Y-53154761D01*
X146107142Y-53059523D01*
X146059523Y-52869047D01*
X146059523Y-52535714D01*
X146107142Y-52345238D01*
X146202380Y-52250000D01*
X146297619Y-52202380D01*
X147011904Y-52202380D02*
X147583333Y-52202380D01*
X147297619Y-53202380D02*
X147297619Y-52202380D01*
X153654761Y-52202380D02*
X153654761Y-53011904D01*
X153702380Y-53107142D01*
X153750000Y-53154761D01*
X153845238Y-53202380D01*
X154035714Y-53202380D01*
X154130952Y-53154761D01*
X154178571Y-53107142D01*
X154226190Y-53011904D01*
X154226190Y-52202380D01*
X154654761Y-52916666D02*
X155130952Y-52916666D01*
X154559523Y-53202380D02*
X154892857Y-52202380D01*
X155226190Y-53202380D01*
X156130952Y-53202380D02*
X155797619Y-52726190D01*
X155559523Y-53202380D02*
X155559523Y-52202380D01*
X155940476Y-52202380D01*
X156035714Y-52250000D01*
X156083333Y-52297619D01*
X156130952Y-52392857D01*
X156130952Y-52535714D01*
X156083333Y-52630952D01*
X156035714Y-52678571D01*
X155940476Y-52726190D01*
X155559523Y-52726190D01*
X156416666Y-52202380D02*
X156988095Y-52202380D01*
X156702380Y-53202380D02*
X156702380Y-52202380D01*
X166642857Y-53154761D02*
X166785714Y-53202380D01*
X167023809Y-53202380D01*
X167119047Y-53154761D01*
X167166666Y-53107142D01*
X167214285Y-53011904D01*
X167214285Y-52916666D01*
X167166666Y-52821428D01*
X167119047Y-52773809D01*
X167023809Y-52726190D01*
X166833333Y-52678571D01*
X166738095Y-52630952D01*
X166690476Y-52583333D01*
X166642857Y-52488095D01*
X166642857Y-52392857D01*
X166690476Y-52297619D01*
X166738095Y-52250000D01*
X166833333Y-52202380D01*
X167071428Y-52202380D01*
X167214285Y-52250000D01*
X167547619Y-52202380D02*
X167785714Y-53202380D01*
X167976190Y-52488095D01*
X168166666Y-53202380D01*
X168404761Y-52202380D01*
X168785714Y-53202380D02*
X168785714Y-52202380D01*
X169023809Y-52202380D01*
X169166666Y-52250000D01*
X169261904Y-52345238D01*
X169309523Y-52440476D01*
X169357142Y-52630952D01*
X169357142Y-52773809D01*
X169309523Y-52964285D01*
X169261904Y-53059523D01*
X169166666Y-53154761D01*
X169023809Y-53202380D01*
X168785714Y-53202380D01*
D11*
X172888095Y-79566666D02*
X173688095Y-79566666D01*
X173688095Y-79871428D01*
X173650000Y-79947619D01*
X173611904Y-79985714D01*
X173535714Y-80023809D01*
X173421428Y-80023809D01*
X173345238Y-79985714D01*
X173307142Y-79947619D01*
X173269047Y-79871428D01*
X173269047Y-79566666D01*
X173116666Y-80328571D02*
X173116666Y-80709523D01*
X172888095Y-80252380D02*
X173688095Y-80519047D01*
X172888095Y-80785714D01*
X173345238Y-81166666D02*
X173383333Y-81090476D01*
X173421428Y-81052380D01*
X173497619Y-81014285D01*
X173535714Y-81014285D01*
X173611904Y-81052380D01*
X173650000Y-81090476D01*
X173688095Y-81166666D01*
X173688095Y-81319047D01*
X173650000Y-81395238D01*
X173611904Y-81433333D01*
X173535714Y-81471428D01*
X173497619Y-81471428D01*
X173421428Y-81433333D01*
X173383333Y-81395238D01*
X173345238Y-81319047D01*
X173345238Y-81166666D01*
X173307142Y-81090476D01*
X173269047Y-81052380D01*
X173192857Y-81014285D01*
X173040476Y-81014285D01*
X172964285Y-81052380D01*
X172926190Y-81090476D01*
X172888095Y-81166666D01*
X172888095Y-81319047D01*
X172926190Y-81395238D01*
X172964285Y-81433333D01*
X173040476Y-81471428D01*
X173192857Y-81471428D01*
X173269047Y-81433333D01*
X173307142Y-81395238D01*
X173345238Y-81319047D01*
X171638095Y-79509523D02*
X172438095Y-79509523D01*
X172438095Y-79814285D01*
X172400000Y-79890476D01*
X172361904Y-79928571D01*
X172285714Y-79966666D01*
X172171428Y-79966666D01*
X172095238Y-79928571D01*
X172057142Y-79890476D01*
X172019047Y-79814285D01*
X172019047Y-79509523D01*
X171714285Y-80766666D02*
X171676190Y-80728571D01*
X171638095Y-80614285D01*
X171638095Y-80538095D01*
X171676190Y-80423809D01*
X171752380Y-80347619D01*
X171828571Y-80309523D01*
X171980952Y-80271428D01*
X172095238Y-80271428D01*
X172247619Y-80309523D01*
X172323809Y-80347619D01*
X172400000Y-80423809D01*
X172438095Y-80538095D01*
X172438095Y-80614285D01*
X172400000Y-80728571D01*
X172361904Y-80766666D01*
X171638095Y-81147619D02*
X171638095Y-81300000D01*
X171676190Y-81376190D01*
X171714285Y-81414285D01*
X171828571Y-81490476D01*
X171980952Y-81528571D01*
X172285714Y-81528571D01*
X172361904Y-81490476D01*
X172400000Y-81452380D01*
X172438095Y-81376190D01*
X172438095Y-81223809D01*
X172400000Y-81147619D01*
X172361904Y-81109523D01*
X172285714Y-81071428D01*
X172095238Y-81071428D01*
X172019047Y-81109523D01*
X171980952Y-81147619D01*
X171942857Y-81223809D01*
X171942857Y-81376190D01*
X171980952Y-81452380D01*
X172019047Y-81490476D01*
X172095238Y-81528571D01*
X170388095Y-79509523D02*
X171188095Y-79509523D01*
X171188095Y-79814285D01*
X171150000Y-79890476D01*
X171111904Y-79928571D01*
X171035714Y-79966666D01*
X170921428Y-79966666D01*
X170845238Y-79928571D01*
X170807142Y-79890476D01*
X170769047Y-79814285D01*
X170769047Y-79509523D01*
X170464285Y-80766666D02*
X170426190Y-80728571D01*
X170388095Y-80614285D01*
X170388095Y-80538095D01*
X170426190Y-80423809D01*
X170502380Y-80347619D01*
X170578571Y-80309523D01*
X170730952Y-80271428D01*
X170845238Y-80271428D01*
X170997619Y-80309523D01*
X171073809Y-80347619D01*
X171150000Y-80423809D01*
X171188095Y-80538095D01*
X171188095Y-80614285D01*
X171150000Y-80728571D01*
X171111904Y-80766666D01*
X170845238Y-81223809D02*
X170883333Y-81147619D01*
X170921428Y-81109523D01*
X170997619Y-81071428D01*
X171035714Y-81071428D01*
X171111904Y-81109523D01*
X171150000Y-81147619D01*
X171188095Y-81223809D01*
X171188095Y-81376190D01*
X171150000Y-81452380D01*
X171111904Y-81490476D01*
X171035714Y-81528571D01*
X170997619Y-81528571D01*
X170921428Y-81490476D01*
X170883333Y-81452380D01*
X170845238Y-81376190D01*
X170845238Y-81223809D01*
X170807142Y-81147619D01*
X170769047Y-81109523D01*
X170692857Y-81071428D01*
X170540476Y-81071428D01*
X170464285Y-81109523D01*
X170426190Y-81147619D01*
X170388095Y-81223809D01*
X170388095Y-81376190D01*
X170426190Y-81452380D01*
X170464285Y-81490476D01*
X170540476Y-81528571D01*
X170692857Y-81528571D01*
X170769047Y-81490476D01*
X170807142Y-81452380D01*
X170845238Y-81376190D01*
X169138095Y-79509523D02*
X169938095Y-79509523D01*
X169938095Y-79814285D01*
X169900000Y-79890476D01*
X169861904Y-79928571D01*
X169785714Y-79966666D01*
X169671428Y-79966666D01*
X169595238Y-79928571D01*
X169557142Y-79890476D01*
X169519047Y-79814285D01*
X169519047Y-79509523D01*
X169214285Y-80766666D02*
X169176190Y-80728571D01*
X169138095Y-80614285D01*
X169138095Y-80538095D01*
X169176190Y-80423809D01*
X169252380Y-80347619D01*
X169328571Y-80309523D01*
X169480952Y-80271428D01*
X169595238Y-80271428D01*
X169747619Y-80309523D01*
X169823809Y-80347619D01*
X169900000Y-80423809D01*
X169938095Y-80538095D01*
X169938095Y-80614285D01*
X169900000Y-80728571D01*
X169861904Y-80766666D01*
X169938095Y-81033333D02*
X169938095Y-81566666D01*
X169138095Y-81223809D01*
D12*
%TO.C,G\u002A\u002A\u002A*%
G36*
X116302099Y-71924826D02*
G01*
X117981180Y-72490909D01*
X121503864Y-77020280D01*
X122495051Y-78307705D01*
X123632970Y-79807595D01*
X124859608Y-81442105D01*
X126116952Y-83133392D01*
X127346990Y-84803613D01*
X128491709Y-86374923D01*
X128982902Y-87055944D01*
X129906102Y-88340606D01*
X130795856Y-89578327D01*
X131623279Y-90728958D01*
X132359489Y-91752347D01*
X132975601Y-92608344D01*
X133442731Y-93256800D01*
X133731996Y-93657562D01*
X133735228Y-93662027D01*
X134531201Y-94761817D01*
X133771766Y-95693435D01*
X133217340Y-96299171D01*
X132442137Y-97044777D01*
X131518062Y-97868784D01*
X130517019Y-98709723D01*
X129510911Y-99506126D01*
X128571642Y-100196524D01*
X128236427Y-100425464D01*
X127325355Y-100957770D01*
X126147743Y-101534416D01*
X124783877Y-102122871D01*
X123314045Y-102690601D01*
X121818533Y-103205072D01*
X120377629Y-103633751D01*
X120205954Y-103679525D01*
X119239566Y-103919674D01*
X118410235Y-104085309D01*
X117594752Y-104192674D01*
X116669909Y-104258014D01*
X115519580Y-104297401D01*
X113772526Y-104297842D01*
X112154551Y-104216144D01*
X111079021Y-104101320D01*
X108770254Y-103734874D01*
X106756059Y-103312390D01*
X104977961Y-102817314D01*
X104680569Y-102708756D01*
X106252227Y-102708756D01*
X106412418Y-102819161D01*
X106460839Y-102846185D01*
X106906828Y-103021652D01*
X107628573Y-103224910D01*
X108549523Y-103438164D01*
X109593127Y-103643623D01*
X110634965Y-103816362D01*
X112018526Y-103956058D01*
X113584742Y-104003691D01*
X115197130Y-103962297D01*
X116719207Y-103834908D01*
X117868196Y-103655581D01*
X121016014Y-102832874D01*
X124096052Y-101661681D01*
X127107283Y-100142435D01*
X129037201Y-98961934D01*
X129711229Y-98493122D01*
X130450880Y-97934254D01*
X131202220Y-97331627D01*
X131911316Y-96731539D01*
X132524234Y-96180288D01*
X132987038Y-95724171D01*
X133245795Y-95409487D01*
X133281818Y-95318296D01*
X133118259Y-95244872D01*
X132682506Y-95163786D01*
X132056944Y-95089093D01*
X131810239Y-95067212D01*
X130338660Y-94947809D01*
X129542365Y-95708869D01*
X128906982Y-96263871D01*
X128047416Y-96941600D01*
X127045118Y-97683709D01*
X125981537Y-98431852D01*
X124938121Y-99127682D01*
X123996321Y-99712851D01*
X123767532Y-99845725D01*
X122752670Y-100352505D01*
X121474779Y-100879398D01*
X120022455Y-101395936D01*
X118484296Y-101871652D01*
X116948898Y-102276078D01*
X116230070Y-102437797D01*
X115133181Y-102614469D01*
X113780679Y-102747481D01*
X112269882Y-102833632D01*
X110698110Y-102869719D01*
X109162682Y-102852539D01*
X107760918Y-102778890D01*
X107260140Y-102732975D01*
X106631357Y-102671998D01*
X106310296Y-102661813D01*
X106252227Y-102708756D01*
X104680569Y-102708756D01*
X103377489Y-102233090D01*
X101896169Y-101543164D01*
X101724031Y-101452691D01*
X100783838Y-100926019D01*
X99752278Y-100302845D01*
X98671348Y-99613222D01*
X97583047Y-98887201D01*
X96529372Y-98154834D01*
X95552321Y-97446173D01*
X94693892Y-96791271D01*
X93996085Y-96220177D01*
X93500896Y-95762946D01*
X93250324Y-95449628D01*
X93227972Y-95373309D01*
X93245969Y-95339628D01*
X93672028Y-95339628D01*
X93807956Y-95528866D01*
X94180011Y-95880654D01*
X94734599Y-96351970D01*
X95418126Y-96899791D01*
X96176999Y-97481093D01*
X96957623Y-98052852D01*
X97659066Y-98540278D01*
X100013291Y-99974975D01*
X102340771Y-101078760D01*
X104692926Y-101864722D01*
X107121175Y-102345950D01*
X109676937Y-102535535D01*
X112411634Y-102446566D01*
X112855245Y-102408646D01*
X114726696Y-102195485D01*
X116375245Y-101911866D01*
X117930408Y-101532037D01*
X119145204Y-101157979D01*
X121939938Y-100044416D01*
X124637936Y-98599734D01*
X127207043Y-96842140D01*
X128263335Y-95995364D01*
X129728068Y-94765812D01*
X129351641Y-94019270D01*
X129118690Y-93566299D01*
X128956762Y-93268044D01*
X128920860Y-93211341D01*
X128769866Y-93287658D01*
X128416291Y-93544673D01*
X127927700Y-93932394D01*
X127765196Y-94066473D01*
X126568709Y-95003706D01*
X125211500Y-95968527D01*
X123767040Y-96916020D01*
X122308804Y-97801272D01*
X120910264Y-98579366D01*
X119644892Y-99205389D01*
X118753338Y-99575522D01*
X116654149Y-100185810D01*
X114355982Y-100574675D01*
X111940270Y-100738794D01*
X109488444Y-100674847D01*
X107081937Y-100379513D01*
X105758084Y-100105491D01*
X104407486Y-99691014D01*
X102869181Y-99065444D01*
X101211329Y-98264129D01*
X99502087Y-97322413D01*
X97809614Y-96275643D01*
X96202069Y-95159166D01*
X96160017Y-95128042D01*
X94667155Y-94021152D01*
X94169591Y-94617153D01*
X93865557Y-95007870D01*
X93689556Y-95285410D01*
X93672028Y-95339628D01*
X93245969Y-95339628D01*
X93339178Y-95165193D01*
X93652084Y-94726312D01*
X94135624Y-94094264D01*
X94607015Y-93498418D01*
X95097430Y-93498418D01*
X95246701Y-93692257D01*
X95660150Y-94040104D01*
X96297228Y-94513380D01*
X97117384Y-95083504D01*
X98080067Y-95721898D01*
X99144728Y-96399979D01*
X99711189Y-96750212D01*
X101504235Y-97809400D01*
X103097225Y-98655552D01*
X104558196Y-99308708D01*
X105955187Y-99788906D01*
X107356238Y-100116185D01*
X108829387Y-100310584D01*
X110442672Y-100392140D01*
X112055944Y-100385955D01*
X113219994Y-100349618D01*
X114146201Y-100289953D01*
X114951865Y-100192065D01*
X115754289Y-100041058D01*
X116670775Y-99822038D01*
X116841158Y-99778313D01*
X118218119Y-99383612D01*
X119487620Y-98927290D01*
X120707468Y-98377255D01*
X121935470Y-97701417D01*
X123229434Y-96867685D01*
X124647168Y-95843969D01*
X126246479Y-94598178D01*
X126412870Y-94464772D01*
X127327728Y-93710178D01*
X127961563Y-93140748D01*
X128209436Y-92871802D01*
X129411737Y-92871802D01*
X129769111Y-93731739D01*
X130126484Y-94591675D01*
X131659745Y-94650571D01*
X132396899Y-94681635D01*
X133022582Y-94712990D01*
X133432573Y-94739242D01*
X133503846Y-94745992D01*
X133766575Y-94727093D01*
X133814685Y-94675996D01*
X133729462Y-94479598D01*
X133507452Y-94074102D01*
X133237412Y-93615299D01*
X132908334Y-93093791D01*
X132654153Y-92807846D01*
X132370951Y-92686070D01*
X131954808Y-92657069D01*
X131841224Y-92656087D01*
X131108974Y-92679801D01*
X130348546Y-92744753D01*
X130217023Y-92761426D01*
X129411737Y-92871802D01*
X128209436Y-92871802D01*
X128327984Y-92743177D01*
X128440601Y-92504163D01*
X128437716Y-92485543D01*
X128327387Y-92288526D01*
X128038128Y-91826525D01*
X127589639Y-91129083D01*
X127001617Y-90225741D01*
X126293763Y-89146041D01*
X125485775Y-87919527D01*
X124597352Y-86575740D01*
X123648193Y-85144222D01*
X122657996Y-83654516D01*
X121646461Y-82136163D01*
X120633287Y-80618707D01*
X119638171Y-79131689D01*
X118680814Y-77704652D01*
X117780913Y-76367137D01*
X116958168Y-75148688D01*
X116232278Y-74078845D01*
X115622942Y-73187153D01*
X115149858Y-72503151D01*
X114832725Y-72056384D01*
X114708218Y-71894596D01*
X115213197Y-71894596D01*
X115214133Y-71920425D01*
X115327020Y-72103520D01*
X115622825Y-72554157D01*
X116084141Y-73246507D01*
X116693557Y-74154738D01*
X117433664Y-75253022D01*
X118287053Y-76515527D01*
X119236314Y-77916425D01*
X120264038Y-79429884D01*
X121352816Y-81030075D01*
X121467942Y-81199097D01*
X122584651Y-82838845D01*
X123660336Y-84419156D01*
X124675114Y-85910772D01*
X125609107Y-87284433D01*
X126442434Y-88510881D01*
X127155215Y-89560858D01*
X127727570Y-90405106D01*
X128139618Y-91014364D01*
X128371480Y-91359376D01*
X128371623Y-91359591D01*
X129107692Y-92466035D01*
X130262238Y-92448715D01*
X130947718Y-92422278D01*
X131554378Y-92371243D01*
X131888082Y-92319194D01*
X132031955Y-92276025D01*
X132112933Y-92203158D01*
X132111075Y-92065091D01*
X132006442Y-91826321D01*
X131779091Y-91451343D01*
X131409082Y-90904655D01*
X130876475Y-90150753D01*
X130161328Y-89154134D01*
X129929561Y-88832168D01*
X127579801Y-85605940D01*
X125215942Y-82432349D01*
X122897375Y-79390024D01*
X120683492Y-76557589D01*
X120177048Y-75921168D01*
X119374868Y-74919145D01*
X118752529Y-74154509D01*
X118268478Y-73586831D01*
X117881160Y-73175680D01*
X117549021Y-72880627D01*
X117230504Y-72661242D01*
X116884056Y-72477096D01*
X116468122Y-72287759D01*
X116421244Y-72267043D01*
X115814965Y-72020243D01*
X115392334Y-71890365D01*
X115213197Y-71894596D01*
X114708218Y-71894596D01*
X114703565Y-71888550D01*
X114524960Y-71939479D01*
X114144501Y-72198271D01*
X113612376Y-72622438D01*
X112978772Y-73169495D01*
X112293876Y-73796956D01*
X111607875Y-74462335D01*
X111329796Y-74744633D01*
X110645399Y-75490446D01*
X109959623Y-76305944D01*
X109370642Y-77071318D01*
X109093407Y-77473939D01*
X108731969Y-77970563D01*
X108161900Y-78670716D01*
X107425234Y-79526205D01*
X106564008Y-80488835D01*
X105620256Y-81510412D01*
X105021550Y-82142402D01*
X104086548Y-83123251D01*
X103177413Y-84083511D01*
X102340268Y-84973971D01*
X101621235Y-85745420D01*
X101066435Y-86348647D01*
X100776923Y-86671242D01*
X100095156Y-87455064D01*
X99348028Y-88325664D01*
X98569625Y-89242069D01*
X97794033Y-90163304D01*
X97055339Y-91048395D01*
X96387629Y-91856368D01*
X95824989Y-92546248D01*
X95401506Y-93077060D01*
X95151266Y-93407831D01*
X95097430Y-93498418D01*
X94607015Y-93498418D01*
X94758733Y-93306644D01*
X95490343Y-92401051D01*
X96299388Y-91415081D01*
X97154803Y-90386333D01*
X98025520Y-89352402D01*
X98880473Y-88350887D01*
X99688596Y-87419385D01*
X100418823Y-86595492D01*
X101040088Y-85916807D01*
X101054543Y-85901398D01*
X102058549Y-84821734D01*
X103177843Y-83600550D01*
X104363481Y-82292681D01*
X105566517Y-80952964D01*
X106738007Y-79636233D01*
X107829006Y-78397325D01*
X108790569Y-77291075D01*
X109573751Y-76372318D01*
X109774308Y-76132168D01*
X110804012Y-74927290D01*
X111733165Y-73927255D01*
X112653454Y-73038172D01*
X113605915Y-72208381D01*
X114623019Y-71358744D01*
X116302099Y-71924826D01*
G37*
X116302099Y-71924826D02*
X117981180Y-72490909D01*
X121503864Y-77020280D01*
X122495051Y-78307705D01*
X123632970Y-79807595D01*
X124859608Y-81442105D01*
X126116952Y-83133392D01*
X127346990Y-84803613D01*
X128491709Y-86374923D01*
X128982902Y-87055944D01*
X129906102Y-88340606D01*
X130795856Y-89578327D01*
X131623279Y-90728958D01*
X132359489Y-91752347D01*
X132975601Y-92608344D01*
X133442731Y-93256800D01*
X133731996Y-93657562D01*
X133735228Y-93662027D01*
X134531201Y-94761817D01*
X133771766Y-95693435D01*
X133217340Y-96299171D01*
X132442137Y-97044777D01*
X131518062Y-97868784D01*
X130517019Y-98709723D01*
X129510911Y-99506126D01*
X128571642Y-100196524D01*
X128236427Y-100425464D01*
X127325355Y-100957770D01*
X126147743Y-101534416D01*
X124783877Y-102122871D01*
X123314045Y-102690601D01*
X121818533Y-103205072D01*
X120377629Y-103633751D01*
X120205954Y-103679525D01*
X119239566Y-103919674D01*
X118410235Y-104085309D01*
X117594752Y-104192674D01*
X116669909Y-104258014D01*
X115519580Y-104297401D01*
X113772526Y-104297842D01*
X112154551Y-104216144D01*
X111079021Y-104101320D01*
X108770254Y-103734874D01*
X106756059Y-103312390D01*
X104977961Y-102817314D01*
X104680569Y-102708756D01*
X106252227Y-102708756D01*
X106412418Y-102819161D01*
X106460839Y-102846185D01*
X106906828Y-103021652D01*
X107628573Y-103224910D01*
X108549523Y-103438164D01*
X109593127Y-103643623D01*
X110634965Y-103816362D01*
X112018526Y-103956058D01*
X113584742Y-104003691D01*
X115197130Y-103962297D01*
X116719207Y-103834908D01*
X117868196Y-103655581D01*
X121016014Y-102832874D01*
X124096052Y-101661681D01*
X127107283Y-100142435D01*
X129037201Y-98961934D01*
X129711229Y-98493122D01*
X130450880Y-97934254D01*
X131202220Y-97331627D01*
X131911316Y-96731539D01*
X132524234Y-96180288D01*
X132987038Y-95724171D01*
X133245795Y-95409487D01*
X133281818Y-95318296D01*
X133118259Y-95244872D01*
X132682506Y-95163786D01*
X132056944Y-95089093D01*
X131810239Y-95067212D01*
X130338660Y-94947809D01*
X129542365Y-95708869D01*
X128906982Y-96263871D01*
X128047416Y-96941600D01*
X127045118Y-97683709D01*
X125981537Y-98431852D01*
X124938121Y-99127682D01*
X123996321Y-99712851D01*
X123767532Y-99845725D01*
X122752670Y-100352505D01*
X121474779Y-100879398D01*
X120022455Y-101395936D01*
X118484296Y-101871652D01*
X116948898Y-102276078D01*
X116230070Y-102437797D01*
X115133181Y-102614469D01*
X113780679Y-102747481D01*
X112269882Y-102833632D01*
X110698110Y-102869719D01*
X109162682Y-102852539D01*
X107760918Y-102778890D01*
X107260140Y-102732975D01*
X106631357Y-102671998D01*
X106310296Y-102661813D01*
X106252227Y-102708756D01*
X104680569Y-102708756D01*
X103377489Y-102233090D01*
X101896169Y-101543164D01*
X101724031Y-101452691D01*
X100783838Y-100926019D01*
X99752278Y-100302845D01*
X98671348Y-99613222D01*
X97583047Y-98887201D01*
X96529372Y-98154834D01*
X95552321Y-97446173D01*
X94693892Y-96791271D01*
X93996085Y-96220177D01*
X93500896Y-95762946D01*
X93250324Y-95449628D01*
X93227972Y-95373309D01*
X93245969Y-95339628D01*
X93672028Y-95339628D01*
X93807956Y-95528866D01*
X94180011Y-95880654D01*
X94734599Y-96351970D01*
X95418126Y-96899791D01*
X96176999Y-97481093D01*
X96957623Y-98052852D01*
X97659066Y-98540278D01*
X100013291Y-99974975D01*
X102340771Y-101078760D01*
X104692926Y-101864722D01*
X107121175Y-102345950D01*
X109676937Y-102535535D01*
X112411634Y-102446566D01*
X112855245Y-102408646D01*
X114726696Y-102195485D01*
X116375245Y-101911866D01*
X117930408Y-101532037D01*
X119145204Y-101157979D01*
X121939938Y-100044416D01*
X124637936Y-98599734D01*
X127207043Y-96842140D01*
X128263335Y-95995364D01*
X129728068Y-94765812D01*
X129351641Y-94019270D01*
X129118690Y-93566299D01*
X128956762Y-93268044D01*
X128920860Y-93211341D01*
X128769866Y-93287658D01*
X128416291Y-93544673D01*
X127927700Y-93932394D01*
X127765196Y-94066473D01*
X126568709Y-95003706D01*
X125211500Y-95968527D01*
X123767040Y-96916020D01*
X122308804Y-97801272D01*
X120910264Y-98579366D01*
X119644892Y-99205389D01*
X118753338Y-99575522D01*
X116654149Y-100185810D01*
X114355982Y-100574675D01*
X111940270Y-100738794D01*
X109488444Y-100674847D01*
X107081937Y-100379513D01*
X105758084Y-100105491D01*
X104407486Y-99691014D01*
X102869181Y-99065444D01*
X101211329Y-98264129D01*
X99502087Y-97322413D01*
X97809614Y-96275643D01*
X96202069Y-95159166D01*
X96160017Y-95128042D01*
X94667155Y-94021152D01*
X94169591Y-94617153D01*
X93865557Y-95007870D01*
X93689556Y-95285410D01*
X93672028Y-95339628D01*
X93245969Y-95339628D01*
X93339178Y-95165193D01*
X93652084Y-94726312D01*
X94135624Y-94094264D01*
X94607015Y-93498418D01*
X95097430Y-93498418D01*
X95246701Y-93692257D01*
X95660150Y-94040104D01*
X96297228Y-94513380D01*
X97117384Y-95083504D01*
X98080067Y-95721898D01*
X99144728Y-96399979D01*
X99711189Y-96750212D01*
X101504235Y-97809400D01*
X103097225Y-98655552D01*
X104558196Y-99308708D01*
X105955187Y-99788906D01*
X107356238Y-100116185D01*
X108829387Y-100310584D01*
X110442672Y-100392140D01*
X112055944Y-100385955D01*
X113219994Y-100349618D01*
X114146201Y-100289953D01*
X114951865Y-100192065D01*
X115754289Y-100041058D01*
X116670775Y-99822038D01*
X116841158Y-99778313D01*
X118218119Y-99383612D01*
X119487620Y-98927290D01*
X120707468Y-98377255D01*
X121935470Y-97701417D01*
X123229434Y-96867685D01*
X124647168Y-95843969D01*
X126246479Y-94598178D01*
X126412870Y-94464772D01*
X127327728Y-93710178D01*
X127961563Y-93140748D01*
X128209436Y-92871802D01*
X129411737Y-92871802D01*
X129769111Y-93731739D01*
X130126484Y-94591675D01*
X131659745Y-94650571D01*
X132396899Y-94681635D01*
X133022582Y-94712990D01*
X133432573Y-94739242D01*
X133503846Y-94745992D01*
X133766575Y-94727093D01*
X133814685Y-94675996D01*
X133729462Y-94479598D01*
X133507452Y-94074102D01*
X133237412Y-93615299D01*
X132908334Y-93093791D01*
X132654153Y-92807846D01*
X132370951Y-92686070D01*
X131954808Y-92657069D01*
X131841224Y-92656087D01*
X131108974Y-92679801D01*
X130348546Y-92744753D01*
X130217023Y-92761426D01*
X129411737Y-92871802D01*
X128209436Y-92871802D01*
X128327984Y-92743177D01*
X128440601Y-92504163D01*
X128437716Y-92485543D01*
X128327387Y-92288526D01*
X128038128Y-91826525D01*
X127589639Y-91129083D01*
X127001617Y-90225741D01*
X126293763Y-89146041D01*
X125485775Y-87919527D01*
X124597352Y-86575740D01*
X123648193Y-85144222D01*
X122657996Y-83654516D01*
X121646461Y-82136163D01*
X120633287Y-80618707D01*
X119638171Y-79131689D01*
X118680814Y-77704652D01*
X117780913Y-76367137D01*
X116958168Y-75148688D01*
X116232278Y-74078845D01*
X115622942Y-73187153D01*
X115149858Y-72503151D01*
X114832725Y-72056384D01*
X114708218Y-71894596D01*
X115213197Y-71894596D01*
X115214133Y-71920425D01*
X115327020Y-72103520D01*
X115622825Y-72554157D01*
X116084141Y-73246507D01*
X116693557Y-74154738D01*
X117433664Y-75253022D01*
X118287053Y-76515527D01*
X119236314Y-77916425D01*
X120264038Y-79429884D01*
X121352816Y-81030075D01*
X121467942Y-81199097D01*
X122584651Y-82838845D01*
X123660336Y-84419156D01*
X124675114Y-85910772D01*
X125609107Y-87284433D01*
X126442434Y-88510881D01*
X127155215Y-89560858D01*
X127727570Y-90405106D01*
X128139618Y-91014364D01*
X128371480Y-91359376D01*
X128371623Y-91359591D01*
X129107692Y-92466035D01*
X130262238Y-92448715D01*
X130947718Y-92422278D01*
X131554378Y-92371243D01*
X131888082Y-92319194D01*
X132031955Y-92276025D01*
X132112933Y-92203158D01*
X132111075Y-92065091D01*
X132006442Y-91826321D01*
X131779091Y-91451343D01*
X131409082Y-90904655D01*
X130876475Y-90150753D01*
X130161328Y-89154134D01*
X129929561Y-88832168D01*
X127579801Y-85605940D01*
X125215942Y-82432349D01*
X122897375Y-79390024D01*
X120683492Y-76557589D01*
X120177048Y-75921168D01*
X119374868Y-74919145D01*
X118752529Y-74154509D01*
X118268478Y-73586831D01*
X117881160Y-73175680D01*
X117549021Y-72880627D01*
X117230504Y-72661242D01*
X116884056Y-72477096D01*
X116468122Y-72287759D01*
X116421244Y-72267043D01*
X115814965Y-72020243D01*
X115392334Y-71890365D01*
X115213197Y-71894596D01*
X114708218Y-71894596D01*
X114703565Y-71888550D01*
X114524960Y-71939479D01*
X114144501Y-72198271D01*
X113612376Y-72622438D01*
X112978772Y-73169495D01*
X112293876Y-73796956D01*
X111607875Y-74462335D01*
X111329796Y-74744633D01*
X110645399Y-75490446D01*
X109959623Y-76305944D01*
X109370642Y-77071318D01*
X109093407Y-77473939D01*
X108731969Y-77970563D01*
X108161900Y-78670716D01*
X107425234Y-79526205D01*
X106564008Y-80488835D01*
X105620256Y-81510412D01*
X105021550Y-82142402D01*
X104086548Y-83123251D01*
X103177413Y-84083511D01*
X102340268Y-84973971D01*
X101621235Y-85745420D01*
X101066435Y-86348647D01*
X100776923Y-86671242D01*
X100095156Y-87455064D01*
X99348028Y-88325664D01*
X98569625Y-89242069D01*
X97794033Y-90163304D01*
X97055339Y-91048395D01*
X96387629Y-91856368D01*
X95824989Y-92546248D01*
X95401506Y-93077060D01*
X95151266Y-93407831D01*
X95097430Y-93498418D01*
X94607015Y-93498418D01*
X94758733Y-93306644D01*
X95490343Y-92401051D01*
X96299388Y-91415081D01*
X97154803Y-90386333D01*
X98025520Y-89352402D01*
X98880473Y-88350887D01*
X99688596Y-87419385D01*
X100418823Y-86595492D01*
X101040088Y-85916807D01*
X101054543Y-85901398D01*
X102058549Y-84821734D01*
X103177843Y-83600550D01*
X104363481Y-82292681D01*
X105566517Y-80952964D01*
X106738007Y-79636233D01*
X107829006Y-78397325D01*
X108790569Y-77291075D01*
X109573751Y-76372318D01*
X109774308Y-76132168D01*
X110804012Y-74927290D01*
X111733165Y-73927255D01*
X112653454Y-73038172D01*
X113605915Y-72208381D01*
X114623019Y-71358744D01*
X116302099Y-71924826D01*
G36*
X110117767Y-91732147D02*
G01*
X110263844Y-92197191D01*
X110343924Y-92880108D01*
X110350826Y-93055095D01*
X110321713Y-93524585D01*
X110155974Y-93777115D01*
X109912912Y-93898802D01*
X109569809Y-94018713D01*
X109424451Y-94051423D01*
X109249877Y-93995605D01*
X109080769Y-93949588D01*
X108821037Y-93782522D01*
X108777511Y-93659353D01*
X108862197Y-93353202D01*
X109065035Y-92894424D01*
X109330512Y-92384912D01*
X109603114Y-91926561D01*
X109827327Y-91621266D01*
X109925015Y-91553134D01*
X110117767Y-91732147D01*
G37*
X110117767Y-91732147D02*
X110263844Y-92197191D01*
X110343924Y-92880108D01*
X110350826Y-93055095D01*
X110321713Y-93524585D01*
X110155974Y-93777115D01*
X109912912Y-93898802D01*
X109569809Y-94018713D01*
X109424451Y-94051423D01*
X109249877Y-93995605D01*
X109080769Y-93949588D01*
X108821037Y-93782522D01*
X108777511Y-93659353D01*
X108862197Y-93353202D01*
X109065035Y-92894424D01*
X109330512Y-92384912D01*
X109603114Y-91926561D01*
X109827327Y-91621266D01*
X109925015Y-91553134D01*
X110117767Y-91732147D01*
G36*
X115922498Y-90247148D02*
G01*
X116074950Y-90691653D01*
X116172964Y-91233041D01*
X116193184Y-91742172D01*
X116112257Y-92089907D01*
X116111846Y-92090566D01*
X115816507Y-92324605D01*
X115388993Y-92438672D01*
X114973646Y-92418951D01*
X114714808Y-92251624D01*
X114702783Y-92225447D01*
X114710293Y-91921523D01*
X114847671Y-91458660D01*
X115067427Y-90937541D01*
X115322070Y-90458848D01*
X115564111Y-90123265D01*
X115738962Y-90028665D01*
X115922498Y-90247148D01*
G37*
X115922498Y-90247148D02*
X116074950Y-90691653D01*
X116172964Y-91233041D01*
X116193184Y-91742172D01*
X116112257Y-92089907D01*
X116111846Y-92090566D01*
X115816507Y-92324605D01*
X115388993Y-92438672D01*
X114973646Y-92418951D01*
X114714808Y-92251624D01*
X114702783Y-92225447D01*
X114710293Y-91921523D01*
X114847671Y-91458660D01*
X115067427Y-90937541D01*
X115322070Y-90458848D01*
X115564111Y-90123265D01*
X115738962Y-90028665D01*
X115922498Y-90247148D01*
G36*
X105359443Y-88880510D02*
G01*
X105463696Y-89258808D01*
X105537324Y-89917445D01*
X105559558Y-90567667D01*
X105485410Y-90940045D01*
X105374298Y-91069066D01*
X104998275Y-91195123D01*
X104542234Y-91218658D01*
X104172024Y-91141107D01*
X104066206Y-91057738D01*
X104072055Y-90801677D01*
X104207319Y-90350954D01*
X104424273Y-89818836D01*
X104675193Y-89318592D01*
X104912356Y-88963489D01*
X104974808Y-88901260D01*
X105204213Y-88775295D01*
X105359443Y-88880510D01*
G37*
X105359443Y-88880510D02*
X105463696Y-89258808D01*
X105537324Y-89917445D01*
X105559558Y-90567667D01*
X105485410Y-90940045D01*
X105374298Y-91069066D01*
X104998275Y-91195123D01*
X104542234Y-91218658D01*
X104172024Y-91141107D01*
X104066206Y-91057738D01*
X104072055Y-90801677D01*
X104207319Y-90350954D01*
X104424273Y-89818836D01*
X104675193Y-89318592D01*
X104912356Y-88963489D01*
X104974808Y-88901260D01*
X105204213Y-88775295D01*
X105359443Y-88880510D01*
G36*
X118885062Y-85514571D02*
G01*
X118957986Y-85679371D01*
X119160448Y-86601700D01*
X119161566Y-87251742D01*
X118953272Y-87655276D01*
X118527497Y-87838081D01*
X118276960Y-87855245D01*
X117842704Y-87815736D01*
X117590199Y-87719354D01*
X117580249Y-87706766D01*
X117601486Y-87476454D01*
X117752060Y-87046740D01*
X117983197Y-86519719D01*
X118246125Y-85997486D01*
X118492071Y-85582136D01*
X118672262Y-85375763D01*
X118697271Y-85368531D01*
X118885062Y-85514571D01*
G37*
X118885062Y-85514571D02*
X118957986Y-85679371D01*
X119160448Y-86601700D01*
X119161566Y-87251742D01*
X118953272Y-87655276D01*
X118527497Y-87838081D01*
X118276960Y-87855245D01*
X117842704Y-87815736D01*
X117590199Y-87719354D01*
X117580249Y-87706766D01*
X117601486Y-87476454D01*
X117752060Y-87046740D01*
X117983197Y-86519719D01*
X118246125Y-85997486D01*
X118492071Y-85582136D01*
X118672262Y-85375763D01*
X118697271Y-85368531D01*
X118885062Y-85514571D01*
G36*
X110685969Y-84459112D02*
G01*
X110849672Y-84850015D01*
X110990203Y-85358437D01*
X111070781Y-85867315D01*
X111078030Y-86028366D01*
X110940231Y-86394119D01*
X110601724Y-86659669D01*
X110177900Y-86789521D01*
X109784149Y-86748179D01*
X109536752Y-86502488D01*
X109552779Y-86213100D01*
X109696161Y-85749957D01*
X109918014Y-85220683D01*
X110169453Y-84732902D01*
X110401594Y-84394238D01*
X110535875Y-84302797D01*
X110685969Y-84459112D01*
G37*
X110685969Y-84459112D02*
X110849672Y-84850015D01*
X110990203Y-85358437D01*
X111070781Y-85867315D01*
X111078030Y-86028366D01*
X110940231Y-86394119D01*
X110601724Y-86659669D01*
X110177900Y-86789521D01*
X109784149Y-86748179D01*
X109536752Y-86502488D01*
X109552779Y-86213100D01*
X109696161Y-85749957D01*
X109918014Y-85220683D01*
X110169453Y-84732902D01*
X110401594Y-84394238D01*
X110535875Y-84302797D01*
X110685969Y-84459112D01*
G36*
X106577436Y-82834784D02*
G01*
X106696599Y-83281073D01*
X106740123Y-83527275D01*
X106788414Y-84094278D01*
X106710050Y-84407917D01*
X106617169Y-84497338D01*
X106225081Y-84631725D01*
X105796630Y-84635622D01*
X105505461Y-84510605D01*
X105488032Y-84487079D01*
X105497898Y-84249404D01*
X105640469Y-83845386D01*
X105862449Y-83378113D01*
X106110546Y-82950675D01*
X106331465Y-82666161D01*
X106456900Y-82612950D01*
X106577436Y-82834784D01*
G37*
X106577436Y-82834784D02*
X106696599Y-83281073D01*
X106740123Y-83527275D01*
X106788414Y-84094278D01*
X106710050Y-84407917D01*
X106617169Y-84497338D01*
X106225081Y-84631725D01*
X105796630Y-84635622D01*
X105505461Y-84510605D01*
X105488032Y-84487079D01*
X105497898Y-84249404D01*
X105640469Y-83845386D01*
X105862449Y-83378113D01*
X106110546Y-82950675D01*
X106331465Y-82666161D01*
X106456900Y-82612950D01*
X106577436Y-82834784D01*
G36*
X115634112Y-81969814D02*
G01*
X115748955Y-82335861D01*
X115819818Y-82771508D01*
X115818565Y-83134041D01*
X115784146Y-83240084D01*
X115576979Y-83347024D01*
X115214812Y-83407455D01*
X114851756Y-83410853D01*
X114641925Y-83346696D01*
X114631468Y-83318798D01*
X114713117Y-83061455D01*
X114911710Y-82663010D01*
X115157718Y-82243288D01*
X115381613Y-81922113D01*
X115503422Y-81816084D01*
X115634112Y-81969814D01*
G37*
X115634112Y-81969814D02*
X115748955Y-82335861D01*
X115819818Y-82771508D01*
X115818565Y-83134041D01*
X115784146Y-83240084D01*
X115576979Y-83347024D01*
X115214812Y-83407455D01*
X114851756Y-83410853D01*
X114641925Y-83346696D01*
X114631468Y-83318798D01*
X114713117Y-83061455D01*
X114911710Y-82663010D01*
X115157718Y-82243288D01*
X115381613Y-81922113D01*
X115503422Y-81816084D01*
X115634112Y-81969814D01*
G36*
X111272995Y-79602450D02*
G01*
X111374998Y-80031254D01*
X111421781Y-80528322D01*
X111396187Y-80925390D01*
X111226135Y-81080679D01*
X110882143Y-81105594D01*
X110506254Y-81076412D01*
X110397266Y-80922962D01*
X110450116Y-80617133D01*
X110645654Y-80081832D01*
X110853452Y-79691261D01*
X111060479Y-79401816D01*
X111176221Y-79396444D01*
X111272995Y-79602450D01*
G37*
X111272995Y-79602450D02*
X111374998Y-80031254D01*
X111421781Y-80528322D01*
X111396187Y-80925390D01*
X111226135Y-81080679D01*
X110882143Y-81105594D01*
X110506254Y-81076412D01*
X110397266Y-80922962D01*
X110450116Y-80617133D01*
X110645654Y-80081832D01*
X110853452Y-79691261D01*
X111060479Y-79401816D01*
X111176221Y-79396444D01*
X111272995Y-79602450D01*
G36*
X114792860Y-76305620D02*
G01*
X114871900Y-76851497D01*
X114876534Y-76963388D01*
X114866190Y-77408088D01*
X114740071Y-77611984D01*
X114412499Y-77688240D01*
X114320629Y-77697617D01*
X113928765Y-77708132D01*
X113745243Y-77659350D01*
X113743356Y-77651276D01*
X113812904Y-77444672D01*
X113990405Y-77030175D01*
X114123267Y-76741051D01*
X114409991Y-76247873D01*
X114636040Y-76103571D01*
X114792860Y-76305620D01*
G37*
X114792860Y-76305620D02*
X114871900Y-76851497D01*
X114876534Y-76963388D01*
X114866190Y-77408088D01*
X114740071Y-77611984D01*
X114412499Y-77688240D01*
X114320629Y-77697617D01*
X113928765Y-77708132D01*
X113745243Y-77659350D01*
X113743356Y-77651276D01*
X113812904Y-77444672D01*
X113990405Y-77030175D01*
X114123267Y-76741051D01*
X114409991Y-76247873D01*
X114636040Y-76103571D01*
X114792860Y-76305620D01*
G36*
X124960477Y-84252192D02*
G01*
X125202053Y-84542436D01*
X125477299Y-84956310D01*
X125720059Y-85398588D01*
X125812858Y-85611766D01*
X125933186Y-85974145D01*
X125890104Y-86042889D01*
X125660420Y-85823568D01*
X125531293Y-85679371D01*
X125247015Y-85288545D01*
X124995792Y-84833760D01*
X124832188Y-84429765D01*
X124810767Y-84191312D01*
X124818728Y-84180806D01*
X124960477Y-84252192D01*
G37*
X124960477Y-84252192D02*
X125202053Y-84542436D01*
X125477299Y-84956310D01*
X125720059Y-85398588D01*
X125812858Y-85611766D01*
X125933186Y-85974145D01*
X125890104Y-86042889D01*
X125660420Y-85823568D01*
X125531293Y-85679371D01*
X125247015Y-85288545D01*
X124995792Y-84833760D01*
X124832188Y-84429765D01*
X124810767Y-84191312D01*
X124818728Y-84180806D01*
X124960477Y-84252192D01*
G36*
X122883688Y-80306294D02*
G01*
X123143102Y-80671034D01*
X123390423Y-81104003D01*
X123575861Y-81503062D01*
X123649622Y-81766072D01*
X123619688Y-81816084D01*
X123475965Y-81701433D01*
X123280457Y-81498744D01*
X123030577Y-81129458D01*
X122770371Y-80610843D01*
X122714911Y-80477415D01*
X122436553Y-79773426D01*
X122883688Y-80306294D01*
G37*
X122883688Y-80306294D02*
X123143102Y-80671034D01*
X123390423Y-81104003D01*
X123575861Y-81503062D01*
X123649622Y-81766072D01*
X123619688Y-81816084D01*
X123475965Y-81701433D01*
X123280457Y-81498744D01*
X123030577Y-81129458D01*
X122770371Y-80610843D01*
X122714911Y-80477415D01*
X122436553Y-79773426D01*
X122883688Y-80306294D01*
G36*
X119949206Y-77366816D02*
G01*
X120170996Y-77707298D01*
X120386568Y-78085124D01*
X120678895Y-78648694D01*
X120781668Y-78922291D01*
X120695866Y-78915768D01*
X120444088Y-78662962D01*
X120214240Y-78331077D01*
X119998341Y-77903323D01*
X119851752Y-77507666D01*
X119829834Y-77272073D01*
X119837645Y-77261189D01*
X119949206Y-77366816D01*
G37*
X119949206Y-77366816D02*
X120170996Y-77707298D01*
X120386568Y-78085124D01*
X120678895Y-78648694D01*
X120781668Y-78922291D01*
X120695866Y-78915768D01*
X120444088Y-78662962D01*
X120214240Y-78331077D01*
X119998341Y-77903323D01*
X119851752Y-77507666D01*
X119829834Y-77272073D01*
X119837645Y-77261189D01*
X119949206Y-77366816D01*
D13*
%TO.C,U1*%
X129000000Y-62150000D02*
X128600000Y-62150000D01*
X128600000Y-62150000D02*
X128600000Y-61750000D01*
X129000000Y-57850000D02*
X128600000Y-57850000D01*
X128600000Y-57850000D02*
X128600000Y-58250000D01*
X132500000Y-57850000D02*
X132900000Y-57850000D01*
X132900000Y-57850000D02*
X132900000Y-58250000D01*
X132500000Y-62150000D02*
X133150000Y-62150000D01*
D10*
%TO.C,J5*%
X199950000Y-75500000D02*
X199950000Y-66500000D01*
D13*
%TO.C,J9*%
X168740000Y-79110000D02*
X168740000Y-78000000D01*
X169500000Y-79110000D02*
X168740000Y-79110000D01*
X170260000Y-77436529D02*
X170260000Y-76890000D01*
X170260000Y-79110000D02*
X170260000Y-78563471D01*
X170260000Y-76890000D02*
X174005000Y-76890000D01*
X170260000Y-79110000D02*
X174005000Y-79110000D01*
X174005000Y-77692470D02*
X174005000Y-76890000D01*
X174005000Y-79110000D02*
X174005000Y-78307530D01*
%TO.C,C35*%
X164600000Y-67000000D02*
X164600000Y-66000000D01*
X162900000Y-66000000D02*
X162900000Y-67000000D01*
%TO.C,C34*%
X137850000Y-65500000D02*
X137850000Y-64500000D01*
X136150000Y-64500000D02*
X136150000Y-65500000D01*
%TO.C,C33*%
X135650000Y-57000000D02*
X135650000Y-58000000D01*
X137350000Y-58000000D02*
X137350000Y-57000000D01*
%TO.C,U5*%
X189300000Y-72935000D02*
X191750000Y-72935000D01*
X191100000Y-69715000D02*
X189300000Y-69715000D01*
%TO.C,J6*%
X174330000Y-53670000D02*
X174330000Y-55000000D01*
X173000000Y-53670000D02*
X174330000Y-53670000D01*
X174330000Y-56270000D02*
X174330000Y-58870000D01*
X171730000Y-56270000D02*
X174330000Y-56270000D01*
X171730000Y-53670000D02*
X171730000Y-56270000D01*
X174330000Y-58870000D02*
X161510000Y-58870000D01*
X171730000Y-53670000D02*
X161510000Y-53670000D01*
X161510000Y-53670000D02*
X161510000Y-58870000D01*
%TO.C,C27*%
X162400000Y-91600000D02*
X162400000Y-90900000D01*
X163600000Y-90900000D02*
X163600000Y-91600000D01*
%TO.C,C26*%
X170350000Y-84400000D02*
X170350000Y-85100000D01*
X169150000Y-85100000D02*
X169150000Y-84400000D01*
%TO.C,C1*%
X132450000Y-55600000D02*
X133150000Y-55600000D01*
X133150000Y-56800000D02*
X132450000Y-56800000D01*
%TO.C,U3*%
X185100000Y-84410000D02*
X179090000Y-84410000D01*
X182850000Y-77590000D02*
X179090000Y-77590000D01*
X179090000Y-84410000D02*
X179090000Y-83150000D01*
X179090000Y-77590000D02*
X179090000Y-78850000D01*
D10*
%TO.C,U2*%
X146825000Y-69325000D02*
X145800000Y-69325000D01*
X157175000Y-68325000D02*
X156100000Y-68325000D01*
X157175000Y-78675000D02*
X156100000Y-78675000D01*
X146825000Y-78675000D02*
X147900000Y-78675000D01*
X146825000Y-68325000D02*
X147900000Y-68325000D01*
X146825000Y-78675000D02*
X146825000Y-77600000D01*
X157175000Y-78675000D02*
X157175000Y-77600000D01*
X157175000Y-68325000D02*
X157175000Y-69400000D01*
X146825000Y-68325000D02*
X146825000Y-69325000D01*
D13*
%TO.C,R10*%
X143000000Y-71920000D02*
X144000000Y-71920000D01*
X144000000Y-73280000D02*
X143000000Y-73280000D01*
%TO.C,R9*%
X162280000Y-89000000D02*
X162280000Y-88500000D01*
X161220000Y-88500000D02*
X161220000Y-89000000D01*
%TO.C,R8*%
X162720000Y-86500000D02*
X162720000Y-87000000D01*
X163780000Y-87000000D02*
X163780000Y-86500000D01*
%TO.C,R7*%
X177700000Y-77280000D02*
X178200000Y-77280000D01*
X178200000Y-76220000D02*
X177700000Y-76220000D01*
%TO.C,R6*%
X136530000Y-79250000D02*
X136530000Y-78750000D01*
X135470000Y-78750000D02*
X135470000Y-79250000D01*
%TO.C,R5*%
X138030000Y-79250000D02*
X138030000Y-78750000D01*
X136970000Y-78750000D02*
X136970000Y-79250000D01*
%TO.C,R4*%
X140030000Y-64500000D02*
X140030000Y-64000000D01*
X138970000Y-64000000D02*
X138970000Y-64500000D01*
%TO.C,R3*%
X138970000Y-60500000D02*
X138970000Y-61000000D01*
X140030000Y-61000000D02*
X140030000Y-60500000D01*
%TO.C,R2*%
X153530000Y-81750000D02*
X153530000Y-81250000D01*
X152470000Y-81250000D02*
X152470000Y-81750000D01*
%TO.C,R1*%
X147500000Y-59220000D02*
X147000000Y-59220000D01*
X147000000Y-60280000D02*
X147500000Y-60280000D01*
%TO.C,J8*%
X196900000Y-89900000D02*
X198100000Y-89900000D01*
X198100000Y-89900000D02*
X198100000Y-90400000D01*
X198100000Y-90400000D02*
X200600000Y-90400000D01*
X200600000Y-90400000D02*
X200600000Y-95600000D01*
X200600000Y-95600000D02*
X198100000Y-95600000D01*
X198100000Y-95600000D02*
X198100000Y-96100000D01*
X198100000Y-96100000D02*
X194900000Y-96100000D01*
X192300000Y-96100000D02*
X183400000Y-96100000D01*
X183400000Y-96100000D02*
X183400000Y-89900000D01*
X183400000Y-89900000D02*
X184600000Y-89900000D01*
X187800000Y-89900000D02*
X194300000Y-89900000D01*
X196900000Y-89900000D02*
X196900000Y-87900000D01*
X194300000Y-89900000D02*
X194300000Y-87900000D01*
%TO.C,J7*%
X196900000Y-101900000D02*
X198100000Y-101900000D01*
X198100000Y-101900000D02*
X198100000Y-102400000D01*
X198100000Y-102400000D02*
X200600000Y-102400000D01*
X200600000Y-102400000D02*
X200600000Y-107600000D01*
X200600000Y-107600000D02*
X198100000Y-107600000D01*
X198100000Y-107600000D02*
X198100000Y-108100000D01*
X198100000Y-108100000D02*
X194900000Y-108100000D01*
X192300000Y-108100000D02*
X183400000Y-108100000D01*
X183400000Y-108100000D02*
X183400000Y-101900000D01*
X183400000Y-101900000D02*
X184600000Y-101900000D01*
X187800000Y-101900000D02*
X194300000Y-101900000D01*
X196900000Y-101900000D02*
X196900000Y-99900000D01*
X194300000Y-101900000D02*
X194300000Y-99900000D01*
%TO.C,J4*%
X195170000Y-81170000D02*
X196500000Y-81170000D01*
X195170000Y-82500000D02*
X195170000Y-81170000D01*
X195170000Y-83770000D02*
X197830000Y-83770000D01*
X197830000Y-83770000D02*
X197830000Y-86370000D01*
X195170000Y-83770000D02*
X195170000Y-86370000D01*
X195170000Y-86370000D02*
X197830000Y-86370000D01*
%TO.C,J2*%
X143170000Y-58830000D02*
X143170000Y-57500000D01*
X144500000Y-58830000D02*
X143170000Y-58830000D01*
X143170000Y-56230000D02*
X143170000Y-53630000D01*
X145770000Y-56230000D02*
X143170000Y-56230000D01*
X145770000Y-58830000D02*
X145770000Y-56230000D01*
X143170000Y-53630000D02*
X148370000Y-53630000D01*
X145770000Y-58830000D02*
X148370000Y-58830000D01*
X148370000Y-58830000D02*
X148370000Y-53630000D01*
%TO.C,J1*%
X160330000Y-53670000D02*
X160330000Y-55000000D01*
X159000000Y-53670000D02*
X160330000Y-53670000D01*
X157730000Y-53670000D02*
X157730000Y-56330000D01*
X157730000Y-56330000D02*
X150050000Y-56330000D01*
X157730000Y-53670000D02*
X150050000Y-53670000D01*
X150050000Y-53670000D02*
X150050000Y-56330000D01*
%TO.C,HSE1*%
X137850000Y-69750000D02*
X137850000Y-73750000D01*
X141150000Y-69750000D02*
X137850000Y-69750000D01*
%TO.C,FB3*%
X186440000Y-79899622D02*
X186440000Y-79100378D01*
X187560000Y-79899622D02*
X187560000Y-79100378D01*
%TO.C,F1*%
X190500000Y-85570000D02*
X188500000Y-85570000D01*
X188500000Y-83430000D02*
X190500000Y-83430000D01*
%TO.C,D5*%
X182100000Y-77100000D02*
X180000000Y-77100000D01*
X182100000Y-76100000D02*
X180000000Y-76100000D01*
X182100000Y-77100000D02*
X182100000Y-76100000D01*
%TO.C,D4*%
X189000000Y-80750000D02*
X189000000Y-76850000D01*
X191000000Y-80750000D02*
X191000000Y-76850000D01*
X189000000Y-80750000D02*
X191000000Y-80750000D01*
%TO.C,D3*%
X191750000Y-78000000D02*
X195650000Y-78000000D01*
X191750000Y-80000000D02*
X195650000Y-80000000D01*
X191750000Y-78000000D02*
X191750000Y-80000000D01*
%TO.C,D2*%
X135500000Y-82800000D02*
X135500000Y-80700000D01*
X136500000Y-82800000D02*
X136500000Y-80700000D01*
X135500000Y-82800000D02*
X136500000Y-82800000D01*
%TO.C,D1*%
X137000000Y-82800000D02*
X137000000Y-80700000D01*
X138000000Y-82800000D02*
X138000000Y-80700000D01*
X137000000Y-82800000D02*
X138000000Y-82800000D01*
%TO.C,C32*%
X170150000Y-93850000D02*
X170150000Y-93150000D01*
X171350000Y-93150000D02*
X171350000Y-93850000D01*
%TO.C,C31*%
X164650000Y-92900000D02*
X165350000Y-92900000D01*
X165350000Y-94100000D02*
X164650000Y-94100000D01*
%TO.C,C30*%
X139750000Y-74030000D02*
X139250000Y-74030000D01*
X139250000Y-74970000D02*
X139750000Y-74970000D01*
%TO.C,C29*%
X172600000Y-86150000D02*
X172600000Y-86850000D01*
X171400000Y-86850000D02*
X171400000Y-86150000D01*
%TO.C,C28*%
X139250000Y-69470000D02*
X139750000Y-69470000D01*
X139750000Y-68530000D02*
X139250000Y-68530000D01*
%TO.C,C25*%
X181250000Y-102400000D02*
X180250000Y-102400000D01*
X180250000Y-104100000D02*
X181250000Y-104100000D01*
%TO.C,C24*%
X181250000Y-99650000D02*
X180250000Y-99650000D01*
X180250000Y-101350000D02*
X181250000Y-101350000D01*
%TO.C,C23*%
X148050000Y-83600000D02*
X147350000Y-83600000D01*
X147350000Y-82400000D02*
X148050000Y-82400000D01*
%TO.C,C22*%
X181150000Y-87400000D02*
X181850000Y-87400000D01*
X181850000Y-88600000D02*
X181150000Y-88600000D01*
%TO.C,C21*%
X181150000Y-90400000D02*
X181850000Y-90400000D01*
X181850000Y-91600000D02*
X181150000Y-91600000D01*
%TO.C,C20*%
X156900000Y-81900000D02*
X157600000Y-81900000D01*
X157600000Y-83100000D02*
X156900000Y-83100000D01*
%TO.C,C19*%
X145400000Y-65850000D02*
X145400000Y-65150000D01*
X146600000Y-65150000D02*
X146600000Y-65850000D01*
%TO.C,C18*%
X161150000Y-67100000D02*
X161150000Y-66400000D01*
X162350000Y-66400000D02*
X162350000Y-67100000D01*
%TO.C,C17*%
X178300000Y-86650000D02*
X179300000Y-86650000D01*
X179300000Y-84950000D02*
X178300000Y-84950000D01*
%TO.C,C16*%
X148050000Y-82100000D02*
X147350000Y-82100000D01*
X147350000Y-80900000D02*
X148050000Y-80900000D01*
%TO.C,C15*%
X156900000Y-80400000D02*
X157600000Y-80400000D01*
X157600000Y-81600000D02*
X156900000Y-81600000D01*
%TO.C,C14*%
X159650000Y-67100000D02*
X159650000Y-66400000D01*
X160850000Y-66400000D02*
X160850000Y-67100000D01*
%TO.C,C13*%
X186000000Y-75150000D02*
X185000000Y-75150000D01*
X185000000Y-76850000D02*
X186000000Y-76850000D01*
%TO.C,C12*%
X143900000Y-65850000D02*
X143900000Y-65150000D01*
X145100000Y-65150000D02*
X145100000Y-65850000D01*
%TO.C,C11*%
X144350000Y-69100000D02*
X143650000Y-69100000D01*
X143650000Y-67900000D02*
X144350000Y-67900000D01*
%TO.C,C10*%
X147950000Y-84400000D02*
X146950000Y-84400000D01*
X146950000Y-86100000D02*
X147950000Y-86100000D01*
%TO.C,C9*%
X159350000Y-65250000D02*
X159350000Y-64250000D01*
X157650000Y-64250000D02*
X157650000Y-65250000D01*
%TO.C,C8*%
X129500000Y-63030000D02*
X129000000Y-63030000D01*
X129000000Y-63970000D02*
X129500000Y-63970000D01*
%TO.C,C7*%
X156750000Y-85100000D02*
X157750000Y-85100000D01*
X157750000Y-83400000D02*
X156750000Y-83400000D01*
%TO.C,C6*%
X129550000Y-56800000D02*
X128850000Y-56800000D01*
X128850000Y-55600000D02*
X129550000Y-55600000D01*
%TO.C,C5*%
X125850000Y-59650000D02*
X125850000Y-60350000D01*
X124650000Y-60350000D02*
X124650000Y-59650000D01*
%TO.C,C4*%
X127350000Y-59650000D02*
X127350000Y-60350000D01*
X126150000Y-60350000D02*
X126150000Y-59650000D01*
%TO.C,C3*%
X144100000Y-78150000D02*
X144100000Y-78850000D01*
X142900000Y-78850000D02*
X142900000Y-78150000D01*
%TO.C,C2*%
X142600000Y-78150000D02*
X142600000Y-78850000D01*
X141400000Y-78850000D02*
X141400000Y-78150000D01*
D10*
%TO.C,U4*%
X164375000Y-92125000D02*
X164900000Y-92125000D01*
X164375000Y-86875000D02*
X164900000Y-86875000D01*
X169625000Y-86875000D02*
X169100000Y-86875000D01*
X169625000Y-92125000D02*
X169100000Y-92125000D01*
X164375000Y-86875000D02*
X164375000Y-87400000D01*
X169625000Y-86875000D02*
X169625000Y-87400000D01*
X164375000Y-92125000D02*
X164375000Y-91600000D01*
%TD*%
M02*
